# Blender v2.79 (sub 0) OBJ File: 'allinoneblend.blend'
# www.blender.org
mtllib diagonal_edge.mtl
o Cube.014_Cube.021
v -0.500000 0.000000 -0.500000
v -0.500000 1.000000 -0.500000
v -0.500000 0.000000 0.500000
v -0.500000 1.000000 0.000000
v -0.025000 1.000000 0.025000
v -0.500000 0.500000 0.250000
v -0.250000 1.000000 0.000000
v -0.500000 0.250000 0.375000
v -0.500000 0.750000 0.125000
v -0.245904 0.524460 0.245904
v -0.249938 0.718880 0.053712
v -0.375000 1.000000 0.000000
v -0.500000 0.125000 0.437500
v -0.500000 0.625000 0.187500
v -0.374789 0.482801 0.198748
v -0.125000 1.000000 0.000000
v -0.500000 0.375000 0.312500
v -0.500000 0.875000 0.062500
v -0.378803 0.730543 0.081390
v -0.275180 0.628462 0.163117
v -0.258594 0.854354 0.018916
v -0.155466 0.883803 0.058989
v -0.381829 0.608841 0.146383
v -0.392749 0.375130 0.282178
v -0.378040 0.849072 0.010001
v 0.000000 1.000000 0.500000
v -0.250000 0.500000 0.500000
v -0.375000 0.250000 0.500000
v -0.125000 0.750000 0.500000
v 0.000000 1.000000 0.250000
v -0.102264 0.748119 0.259837
v -0.437500 0.125000 0.500000
v -0.187500 0.625000 0.500000
v 0.000000 1.000000 0.125000
v -0.312500 0.375000 0.500000
v -0.062500 0.875000 0.500000
v 0.000000 1.000000 0.375000
v -0.172681 0.467667 0.368930
v -0.138778 0.784826 0.138778
v -0.074662 0.726972 0.378358
v -0.165150 0.629758 0.275738
v -0.029697 0.860755 0.259662
v -0.364398 0.270758 0.364398
v -0.280985 0.374416 0.392385
v -0.028689 0.858849 0.378582
v -0.099260 0.582325 0.375595
v -0.002135 0.843190 0.142938
v -0.293867 0.375045 0.293867
v -0.401953 0.109577 0.401954
v -0.171197 0.622832 0.171197
v -0.065325 0.863116 0.065325
v 0.000000 1.000000 -0.500000
v 0.500000 0.000000 0.500000
v 0.500000 1.000000 0.500000
v 0.500000 0.000000 -0.500000
v 0.500000 1.000000 -0.000000
v 0.025000 1.000000 -0.025000
v 0.500000 0.500000 -0.250000
v 0.250000 1.000000 -0.000000
v 0.500000 0.250000 -0.375000
v 0.500000 0.750000 -0.125000
v 0.241186 0.519776 -0.241186
v 0.259325 0.746607 -0.099752
v 0.375000 1.000000 -0.000000
v 0.500000 0.125000 -0.437500
v 0.500000 0.625000 -0.187500
v 0.381789 0.500878 -0.229886
v 0.125000 1.000000 -0.000000
v 0.500000 0.375000 -0.312500
v 0.500000 0.875000 -0.062500
v 0.375654 0.705240 -0.033726
v 0.276754 0.632121 -0.168857
v 0.260610 0.866443 -0.039276
v 0.148047 0.859752 -0.025319
v 0.381933 0.609283 -0.147169
v 0.388088 0.365984 -0.266900
v 0.378172 0.851444 -0.014535
v 0.250000 0.500000 -0.500000
v 0.375000 0.250000 -0.500000
v 0.125000 0.750000 -0.500000
v -0.000000 1.000000 -0.250000
v 0.080682 0.735122 -0.255437
v 0.437500 0.125000 -0.500000
v 0.187500 0.625000 -0.500000
v -0.000000 1.000000 -0.125000
v 0.312500 0.375000 -0.500000
v 0.062500 0.875000 -0.500000
v -0.000000 1.000000 -0.375000
v 0.213958 0.491631 -0.378209
v 0.120414 0.765400 -0.120414
v 0.082482 0.731123 -0.378875
v 0.133946 0.609869 -0.267180
v -0.017006 0.833023 -0.255037
v 0.367198 0.273126 -0.367198
v 0.252387 0.357297 -0.383662
v -0.019529 0.833624 -0.377185
v 0.103807 0.584883 -0.376196
v 0.052521 0.879183 -0.154041
v 0.306684 0.386887 -0.306684
v 0.438809 0.135775 -0.438809
v 0.181659 0.633007 -0.181659
v 0.055098 0.850663 -0.055098
vn 0.4042 0.0524 0.9132
vn 0.2447 0.4336 0.8672
vn 0.3490 0.4191 0.8382
vn -0.3933 0.1412 0.9085
vn -0.6550 0.1484 0.7409
vn 0.3931 0.4112 0.8224
vn -0.4343 0.4830 0.7603
vn -0.2200 0.4638 0.8582
vn 0.0015 0.4472 0.8944
vn 0.3663 0.4161 0.8323
vn 0.2251 0.2559 0.9401
vn -0.0772 0.0675 0.9947
vn -0.8320 0.4160 -0.3671
vn -0.7999 0.1248 0.5871
vn -0.9798 0.1994 0.0115
vn -0.8944 0.4472 -0.0015
vn -0.8647 0.4324 -0.2556
vn -0.9098 0.3167 0.2684
vn -0.8599 0.3005 -0.4127
vn -0.9403 0.1839 -0.2863
vn -0.7098 0.3756 0.5959
vn -0.7541 0.3770 -0.5378
vn -0.7830 0.1447 -0.6050
vn -0.7754 0.5002 0.3855
vn -0.9498 0.1851 -0.2521
vn -0.9033 0.2505 0.3484
vn -0.0076 0.7717 0.6360
vn -0.0276 0.6178 0.7859
vn -0.7943 0.6075 0.0057
vn -0.4259 0.3976 0.8127
vn -0.6863 0.4126 0.5990
vn -0.7885 0.6056 0.1070
vn -0.0934 0.6003 0.7943
vn 0.3671 0.4160 0.8320
vn 0.0916 0.6343 0.7677
vn -0.3545 0.7948 0.4926
vn -0.9136 0.3364 0.2284
vn -0.2284 0.3364 0.9136
vn 0.0000 -0.0000 -1.0000
vn -1.0000 0.0000 0.0000
vn 0.0000 -1.0000 0.0000
vn 0.0000 -0.0000 1.0000
vn -0.3788 0.0821 -0.9218
vn -0.3718 0.4152 -0.8303
vn -0.3429 0.4201 -0.8402
vn -0.1343 0.2697 -0.9535
vn 0.1971 0.6667 -0.7188
vn -0.1472 0.4423 -0.8847
vn 0.1364 0.5054 -0.8520
vn 0.2862 0.7393 -0.6095
vn 0.0253 0.4471 -0.8941
vn -0.6141 0.1131 -0.7811
vn 0.5183 0.1025 -0.8490
vn 0.2171 0.0996 -0.9711
vn 0.8902 0.4451 -0.0974
vn 0.9471 0.1328 -0.2923
vn 0.9930 -0.1163 -0.0211
vn 0.8941 0.4471 -0.0253
vn 0.7902 0.3951 0.4684
vn 0.7086 0.7055 -0.0125
vn 0.8351 0.4175 0.3582
vn 0.8430 -0.1059 0.5274
vn 0.6567 0.7024 -0.2748
vn 0.8578 0.4289 0.2833
vn 0.8020 0.1276 0.5835
vn 0.8483 0.4055 -0.3405
vn 0.8361 -0.0687 -0.5442
vn 0.7801 0.5211 -0.3464
vn 0.1183 0.5263 -0.8421
vn 0.1194 0.5105 -0.8516
vn 0.6228 0.5947 -0.5084
vn 0.1351 0.4908 -0.8607
vn 0.8049 0.5291 -0.2686
vn 0.5264 0.6003 -0.6021
vn 0.4709 0.5963 -0.6502
vn 0.0974 0.4451 -0.8902
vn 0.1641 0.6760 -0.7184
vn 0.8333 0.5365 0.1329
vn 0.9424 0.2374 -0.2356
vn 0.2356 0.2374 -0.9424
vn 1.0000 0.0000 0.0000
vn 0.0000 1.0000 0.0000
vn 0.0000 0.4472 0.8944
vn 0.3832 0.5250 0.7600
vn 0.3660 0.4313 0.8247
vn 0.0000 0.4527 0.8917
vn -0.4343 0.5198 0.7357
vn 0.3499 0.3760 0.8580
vn -0.2095 0.3651 0.9071
vn 0.2060 0.7304 0.6512
vn 0.2084 0.6395 0.7400
vn 0.4317 0.4634 0.7739
vn -0.0864 0.5144 0.8532
vn 0.0000 0.1288 0.9917
vn -0.9752 0.2172 -0.0430
vn -0.8319 0.4795 0.2793
vn -0.9780 0.2086 0.0000
vn -0.7309 0.6469 -0.2176
vn -0.6213 0.5926 -0.5127
vn -0.8405 0.5415 0.0158
vn -0.8547 0.4273 -0.2948
vn -0.8944 0.4472 -0.0000
vn -0.6707 0.3929 0.6292
vn -0.6479 0.4506 -0.6141
vn -0.8142 0.4071 -0.4140
vn -0.3770 0.8986 -0.2243
vn -0.9999 0.0136 0.0000
vn -0.8818 0.4712 0.0198
vn -0.6814 0.2723 0.6793
vn -0.0916 0.6194 0.7797
vn -0.6389 0.7642 0.0884
vn 0.0430 0.2172 0.9752
vn -0.7621 0.0838 0.6420
vn 0.0390 0.4442 0.8951
vn -0.0000 0.4472 -0.8944
vn -0.1604 0.2542 -0.9538
vn -0.6046 0.5913 -0.5337
vn -0.0000 0.1777 -0.9841
vn -0.1362 0.4475 -0.8839
vn -0.3323 0.5724 -0.7496
vn 0.2835 0.5815 -0.7626
vn 0.5555 0.4900 -0.6717
vn -0.3077 0.7293 -0.6111
vn -0.4017 0.4095 -0.8191
vn 0.2383 0.4355 -0.8681
vn -0.0000 0.2821 -0.9594
vn 0.8796 0.4747 -0.0310
vn 0.9203 0.3913 0.0007
vn 0.9949 -0.1013 -0.0000
vn 0.5105 0.7708 0.3811
vn 0.9230 0.2523 0.2905
vn 0.7078 0.7063 -0.0111
vn 0.5819 0.5695 0.5805
vn 0.8944 0.4472 0.0000
vn 0.6057 0.7226 -0.3331
vn 0.5386 0.6239 0.5663
vn 0.5488 0.5502 -0.6293
vn 0.9171 0.3987 0.0000
vn 0.7632 0.3740 -0.5270
vn 0.1924 0.4839 -0.8537
vn 0.4765 0.2533 -0.8419
vn 0.7478 0.2391 -0.6194
vn 0.0310 0.4747 -0.8796
vn 0.9211 0.3799 0.0855
vn 0.2789 0.2148 -0.9360
usemtl None
s off
f 12//1 18//1 25//1
f 24//2 6//2 17//2
f 23//3 9//3 14//3
f 22//4 7//4 21//4
f 39//5 21//5 11//5
f 15//6 14//6 6//6
f 20//7 15//7 10//7
f 20//8 19//8 23//8
f 43//9 17//9 8//9
f 19//10 18//10 9//10
f 21//11 19//11 11//11
f 21//12 12//12 25//12
f 28//13 49//13 32//13
f 40//14 41//14 46//14
f 37//15 42//15 45//15
f 35//16 43//16 28//16
f 27//17 44//17 35//17
f 45//18 31//18 40//18
f 29//19 45//19 40//19
f 36//20 37//20 45//20
f 38//21 41//21 10//21
f 33//22 38//22 27//22
f 33//23 40//23 46//23
f 42//24 39//24 31//24
f 30//25 47//25 42//25
f 50//26 31//26 39//26
f 50//27 11//27 20//27
f 20//28 10//28 50//28
f 50//29 10//29 41//29
f 15//30 48//30 10//30
f 48//31 38//31 10//31
f 43//32 44//32 48//32
f 48//33 24//33 43//33
f 49//34 8//34 13//34
f 13//34 3//34 49//34
f 49//13 3//13 32//13
f 22//35 39//35 51//35
f 39//36 47//36 51//36
f 51//37 34//37 5//37
f 16//38 51//38 5//38
f 84//39 1//39 80//39
f 9//40 18//40 2//40
f 1//41 53//41 3//41
f 54//42 26//42 36//42
f 64//43 70//43 77//43
f 76//44 58//44 69//44
f 75//45 61//45 66//45
f 74//46 59//46 73//46
f 74//47 63//47 90//47
f 67//48 66//48 58//48
f 72//49 67//49 62//49
f 72//50 71//50 75//50
f 94//51 69//51 60//51
f 77//52 61//52 71//52
f 63//53 77//53 71//53
f 73//54 64//54 77//54
f 79//55 100//55 83//55
f 91//56 92//56 97//56
f 88//57 93//57 96//57
f 86//58 94//58 79//58
f 78//59 95//59 86//59
f 96//60 82//60 91//60
f 87//61 91//61 80//61
f 87//62 88//62 96//62
f 89//63 92//63 62//63
f 84//64 89//64 78//64
f 84//65 91//65 97//65
f 82//66 98//66 90//66
f 81//67 98//67 93//67
f 101//68 82//68 90//68
f 101//69 63//69 72//69
f 72//70 62//70 101//70
f 101//71 62//71 92//71
f 67//72 99//72 62//72
f 99//73 89//73 62//73
f 94//74 95//74 99//74
f 99//75 76//75 94//75
f 100//76 60//76 65//76
f 65//76 55//76 100//76
f 100//55 55//55 83//55
f 74//77 90//77 102//77
f 90//78 98//78 102//78
f 102//79 85//79 57//79
f 68//80 102//80 57//80
f 61//81 70//81 54//81
f 54//82 56//82 64//82
f 12//83 4//83 18//83
f 24//84 15//84 6//84
f 23//85 19//85 9//85
f 22//86 16//86 7//86
f 39//87 22//87 21//87
f 15//88 23//88 14//88
f 20//89 23//89 15//89
f 20//90 11//90 19//90
f 43//91 24//91 17//91
f 19//92 25//92 18//92
f 21//93 25//93 19//93
f 21//94 7//94 12//94
f 28//95 43//95 49//95
f 40//96 31//96 41//96
f 37//97 30//97 42//97
f 35//98 44//98 43//98
f 27//99 38//99 44//99
f 45//100 42//100 31//100
f 29//101 36//101 45//101
f 36//102 26//102 37//102
f 38//103 46//103 41//103
f 33//104 46//104 38//104
f 33//105 29//105 40//105
f 42//106 47//106 39//106
f 30//107 34//107 47//107
f 50//108 41//108 31//108
f 50//109 39//109 11//109
f 15//110 24//110 48//110
f 48//111 44//111 38//111
f 49//112 43//112 8//112
f 51//113 47//113 34//113
f 16//114 22//114 51//114
f 55//39 1//39 83//39
f 1//39 2//39 80//39
f 83//39 1//39 79//39
f 2//39 52//39 87//39
f 2//39 87//39 80//39
f 79//39 1//39 86//39
f 78//39 86//39 1//39
f 78//39 1//39 84//39
f 3//40 13//40 1//40
f 13//40 8//40 1//40
f 17//40 6//40 1//40
f 6//40 14//40 1//40
f 8//40 17//40 1//40
f 2//40 1//40 9//40
f 18//40 4//40 2//40
f 14//40 9//40 1//40
f 1//41 55//41 53//41
f 33//42 27//42 53//42
f 27//42 35//42 53//42
f 28//42 32//42 53//42
f 32//42 3//42 53//42
f 29//42 33//42 53//42
f 36//42 29//42 54//42
f 35//42 28//42 53//42
f 53//42 54//42 29//42
f 64//115 56//115 70//115
f 76//116 67//116 58//116
f 75//117 71//117 61//117
f 74//118 68//118 59//118
f 74//119 73//119 63//119
f 67//120 75//120 66//120
f 72//121 75//121 67//121
f 72//122 63//122 71//122
f 94//123 76//123 69//123
f 77//124 70//124 61//124
f 63//125 73//125 77//125
f 73//126 59//126 64//126
f 79//127 94//127 100//127
f 91//128 82//128 92//128
f 88//129 81//129 93//129
f 86//130 95//130 94//130
f 78//131 89//131 95//131
f 96//132 93//132 82//132
f 87//133 96//133 91//133
f 87//134 52//134 88//134
f 89//135 97//135 92//135
f 84//136 97//136 89//136
f 84//61 80//61 91//61
f 82//137 93//137 98//137
f 81//138 85//138 98//138
f 101//139 92//139 82//139
f 101//140 90//140 63//140
f 67//141 76//141 99//141
f 99//142 95//142 89//142
f 100//143 94//143 60//143
f 102//144 98//144 85//144
f 68//145 74//145 102//145
f 55//81 65//81 53//81
f 65//81 60//81 53//81
f 69//81 58//81 53//81
f 58//81 66//81 53//81
f 66//81 61//81 53//81
f 53//81 60//81 69//81
f 56//81 54//81 70//81
f 54//81 53//81 61//81
f 12//82 7//82 2//82
f 7//82 16//82 81//82
f 2//82 81//82 88//82
f 2//82 4//82 12//82
f 88//82 52//82 2//82
f 85//82 81//82 16//82
f 2//82 7//82 81//82
f 85//82 16//82 5//82
f 57//82 85//82 5//82
f 34//82 30//82 68//82
f 30//82 37//82 54//82
f 68//82 30//82 59//82
f 57//82 5//82 34//82
f 64//82 59//82 54//82
f 68//82 57//82 34//82
f 37//82 26//82 54//82
f 59//82 30//82 54//82
