# Blender v2.79 (sub 0) OBJ File: 'allinoneblend.blend'
# www.blender.org
mtllib diagonal_wall.mtl
o Cube.010_Cube.019
v 0.500000 0.000000 -0.500000
v 0.500000 1.000000 0.000000
v 0.065277 0.969119 -0.066583
v 0.500000 0.500000 -0.250000
v 0.250000 1.000000 0.000000
v 0.500000 0.250000 -0.375000
v 0.500000 0.750000 -0.125000
v 0.199760 0.524972 -0.265117
v 0.239694 0.708552 -0.098451
v 0.375000 1.000000 0.000000
v 0.500000 0.125000 -0.437500
v 0.500000 0.625000 -0.187500
v 0.356492 0.452407 -0.208410
v 0.125000 1.000000 0.000000
v 0.500000 0.375000 -0.312500
v 0.500000 0.875000 -0.062500
v 0.375415 0.726505 -0.089808
v 0.282471 0.599141 -0.196087
v 0.253216 0.845645 -0.021979
v 0.177107 0.875882 -0.099478
v 0.379286 0.601242 -0.162838
v 0.407905 0.359316 -0.321889
v 0.375683 0.849376 -0.014168
v -0.500000 0.000000 -0.500000
v -0.500000 1.000000 -0.500000
v 0.000000 1.000000 -0.500000
v 0.250000 0.500000 -0.500000
v 0.375000 0.250000 -0.500000
v 0.125000 0.750000 -0.500000
v 0.000000 1.000000 -0.250000
v 0.087850 0.763822 -0.280021
v 0.437500 0.125000 -0.500000
v 0.187500 0.625000 -0.500000
v 0.000000 1.000000 -0.125000
v 0.312500 0.375000 -0.500000
v 0.062500 0.875000 -0.500000
v 0.000000 1.000000 -0.375000
v 0.171898 0.487934 -0.389595
v 0.112466 0.798524 -0.162164
v 0.059087 0.735782 -0.391338
v 0.107463 0.640191 -0.298689
v 0.024458 0.874012 -0.269252
v 0.331109 0.278060 -0.375961
v 0.242251 0.389992 -0.411367
v 0.023921 0.866148 -0.384939
v 0.101799 0.601835 -0.388279
v 0.009762 0.886647 -0.170755
v 0.296042 0.418046 -0.325599
v 0.393358 0.139349 -0.399234
v 0.151926 0.650323 -0.189956
v 0.061247 0.892863 -0.074778
v -0.500000 1.000000 0.000000
v -0.500000 0.000000 0.500000
v -0.050307 0.938522 0.051559
v -0.500000 0.500000 0.250000
v -0.250000 1.000000 0.000000
v -0.500000 0.250000 0.375000
v -0.500000 0.750000 0.125000
v -0.224266 0.545085 0.280246
v -0.240305 0.709668 0.100079
v -0.375000 1.000000 0.000000
v -0.500000 0.125000 0.437500
v -0.500000 0.625000 0.187500
v -0.365783 0.468444 0.232733
v -0.125000 1.000000 0.000000
v -0.500000 0.375000 0.312500
v -0.500000 0.875000 0.062500
v -0.371833 0.695005 0.030446
v -0.282282 0.598853 0.195715
v -0.255772 0.860960 0.048385
v -0.166515 0.858044 0.078159
v -0.377327 0.592741 0.147645
v -0.383972 0.326221 0.274473
v -0.375656 0.848108 0.011672
v 0.500000 0.000000 0.500000
v 0.500000 1.000000 0.500000
v 0.000000 1.000000 0.500000
v -0.250000 0.500000 0.500000
v -0.375000 0.250000 0.500000
v -0.125000 0.750000 0.500000
v 0.000000 1.000000 0.250000
v -0.066389 0.751423 0.275953
v -0.437500 0.125000 0.500000
v -0.187500 0.625000 0.500000
v 0.000000 1.000000 0.125000
v -0.312500 0.375000 0.500000
v -0.062500 0.875000 0.500000
v 0.000000 1.000000 0.375000
v -0.220413 0.515567 0.400083
v -0.098772 0.786892 0.153715
v -0.074706 0.743988 0.392280
v -0.156272 0.670223 0.309468
v 0.035180 0.838853 0.263438
v -0.326151 0.274336 0.372225
v -0.252525 0.396063 0.414392
v 0.021287 0.842689 0.383276
v -0.091752 0.596200 0.387088
v -0.019921 0.894156 0.173016
v -0.291778 0.414563 0.322235
v -0.405468 0.146962 0.411139
v -0.171366 0.666606 0.204612
v -0.039493 0.871707 0.056281
v -0.500000 0.000000 0.000000
vn -0.3762 0.0851 -0.9226
vn -0.0627 0.7575 -0.6498
vn -0.2653 0.4795 -0.8365
vn 0.6691 0.6152 -0.4171
vn 0.5481 0.2000 -0.8121
vn -0.3607 0.3231 -0.8749
vn 0.4428 0.2945 -0.8469
vn 0.2197 0.6960 -0.6836
vn 0.0869 0.4936 -0.8653
vn -0.3214 0.4969 -0.8061
vn -0.0089 0.4878 -0.8729
vn 0.0587 0.1419 -0.9881
vn 0.8498 0.4249 0.3118
vn 0.9374 0.2947 -0.1854
vn 0.9841 0.1771 -0.0166
vn 0.8744 0.4372 0.2105
vn 0.7557 0.3778 0.5350
vn 0.9163 0.2620 -0.3028
vn 0.7666 0.3833 0.5152
vn 0.8483 0.4241 0.3170
vn 0.8029 0.4979 -0.3279
vn 0.7391 0.3695 0.5632
vn 0.7057 0.3528 0.6145
vn 0.8090 0.4962 -0.3151
vn 0.9775 0.1708 0.1239
vn 0.9140 0.2955 -0.2779
vn 0.2415 0.6970 -0.6752
vn 0.1796 0.5554 -0.8120
vn 0.7756 0.5149 -0.3651
vn 0.5053 0.7222 -0.4724
vn 0.5898 0.7284 -0.3487
vn 0.7185 0.3877 -0.5774
vn 0.2291 0.3798 -0.8962
vn -0.2523 0.4327 -0.8655
vn -0.0630 0.6596 -0.7490
vn 0.6210 0.6869 -0.3776
vn 0.6775 0.0431 -0.7343
vn 0.7362 0.0337 -0.6760
vn 0.0000 0.0000 -1.0000
vn 0.0000 0.4472 -0.8944
vn -0.3774 0.4141 -0.8283
vn -0.3193 0.4238 -0.8476
vn 0.0000 0.1410 -0.9900
vn 0.7375 0.2721 -0.6181
vn -0.2613 0.4317 -0.8633
vn 0.3112 0.2343 -0.9210
vn -0.0116 0.5034 -0.8640
vn 0.0150 0.4472 -0.8943
vn -0.4027 0.4094 -0.8187
vn 0.0383 0.5238 -0.8510
vn 0.0000 0.0936 -0.9956
vn 0.9007 0.3646 0.2362
vn 0.9372 0.1926 -0.2907
vn 0.9817 0.1906 0.0000
vn 0.6491 0.6436 0.4056
vn 0.7276 0.3986 0.5583
vn 0.8646 0.5011 -0.0381
vn 0.9169 0.2314 0.3252
vn 0.9844 0.1759 0.0000
vn 0.7870 0.5476 -0.2842
vn 0.6800 0.4115 0.6069
vn 0.8073 0.2694 0.5250
vn 0.6512 0.7589 -0.0002
vn 0.9963 0.0858 0.0000
vn 0.9000 0.2012 -0.3868
vn 0.5873 0.2975 -0.7527
vn 0.4267 0.7844 -0.4501
vn 0.6063 0.5609 -0.5637
vn 0.0356 0.1809 -0.9829
vn 0.8433 0.2621 -0.4693
vn -0.0810 0.6024 -0.7941
vn 0.3902 0.0689 0.9181
vn 0.3844 0.2144 0.8979
vn 0.3815 0.6876 0.6178
vn -0.2544 0.5225 0.8138
vn -0.4970 0.3636 0.7879
vn 0.2345 0.5639 0.7919
vn -0.5117 0.5215 0.6829
vn -0.3639 0.6837 0.6325
vn -0.1106 0.8493 0.5162
vn 0.6203 0.1107 0.7765
vn -0.4750 0.2407 0.8465
vn -0.3086 0.3240 0.8943
vn -0.8750 0.4375 -0.2073
vn -0.7379 0.0615 0.6721
vn -0.9842 -0.1389 -0.1097
vn -0.8663 0.4332 -0.2487
vn -0.7947 0.3973 -0.4590
vn -0.7172 0.6969 -0.0067
vn -0.8179 0.4090 -0.4047
vn -0.7101 0.3551 -0.6080
vn -0.5016 0.8361 0.2221
vn -0.8779 0.4389 -0.1916
vn -0.6739 0.3370 -0.6574
vn -0.5811 0.7274 0.3650
vn -0.8830 -0.1558 0.4428
vn -0.7222 0.5892 0.3623
vn -0.4581 0.6738 0.5797
vn -0.4233 0.6044 0.6749
vn -0.8839 0.4542 0.1116
vn -0.5040 0.4896 0.7115
vn -0.8580 0.4916 0.1487
vn -0.8320 0.3557 0.4258
vn -0.6887 0.3873 0.6129
vn 0.1440 0.4426 0.8851
vn 0.0352 0.7431 0.6683
vn -0.8074 0.5896 0.0220
vn -0.7877 -0.0844 0.6102
vn -0.5888 -0.0382 0.8074
vn 0.0000 0.0000 1.0000
vn 0.0000 0.4472 0.8944
vn 0.2151 0.4367 0.8735
vn 0.6484 0.3405 0.6809
vn 0.0000 0.3287 0.9444
vn -0.2953 0.2817 0.9129
vn 0.3779 0.4140 0.8281
vn -0.4191 0.4860 0.7669
vn -0.3928 0.7020 0.5941
vn 0.4336 0.4030 0.8060
vn 0.4197 0.4059 0.8119
vn -0.3017 0.1086 0.9472
vn 0.0000 0.0766 0.9971
vn -0.8553 0.4594 -0.2395
vn -0.6705 0.7419 -0.0005
vn -0.9770 -0.2133 0.0000
vn -0.7316 0.5713 -0.3720
vn -0.9434 0.2242 -0.2444
vn -0.6562 0.7480 -0.1000
vn -0.6075 0.5375 -0.5849
vn -0.9910 -0.1341 0.0000
vn -0.6594 0.1884 0.7278
vn -0.4758 0.6668 -0.5736
vn -0.8972 0.1184 -0.4255
vn -0.6700 0.3775 0.6392
vn -0.9827 0.1850 -0.0000
vn -0.6547 0.7528 0.0683
vn -0.5462 0.5838 0.6007
vn -0.6445 0.2901 0.7075
vn -0.8610 0.2820 0.4233
vn -0.0279 0.3079 0.9510
vn -0.9651 0.2346 0.1167
vn 0.1031 0.4564 0.8838
vn 0.0000 1.0000 0.0000
vn 1.0000 0.0000 -0.0000
vn 0.0000 -1.0000 0.0000
vn -1.0000 0.0000 -0.0000
vn -0.3575 0.9275 -0.1095
vn 0.1192 0.9266 0.3566
vn 0.4010 0.8236 0.4010
vn -0.4065 0.8182 -0.4065
usemtl None
s off
f 10//1 16//1 23//1
f 13//2 15//2 22//2
f 17//3 12//3 21//3
f 14//4 19//4 20//4
f 20//5 9//5 39//5
f 21//6 4//6 13//6
f 18//7 13//7 8//7
f 9//8 21//8 18//8
f 22//9 6//9 43//9
f 23//10 7//10 17//10
f 19//11 17//11 9//11
f 5//12 23//12 19//12
f 28//13 49//13 32//13
f 40//14 41//14 46//14
f 37//15 42//15 45//15
f 35//16 43//16 28//16
f 27//17 44//17 35//17
f 45//18 31//18 40//18
f 36//19 40//19 29//19
f 26//20 45//20 36//20
f 46//21 8//21 38//21
f 33//22 38//22 27//22
f 29//23 46//23 33//23
f 42//24 39//24 31//24
f 30//25 47//25 42//25
f 50//26 31//26 39//26
f 50//27 9//27 18//27
f 18//28 8//28 50//28
f 50//29 8//29 41//29
f 13//30 48//30 8//30
f 48//31 38//31 8//31
f 43//32 44//32 48//32
f 48//33 22//33 43//33
f 49//34 6//34 11//34
f 11//34 1//34 49//34
f 49//13 1//13 32//13
f 20//35 39//35 51//35
f 39//36 47//36 51//36
f 51//37 34//37 3//37
f 14//38 51//38 3//38
f 27//39 35//39 24//39
f 10//40 2//40 16//40
f 13//41 4//41 15//41
f 17//42 7//42 12//42
f 14//43 5//43 19//43
f 20//44 19//44 9//44
f 21//45 12//45 4//45
f 18//46 21//46 13//46
f 9//47 17//47 21//47
f 22//48 15//48 6//48
f 23//49 16//49 7//49
f 19//50 23//50 17//50
f 5//51 10//51 23//51
f 28//52 43//52 49//52
f 40//53 31//53 41//53
f 37//54 30//54 42//54
f 35//55 44//55 43//55
f 27//56 38//56 44//56
f 45//57 42//57 31//57
f 36//58 45//58 40//58
f 26//59 37//59 45//59
f 46//60 41//60 8//60
f 33//61 46//61 38//61
f 29//62 40//62 46//62
f 42//63 47//63 39//63
f 30//64 34//64 47//64
f 50//65 41//65 31//65
f 50//66 39//66 9//66
f 13//67 22//67 48//67
f 48//68 44//68 38//68
f 49//69 43//69 6//69
f 51//70 47//70 34//70
f 14//71 20//71 51//71
f 1//39 24//39 32//39
f 24//39 25//39 29//39
f 32//39 24//39 28//39
f 25//39 26//39 36//39
f 29//39 33//39 24//39
f 33//39 27//39 24//39
f 25//39 36//39 29//39
f 28//39 24//39 35//39
f 61//72 67//72 74//72
f 64//73 66//73 73//73
f 68//74 63//74 72//74
f 65//75 70//75 71//75
f 71//76 60//76 90//76
f 72//77 55//77 64//77
f 69//78 64//78 59//78
f 60//79 72//79 69//79
f 73//80 57//80 94//80
f 74//81 58//81 68//81
f 70//82 68//82 60//82
f 56//83 74//83 70//83
f 79//84 100//84 83//84
f 91//85 92//85 97//85
f 88//86 93//86 96//86
f 86//87 94//87 79//87
f 78//88 95//88 86//88
f 96//89 82//89 91//89
f 87//90 91//90 80//90
f 77//91 96//91 87//91
f 97//92 59//92 89//92
f 84//93 89//93 78//93
f 80//94 97//94 84//94
f 93//95 90//95 82//95
f 81//96 98//96 93//96
f 101//97 82//97 90//97
f 101//98 60//98 69//98
f 69//99 59//99 101//99
f 101//100 59//100 92//100
f 64//101 99//101 59//101
f 99//102 89//102 59//102
f 94//103 95//103 99//103
f 99//104 73//104 94//104
f 100//105 57//105 62//105
f 62//105 53//105 100//105
f 100//84 53//84 83//84
f 71//106 90//106 102//106
f 90//107 98//107 102//107
f 102//108 85//108 54//108
f 65//109 102//109 54//109
f 78//110 86//110 75//110
f 61//111 52//111 67//111
f 64//112 55//112 66//112
f 68//113 58//113 63//113
f 65//114 56//114 70//114
f 71//115 70//115 60//115
f 72//116 63//116 55//116
f 69//117 72//117 64//117
f 60//118 68//118 72//118
f 73//119 66//119 57//119
f 74//120 67//120 58//120
f 70//121 74//121 68//121
f 56//122 61//122 74//122
f 79//123 94//123 100//123
f 91//124 82//124 92//124
f 93//125 88//125 81//125
f 86//126 95//126 94//126
f 78//127 89//127 95//127
f 96//128 93//128 82//128
f 87//129 96//129 91//129
f 77//130 88//130 96//130
f 97//131 92//131 59//131
f 84//132 97//132 89//132
f 80//133 91//133 97//133
f 93//134 98//134 90//134
f 98//135 81//135 85//135
f 101//136 92//136 82//136
f 101//137 90//137 60//137
f 64//138 73//138 99//138
f 99//139 95//139 89//139
f 100//140 94//140 57//140
f 102//141 98//141 85//141
f 65//142 71//142 102//142
f 53//110 75//110 83//110
f 75//110 76//110 80//110
f 83//110 75//110 79//110
f 76//110 77//110 87//110
f 80//110 84//110 75//110
f 84//110 78//110 75//110
f 76//110 87//110 80//110
f 79//110 75//110 86//110
f 5//143 81//143 76//143
f 12//144 7//144 75//144
f 1//145 53//145 24//145
f 53//145 103//145 24//145
f 58//146 67//146 25//146
f 10//143 5//143 76//143
f 5//143 14//143 85//143
f 14//147 3//147 54//147
f 3//148 34//148 54//148
f 34//143 30//143 65//143
f 30//143 37//143 25//143
f 37//143 26//143 25//143
f 25//143 52//143 61//143
f 61//143 56//143 25//143
f 56//143 65//143 30//143
f 25//143 56//143 30//143
f 54//149 34//149 65//149
f 85//143 81//143 5//143
f 81//143 88//143 76//143
f 14//150 54//150 85//150
f 76//143 2//143 10//143
f 88//143 77//143 76//143
f 1//144 11//144 75//144
f 11//144 6//144 75//144
f 15//144 4//144 75//144
f 4//144 12//144 75//144
f 75//144 6//144 15//144
f 2//144 76//144 16//144
f 76//144 75//144 7//144
f 7//144 16//144 76//144
f 1//145 75//145 53//145
f 103//146 53//146 62//146
f 57//146 66//146 103//146
f 66//146 55//146 103//146
f 103//146 62//146 57//146
f 25//146 24//146 58//146
f 24//146 103//146 63//146
f 58//146 24//146 63//146
f 67//146 52//146 25//146
f 55//146 63//146 103//146
