# Blender v2.79 (sub 0) OBJ File: 'allinoneblend.blend'
# www.blender.org
mtllib double_wall.mtl
o Cube.009_Cube.015
v 0.500000 0.000000 -0.500000
v 0.500000 0.000000 0.500000
v 0.250000 0.500000 -0.500000
v 0.500000 0.000000 -0.000000
v 0.250000 0.500000 0.500000
v 0.254694 0.502347 -0.000000
v 0.375000 0.250000 -0.500000
v 0.500000 0.000000 -0.250000
v 0.375000 0.250000 0.500000
v 0.125000 0.750000 -0.500000
v 0.500000 0.000000 0.250000
v 0.125000 0.750000 0.500000
v 0.237219 0.493610 0.250000
v 0.191986 0.470994 -0.250000
v 0.340335 0.232668 -0.000000
v 0.109015 0.735197 -0.000000
v 0.086264 0.714129 -0.250000
v 0.367291 0.246146 -0.250000
v 0.360849 0.242925 0.250000
v 0.103775 0.730345 0.250000
v 0.437500 0.125000 -0.500000
v 0.500000 0.000000 -0.375000
v 0.437500 0.125000 0.500000
v 0.187500 0.625000 -0.500000
v 0.500000 0.000000 0.125000
v 0.187500 0.625000 0.500000
v 0.250557 0.500278 0.375000
v 0.206119 0.478060 -0.125000
v 0.439840 0.126170 -0.000000
v 0.220045 0.641272 -0.000000
v 0.312500 0.375000 -0.500000
v 0.500000 0.000000 -0.125000
v 0.312500 0.375000 0.500000
v -0.000000 0.825000 -0.500000
v 0.500000 0.000000 0.375000
v 0.000000 0.825000 0.500000
v 0.278916 0.514457 0.125000
v 0.237979 0.493990 -0.375000
v 0.265668 0.351585 -0.000000
v 0.000000 0.825000 0.000000
v 0.131511 0.756030 -0.125000
v 0.133779 0.758130 -0.375000
v 0.175388 0.618944 -0.250000
v -0.000000 0.825000 -0.250000
v 0.389052 0.257026 -0.125000
v 0.391032 0.258016 -0.375000
v 0.416249 0.114375 -0.250000
v 0.341626 0.389563 -0.250000
v 0.371736 0.248368 0.375000
v 0.395341 0.260170 0.125000
v 0.418854 0.115677 0.250000
v 0.261723 0.349613 0.250000
v 0.127940 0.752722 0.375000
v 0.121334 0.746605 0.125000
v 0.188747 0.625623 0.250000
v 0.000000 0.825000 0.250000
v 0.000000 0.825000 0.125000
v 0.148542 0.605522 0.125000
v 0.176016 0.619258 0.375000
v 0.300573 0.369037 0.125000
v 0.467859 0.140179 0.125000
v 0.370827 0.091664 0.375000
v 0.329556 0.383528 -0.375000
v 0.438085 0.125293 -0.375000
v 0.467650 0.140075 -0.125000
v -0.000000 0.825000 -0.375000
v 0.192795 0.627647 -0.375000
v 0.153950 0.608226 -0.125000
v -0.000000 0.825000 -0.125000
v 0.260887 0.349195 -0.125000
v 0.322624 0.380062 0.375000
v 0.000000 0.825000 0.375000
v -0.500000 0.000000 0.500000
v -0.500000 0.000000 -0.500000
v -0.250000 0.500000 0.500000
v -0.500000 0.000000 0.000000
v -0.250000 0.500000 -0.500000
v -0.274177 0.512088 0.000000
v -0.375000 0.250000 0.500000
v -0.500000 0.000000 0.250000
v -0.375000 0.250000 -0.500000
v -0.125000 0.750000 0.500000
v -0.500000 0.000000 -0.250000
v -0.125000 0.750000 -0.500000
v -0.258354 0.504177 -0.250000
v -0.274992 0.512496 0.250000
v -0.401156 0.263078 0.000000
v -0.096433 0.723546 0.000000
v -0.130533 0.755124 0.250000
v -0.386114 0.255557 0.250000
v -0.399652 0.262325 -0.250000
v -0.102763 0.729407 -0.250000
v -0.437500 0.125000 0.500000
v -0.500000 0.000000 0.375000
v -0.437500 0.125000 -0.500000
v -0.187500 0.625000 0.500000
v -0.500000 0.000000 -0.125000
v -0.187500 0.625000 -0.500000
v -0.249585 0.499793 -0.375000
v -0.229500 0.489751 0.125000
v -0.403695 0.108098 0.000000
v -0.206177 0.634338 0.000000
v -0.312500 0.375000 0.500000
v -0.500000 0.000000 0.125000
v -0.312500 0.375000 -0.500000
v -0.500000 0.000000 -0.375000
v -0.268521 0.509260 -0.125000
v -0.263160 0.506580 0.375000
v -0.320860 0.379180 0.000000
v -0.112832 0.738732 0.125000
v -0.093839 0.721144 0.375000
v -0.195225 0.628862 0.250000
v -0.356764 0.240882 0.125000
v -0.350507 0.237754 0.375000
v -0.467117 0.139808 0.250000
v -0.268720 0.353111 0.250000
v -0.405137 0.265068 -0.375000
v -0.346760 0.235880 -0.125000
v -0.439065 0.125782 -0.250000
v -0.284956 0.361228 -0.250000
v -0.093079 0.720440 -0.375000
v -0.140857 0.764684 -0.125000
v -0.187787 0.625144 -0.250000
v -0.215633 0.639066 -0.125000
v -0.169545 0.616023 -0.375000
v -0.345850 0.391674 -0.125000
v -0.414012 0.113257 -0.125000
v -0.338992 0.075747 -0.375000
v -0.250852 0.344177 0.375000
v -0.371732 0.092117 0.375000
v -0.446794 0.129647 0.125000
v -0.170633 0.616567 0.375000
v -0.181347 0.621924 0.125000
v -0.280247 0.358874 0.125000
v -0.310266 0.373883 -0.375000
vn 0.8542 0.5121 0.0899
vn 0.9195 0.3908 -0.0426
vn 0.5675 0.6708 -0.4774
vn 0.7220 0.6760 0.1476
vn 0.8058 0.5416 0.2395
vn 0.9202 0.3419 0.1906
vn 0.7656 0.6347 -0.1046
vn 0.8829 -0.0051 -0.4696
vn 0.7843 0.4740 0.4004
vn 0.9355 0.1592 0.3155
vn 0.8897 0.4449 -0.1022
vn 0.7327 0.5945 -0.3313
vn 0.5336 0.8258 0.1824
vn 0.5382 0.8329 -0.1291
vn 0.5442 0.7790 0.3114
vn 0.9493 0.2368 -0.2069
vn 0.5568 0.6582 0.5067
vn 0.8944 0.4472 0.0050
vn 0.9322 0.3423 -0.1177
vn 0.7718 0.6262 0.1105
vn 0.7227 0.6291 0.2862
vn 0.6809 0.5928 -0.4301
vn 0.9582 0.0697 -0.2773
vn 0.8187 0.5743 -0.0000
vn 0.9026 0.4304 -0.0000
vn 0.8303 0.5018 -0.2424
vn 0.8944 0.4472 -0.0000
vn 0.9338 -0.0054 0.3577
vn 0.9646 0.1726 0.1996
vn 0.8854 0.4427 -0.1419
vn 0.7615 0.6313 -0.1470
vn 0.8965 0.4430 -0.0000
vn 0.8944 0.4472 -0.0052
vn 0.8068 0.5908 -0.0000
vn 0.7552 0.5075 -0.4149
vn 0.4023 0.8049 0.4363
vn 0.4453 0.8909 -0.0892
vn 0.9270 0.1040 0.3602
vn 0.9420 0.3185 0.1059
vn 0.8934 0.4467 -0.0473
vn 0.8518 0.3414 -0.3973
vn 0.9209 0.3691 -0.1250
vn 0.7179 0.6722 0.1808
vn 0.4525 0.8628 0.2252
vn 0.4211 0.8030 -0.4216
vn 0.5447 0.7575 0.3599
vn 0.9676 0.1732 -0.1835
vn 0.4112 0.7557 0.5097
vn 0.8940 0.4470 -0.0292
vn 0.9326 0.3478 -0.0964
vn 0.8742 0.1488 -0.4622
vn 0.4916 0.8703 0.0305
vn 0.4771 0.8445 -0.2434
vn -0.9007 0.4341 0.0200
vn -0.8768 0.3400 0.3401
vn -0.6182 0.7606 0.1983
vn -0.7877 0.5784 0.2119
vn -0.7275 0.5888 -0.3523
vn -0.7689 0.1121 0.6295
vn -0.9879 -0.0749 0.1359
vn -0.8045 -0.2811 0.5232
vn -0.8556 0.4693 0.2185
vn -0.8710 0.1621 -0.4638
vn -0.7969 0.5836 0.1564
vn -0.7531 0.6141 -0.2362
vn -0.3680 0.8595 -0.3547
vn -0.3600 0.8407 0.4046
vn -0.8602 0.5018 -0.0904
vn -0.8728 0.4855 -0.0505
vn -0.8562 0.5097 0.0841
vn -0.8944 0.4472 0.0037
vn -0.8611 0.5023 -0.0780
vn -0.7653 0.6241 -0.1572
vn -0.5985 0.6941 0.4001
vn -0.9165 0.0054 -0.4000
vn -0.9211 0.3235 0.2165
vn -0.9000 0.4360 0.0000
vn -0.7965 0.6047 0.0000
vn -0.8731 0.4788 0.0918
vn -0.8944 0.4472 0.0000
vn -0.8010 -0.2799 -0.5292
vn -0.6136 0.7384 0.2799
vn -0.8737 0.4369 -0.2140
vn -0.9013 -0.0683 -0.4277
vn -0.9734 0.2290 0.0000
vn -0.8639 0.1259 -0.4877
vn -0.9251 0.3797 0.0000
vn -0.8064 0.5643 -0.1770
vn -0.4414 0.8246 0.3537
vn -0.4891 0.8152 -0.3101
vn -0.8203 0.5623 0.1043
vn -0.8883 0.4441 0.1169
vn -0.7973 0.5854 -0.1471
vn -0.8733 0.3182 0.3690
vn -0.7650 0.5244 -0.3738
vn -0.8560 0.5021 -0.1229
vn -0.5982 0.7824 -0.1735
vn -0.4643 0.8673 -0.1795
vn -0.7654 0.5294 0.3658
vn -0.6214 0.7478 -0.2337
vn -0.9275 0.3596 0.1021
vn -0.7293 0.6359 -0.2525
vn -0.7529 0.6564 0.0474
vn -0.9606 0.1788 0.2126
vn -0.4880 0.8133 0.3169
vn -0.6774 0.7282 -0.1047
vn 0.0000 0.0000 1.0000
vn 0.0000 -1.0000 0.0000
vn -0.0000 0.0000 -1.0000
vn 0.9255 0.0674 -0.3727
vn 0.9689 0.1471 0.1989
vn 0.8177 0.3699 0.4410
vn 0.6742 0.6299 0.3855
vn 0.9223 0.3270 0.2062
vn 0.4529 0.8323 0.3197
vn 0.8695 0.3964 0.2946
vn 0.9322 0.1388 0.3341
vn 0.9404 0.3388 0.0295
vn 0.9692 0.1869 0.1605
vn 0.6739 0.7388 0.0000
vn 0.6358 0.7718 -0.0000
vn 0.8840 0.3246 -0.3365
vn 0.4992 0.7147 0.4899
vn 0.9756 0.1881 -0.1133
vn 0.8430 0.5282 -0.1017
vn 0.8420 0.5275 0.1126
vn 0.9143 0.3293 -0.2357
vn 0.6950 0.6457 0.3163
vn 0.8088 0.5078 -0.2967
vn 0.9688 0.1443 -0.2017
vn 0.8968 0.2056 0.3919
vn 0.9470 0.2171 -0.2366
vn 0.6608 0.6175 -0.4267
vn 0.5121 0.7217 -0.4656
vn 0.5412 0.7626 0.3544
vn 0.9056 0.4128 -0.0969
vn 0.8929 0.4373 -0.1073
vn 0.8878 0.4348 -0.1508
vn 0.8893 0.4447 0.1069
vn 0.7923 0.5801 0.1891
vn 0.8965 0.4430 -0.0052
vn 0.9331 0.3308 -0.1409
vn 0.9471 0.2187 0.2350
vn 0.8896 0.2054 -0.4080
vn 0.9203 0.3419 -0.1900
vn 0.7892 0.6141 -0.0000
vn 0.5145 0.8575 -0.0000
vn 0.9363 0.3165 0.1524
vn 0.9074 0.4104 -0.0904
vn 0.8404 0.2096 -0.4998
vn 0.9780 0.1097 0.1772
vn 0.9154 0.1390 -0.3779
vn 0.8461 0.5313 -0.0425
vn 0.4919 0.6840 0.5386
vn 0.9131 0.3881 -0.1252
vn 0.9332 0.3480 0.0897
vn 0.6492 0.6032 -0.4633
vn 0.8517 0.5106 -0.1181
vn -0.8771 0.3081 0.3685
vn -0.8497 0.4984 -0.1720
vn -0.8305 0.4255 0.3595
vn -0.9414 0.0154 0.3370
vn -0.7814 0.5469 0.3005
vn -0.9950 -0.0392 0.0923
vn -0.8636 0.4318 -0.2603
vn -0.8711 0.2514 0.4218
vn -0.8321 0.5472 -0.0899
vn -0.8483 0.4242 0.3169
vn -0.7961 0.4739 -0.3764
vn -0.6811 0.7322 0.0000
vn -0.7248 0.6889 0.0000
vn -0.8988 0.3662 -0.2410
vn -0.9228 0.3760 0.0840
vn -0.5688 0.6997 0.4324
vn -0.8134 0.5601 0.1571
vn -0.8131 0.5599 -0.1595
vn -0.8024 0.5876 -0.1043
vn -0.8985 0.0053 -0.4390
vn -0.8030 0.5554 0.2161
vn -0.8345 0.5488 -0.0502
vn -0.7778 0.5905 0.2151
vn -0.7437 0.6626 0.0887
vn -0.9156 0.0150 -0.4017
vn -0.3501 0.7441 0.5690
vn -0.3483 0.7402 -0.5751
vn -0.9597 0.2770 0.0482
vn -0.7215 0.6756 0.1514
vn -0.6453 0.6043 -0.4673
vn -0.4655 0.6482 0.6026
vn -0.5174 0.7205 -0.4618
vn -0.6998 0.6234 -0.3487
vn -0.9586 0.2255 -0.1742
vn -0.7530 0.6094 -0.2483
vn -0.7420 0.6704 0.0000
vn -0.7483 0.6295 0.2091
vn -0.7571 0.6369 -0.1451
vn -0.8503 0.4252 -0.3101
vn -0.8532 0.4746 0.2166
vn -0.9325 0.3397 -0.1224
vn -0.8750 0.4483 -0.1827
vn -0.6074 0.7944 0.0000
vn -0.7892 0.5118 0.3395
vn -0.8347 0.5413 0.1019
vn -0.9412 -0.0370 -0.3358
vn -0.8942 0.4471 0.0200
vn -0.6392 0.7413 0.2045
vn -0.8981 0.4328 -0.0782
vn -0.7469 0.6649 0.0000
usemtl None
s off
f 27//1 33//1 71//1
f 28//2 39//2 70//2
f 68//3 16//3 30//3
f 67//4 17//4 43//4
f 45//5 29//5 65//5
f 64//6 18//6 47//6
f 38//7 48//7 63//7
f 49//8 23//8 62//8
f 50//9 51//9 61//9
f 60//10 13//10 52//10
f 59//11 12//11 26//11
f 58//12 20//12 55//12
f 57//13 20//13 54//13
f 16//14 57//14 54//14
f 58//15 13//15 37//15
f 30//16 37//16 6//16
f 16//17 58//17 30//17
f 27//18 26//18 5//18
f 55//19 27//19 13//19
f 20//20 59//20 55//20
f 60//21 19//21 50//21
f 15//22 60//22 50//22
f 6//23 60//23 39//23
f 25//24 51//24 11//24
f 29//25 25//25 4//25
f 29//26 50//26 61//26
f 35//27 23//27 2//27
f 51//24 35//24 11//24
f 51//28 49//28 62//28
f 46//29 48//29 18//29
f 31//30 46//30 7//30
f 31//31 38//31 63//31
f 64//32 8//32 22//32
f 21//27 22//27 1//27
f 7//33 64//33 21//33
f 32//25 29//25 4//25
f 47//34 32//34 8//34
f 47//35 45//35 65//35
f 66//36 17//36 42//36
f 10//37 66//37 42//37
f 38//38 43//38 14//38
f 3//39 67//39 38//39
f 10//40 67//40 24//40
f 68//41 6//41 28//41
f 14//42 68//42 28//42
f 17//43 68//43 43//43
f 69//44 16//44 41//44
f 17//45 69//45 41//45
f 70//46 15//46 45//46
f 48//47 45//47 18//47
f 14//48 70//48 48//48
f 49//49 33//49 9//49
f 19//50 71//50 49//50
f 13//51 71//51 52//51
f 72//52 12//52 53//52
f 20//53 72//53 53//53
f 99//54 105//54 135//54
f 100//55 109//55 134//55
f 133//56 88//56 102//56
f 111//57 112//57 132//57
f 113//58 101//58 131//58
f 114//59 115//59 130//59
f 108//60 116//60 129//60
f 117//61 95//61 128//61
f 118//62 119//62 127//62
f 126//63 85//63 120//63
f 121//64 98//64 125//64
f 124//65 92//65 123//65
f 69//66 92//66 122//66
f 88//67 69//67 122//67
f 107//68 123//68 85//68
f 102//69 107//69 78//69
f 102//70 122//70 124//70
f 99//71 98//71 77//71
f 123//72 99//72 85//72
f 92//73 125//73 123//73
f 118//74 120//74 91//74
f 87//75 126//75 118//75
f 78//76 126//76 109//76
f 97//77 119//77 83//77
f 76//78 127//78 97//78
f 101//79 118//79 127//79
f 106//80 95//80 74//80
f 119//77 106//77 83//77
f 119//81 117//81 128//81
f 114//82 116//82 90//82
f 103//83 114//83 79//83
f 103//84 108//84 129//84
f 94//85 115//85 80//85
f 93//80 94//80 73//80
f 93//86 114//86 130//86
f 131//87 76//87 104//87
f 80//87 131//87 104//87
f 90//88 131//88 115//88
f 111//89 56//89 89//89
f 36//90 111//90 82//90
f 108//91 112//91 86//91
f 96//92 108//92 75//92
f 96//93 111//93 132//93
f 133//94 78//94 100//94
f 112//95 100//95 86//95
f 112//96 110//96 133//96
f 57//97 88//97 110//97
f 56//98 110//98 89//98
f 113//99 109//99 87//99
f 116//100 113//100 90//100
f 116//101 100//101 134//101
f 135//102 81//102 117//102
f 91//103 135//103 117//103
f 85//104 135//104 120//104
f 121//105 34//105 84//105
f 44//106 121//106 92//106
f 5//107 75//107 103//107
f 11//108 94//108 80//108
f 24//109 84//109 10//109
f 27//18 5//18 33//18
f 28//110 6//110 39//110
f 68//111 41//111 16//111
f 67//112 42//112 17//112
f 45//113 15//113 29//113
f 64//114 46//114 18//114
f 38//115 14//115 48//115
f 49//49 9//49 23//49
f 50//116 19//116 51//116
f 60//117 37//117 13//117
f 59//118 53//118 12//118
f 58//119 54//119 20//119
f 57//120 56//120 20//120
f 16//121 40//121 57//121
f 58//122 55//122 13//122
f 30//123 58//123 37//123
f 16//124 54//124 58//124
f 27//125 59//125 26//125
f 55//126 59//126 27//126
f 20//127 53//127 59//127
f 60//128 52//128 19//128
f 15//129 39//129 60//129
f 6//130 37//130 60//130
f 25//131 61//131 51//131
f 29//132 61//132 25//132
f 29//133 15//133 50//133
f 35//134 62//134 23//134
f 51//135 62//135 35//135
f 51//136 19//136 49//136
f 46//137 63//137 48//137
f 31//138 63//138 46//138
f 31//139 3//139 38//139
f 64//140 47//140 8//140
f 21//141 64//141 22//141
f 7//142 46//142 64//142
f 32//143 65//143 29//143
f 47//144 65//144 32//144
f 47//145 18//145 45//145
f 66//146 44//146 17//146
f 10//147 34//147 66//147
f 38//148 67//148 43//148
f 3//40 24//40 67//40
f 10//149 42//149 67//149
f 68//150 30//150 6//150
f 14//151 43//151 68//151
f 17//152 41//152 68//152
f 69//121 40//121 16//121
f 17//146 44//146 69//146
f 70//153 39//153 15//153
f 48//154 70//154 45//154
f 14//155 28//155 70//155
f 49//156 71//156 33//156
f 19//157 52//157 71//157
f 13//158 27//158 71//158
f 72//147 36//147 12//147
f 20//120 56//120 72//120
f 99//71 77//71 105//71
f 100//159 78//159 109//159
f 133//160 110//160 88//160
f 111//161 89//161 112//161
f 113//162 87//162 101//162
f 114//163 90//163 115//163
f 108//164 86//164 116//164
f 117//165 81//165 95//165
f 118//166 91//166 119//166
f 126//167 107//167 85//167
f 121//168 84//168 98//168
f 124//169 122//169 92//169
f 69//170 44//170 92//170
f 88//171 40//171 69//171
f 107//172 124//172 123//172
f 102//173 124//173 107//173
f 102//174 88//174 122//174
f 99//175 125//175 98//175
f 123//176 125//176 99//176
f 92//177 121//177 125//177
f 118//178 126//178 120//178
f 87//179 109//179 126//179
f 78//180 107//180 126//180
f 97//181 127//181 119//181
f 76//182 101//182 127//182
f 101//183 87//183 118//183
f 106//184 128//184 95//184
f 119//185 128//185 106//185
f 119//186 91//186 117//186
f 114//187 129//187 116//187
f 103//188 129//188 114//188
f 103//92 75//92 108//92
f 94//189 130//189 115//189
f 93//190 130//190 94//190
f 93//83 79//83 114//83
f 131//191 101//191 76//191
f 80//192 115//192 131//192
f 90//193 113//193 131//193
f 111//194 72//194 56//194
f 36//194 72//194 111//194
f 108//195 132//195 112//195
f 96//196 132//196 108//196
f 96//197 82//197 111//197
f 133//198 102//198 78//198
f 112//199 133//199 100//199
f 112//200 89//200 110//200
f 57//171 40//171 88//171
f 56//201 57//201 110//201
f 113//202 134//202 109//202
f 116//203 134//203 113//203
f 116//204 86//204 100//204
f 135//205 105//205 81//205
f 91//206 120//206 135//206
f 85//207 99//207 135//207
f 121//208 66//208 34//208
f 44//208 66//208 121//208
f 73//107 2//107 23//107
f 23//107 9//107 93//107
f 9//107 33//107 79//107
f 23//107 93//107 73//107
f 5//107 26//107 96//107
f 26//107 12//107 82//107
f 82//107 12//107 36//107
f 93//107 9//107 79//107
f 33//107 5//107 103//107
f 103//107 79//107 33//107
f 26//107 82//107 96//107
f 96//107 75//107 5//107
f 1//108 22//108 74//108
f 22//108 8//108 106//108
f 74//108 22//108 106//108
f 32//108 4//108 97//108
f 4//108 25//108 76//108
f 32//108 83//108 8//108
f 83//108 32//108 97//108
f 25//108 11//108 104//108
f 106//108 8//108 83//108
f 11//108 35//108 94//108
f 35//108 2//108 73//108
f 76//108 97//108 4//108
f 76//108 25//108 104//108
f 35//108 73//108 94//108
f 80//108 104//108 11//108
f 21//109 1//109 74//109
f 95//109 81//109 21//109
f 81//109 105//109 7//109
f 21//109 81//109 7//109
f 21//109 74//109 95//109
f 31//109 7//109 105//109
f 31//109 105//109 77//109
f 77//109 98//109 24//109
f 98//109 84//109 24//109
f 24//109 3//109 77//109
f 3//109 31//109 77//109
f 84//109 34//109 10//109
