# Blender v2.79 (sub 0) OBJ File: 'allinoneblend.blend'
# www.blender.org
mtllib kinked_wall.mtl
o Cube.010_Cube.001
v -0.500000 0.000000 0.000001
v -0.499999 0.000000 0.250001
v -0.350553 0.237777 0.000001
v -0.105411 0.733557 -0.000648
v -0.446946 0.155310 0.446947
v -0.435241 0.123871 0.000001
v -0.278524 0.514261 -0.124999
v -0.159842 0.611333 0.159889
v -0.336426 0.389913 0.237996
v -0.367895 0.246447 -0.124999
v -0.466300 0.139399 -0.249999
v -0.296830 0.374954 0.296831
v -0.384155 0.098329 0.125001
v -0.304414 0.370673 0.124670
v -0.500001 0.000000 -0.499999
v 0.500000 0.500000 -0.250001
v 0.499999 0.250000 -0.375001
v 0.500000 0.750000 -0.125001
v -0.225801 0.487901 -0.250000
v 0.249749 0.732496 -0.104287
v 0.499999 0.125000 -0.437501
v 0.500000 0.625000 -0.187501
v 0.371255 0.482676 -0.217684
v 0.499999 0.375000 -0.312501
v 0.500000 0.825000 -0.000001
v -0.321999 0.223500 -0.374999
v 0.313178 0.359724 -0.313180
v 0.375302 0.744987 -0.119580
v 0.262426 0.606428 -0.160810
v 0.250000 0.825000 -0.000000
v 0.125000 0.825000 -0.000000
v 0.190040 0.608232 -0.190040
v 0.375171 0.631072 -0.198422
v 0.446490 0.119855 -0.446492
v 0.390878 0.375961 -0.314066
v 0.375000 0.825000 -0.000001
v 0.500001 0.000000 0.499999
v 0.500000 0.500000 0.249999
v 0.000001 0.000000 0.500000
v 0.500001 0.250000 0.374999
v 0.250001 0.000000 0.499999
v 0.500000 0.750000 0.124999
v -0.249999 0.000000 0.500000
v 0.001018 0.731258 0.103103
v 0.250000 0.741816 0.113993
v 0.500001 0.125000 0.437499
v 0.500000 0.625000 0.187499
v -0.124999 0.000000 0.500000
v 0.000001 0.113284 0.414068
v 0.500001 0.375000 0.312499
v 0.125001 0.000000 0.500000
v -0.374999 0.000000 0.500001
v -0.123366 0.492517 0.236038
v 0.375001 0.516147 0.282293
v 0.375286 0.732614 0.104143
v 0.250000 0.635209 0.204715
v -0.125000 0.250975 0.376950
v -0.249886 0.123509 0.434714
v -0.226418 0.345987 0.264957
v -0.097134 0.689571 0.097535
v -0.103723 0.602982 0.156505
v -0.124518 0.368641 0.300608
v -0.124999 0.145577 0.478656
v -0.362109 0.142059 0.464131
v 0.375001 0.373056 0.308611
v 0.374555 0.636126 0.207058
v 0.125001 0.379266 0.321033
v 0.000000 0.825000 -0.000000
v 0.000001 0.515695 0.281391
v 0.000001 0.249234 0.373469
v 0.250001 0.267594 0.410188
v -0.247466 0.238409 0.353393
v 0.375001 0.000000 0.499999
v 0.125001 0.494944 0.239887
v -0.000276 0.629406 0.194503
v 0.000001 0.383818 0.330136
v 0.125001 0.259935 0.394870
v 0.375001 0.261316 0.397632
v 0.250001 0.117389 0.422276
v 0.250001 0.352187 0.266872
v 0.375001 0.121177 0.429853
v 0.125001 0.133036 0.453573
v 0.125000 0.625351 0.188092
v -0.499999 0.000000 0.500001
v -0.250001 0.500000 -0.500000
v -0.244234 0.497113 -0.000003
v -0.375001 0.250000 -0.499999
v -0.500000 0.000000 -0.249999
v -0.125001 0.750000 -0.500000
v -0.224164 0.442606 0.224540
v -0.385284 0.255517 0.251207
v -0.317892 0.221447 -0.249999
v -0.118427 0.745958 -0.250000
v -0.499999 0.000000 0.375001
v -0.437501 0.125000 -0.499999
v -0.500000 0.000000 -0.124999
v -0.187501 0.625000 -0.500000
v -0.289964 0.519981 -0.374999
v -0.234392 0.491619 0.123166
v -0.198746 0.632080 0.000462
v -0.500000 0.000000 0.125001
v -0.312501 0.375000 -0.499999
v -0.500001 0.000000 -0.374999
v -0.000001 0.825000 -0.500000
v -0.337227 0.387363 0.000001
v -0.383811 0.254409 0.125003
v -0.377830 0.222839 0.377831
v -0.436829 0.124641 0.249974
v -0.282489 0.359995 -0.249999
v -0.114127 0.741938 -0.374741
v -0.119966 0.747396 -0.125000
v -0.181356 0.621356 -0.250000
v -0.000000 0.825000 -0.250000
v -0.000000 0.825000 -0.125000
v -0.195575 0.629789 -0.125000
v -0.196745 0.630258 -0.374789
v -0.330835 0.384167 -0.124999
v -0.389372 0.100936 -0.124999
v -0.446370 0.129435 -0.374999
v -0.477341 0.150424 0.363605
v -0.198151 0.633023 0.111210
v -0.323491 0.380495 -0.374999
v -0.000001 0.825000 -0.375000
v 0.499999 0.000000 -0.500001
v 0.249999 0.500000 -0.500001
v 0.374999 0.250000 -0.500001
v 0.124999 0.750000 -0.500000
v 0.250001 0.519570 0.289141
v 0.248917 0.529453 -0.248917
v 0.103403 0.731627 -0.249706
v 0.437499 0.125000 -0.500001
v 0.187499 0.625000 -0.500000
v 0.312499 0.375000 -0.500001
v 0.195138 0.470590 -0.368643
v 0.126284 0.793044 -0.126285
v 0.116796 0.742414 -0.375458
v 0.184610 0.622989 -0.265279
v 0.382616 0.288723 -0.382618
v 0.125000 0.728199 0.099421
v 0.312315 0.374887 -0.390596
v 0.155579 0.607252 -0.374501
vn -0.7333 0.6213 0.2762
vn -0.4890 0.8723 -0.0048
vn -0.9255 0.0020 0.3787
vn -0.4209 0.7613 0.4933
vn -0.8393 0.3720 -0.3965
vn -0.7774 0.5582 0.2899
vn -0.7358 0.6765 -0.0310
vn -0.8878 0.2269 -0.4005
vn -0.9858 0.0878 0.1429
vn -0.9263 0.3725 -0.0569
vn -0.9720 0.2350 0.0000
vn -0.8862 0.4633 0.0000
vn -0.9217 0.1360 -0.3632
vn -0.9238 0.3828 0.0000
vn -0.4787 0.8659 -0.1453
vn -0.8223 0.5375 0.1871
vn -0.8920 0.4521 0.0000
vn -0.9463 0.3233 0.0000
vn -0.9213 0.0020 -0.3888
vn -0.8488 0.4374 0.2971
vn -0.7925 0.5404 -0.2828
vn -0.9402 0.3404 -0.0140
vn -0.4355 0.8591 -0.2689
vn 0.0168 0.4472 -0.8943
vn 0.1067 0.4447 -0.8893
vn 0.0991 0.5662 -0.8183
vn 0.3499 0.4123 -0.8411
vn 0.4363 0.6726 -0.5977
vn -0.2579 0.1311 -0.9572
vn 0.2871 0.1158 -0.9509
vn -0.3704 0.5289 -0.7636
vn 0.2014 0.4381 -0.8761
vn -0.1441 0.6486 -0.7474
vn -0.0567 0.8561 -0.5137
vn -0.1488 0.8217 -0.5502
vn 0.0807 0.3456 0.9349
vn 0.0596 0.6663 0.7433
vn -0.0182 0.7295 0.6838
vn -0.3287 0.2702 0.9049
vn -0.2952 -0.1260 0.9471
vn -0.3519 0.6500 0.6736
vn -0.3787 0.3647 0.8507
vn -0.3146 0.4418 0.8401
vn -0.3744 0.5847 0.7197
vn -0.4083 0.5349 0.7397
vn -0.2076 0.6451 0.7353
vn 0.0309 0.5439 0.8386
vn -0.2576 0.4485 0.8558
vn 0.0000 0.4673 0.8841
vn 0.0000 0.6044 0.7967
vn 0.4827 0.6081 0.6302
vn 0.0000 0.3233 0.9463
vn 0.0000 0.2448 0.9696
vn 0.2843 0.7252 0.6271
vn 0.1092 0.6194 0.7775
vn 0.1943 0.6112 0.7672
vn -0.0348 0.4469 0.8939
vn 0.0000 0.5010 0.8655
vn 0.0000 0.4472 0.8944
vn -0.0682 0.4462 0.8923
vn 0.0000 0.3295 0.9442
vn 0.0000 0.5521 0.8338
vn 0.1051 0.8033 0.5862
vn -0.2014 0.8399 0.5040
vn 0.0603 0.5886 0.8062
vn 0.2763 0.5113 0.8138
vn 0.1689 0.7184 0.6748
vn -0.3984 0.5408 0.7408
vn -0.1507 0.6407 0.7529
vn 0.0384 0.7160 0.6971
vn -0.1548 0.7981 0.5824
vn -0.1859 0.3011 0.9353
vn -0.1352 0.5213 0.8426
vn 0.3721 -0.1224 0.9201
vn 0.1192 0.4165 0.9013
vn -0.6111 0.7019 0.3660
vn -0.3318 0.6963 0.6364
vn 0.1317 0.5511 0.8240
vn -0.3323 0.7362 0.5895
vn -0.3381 0.8324 0.4391
vn 0.4977 0.3248 0.8042
vn -0.0252 0.7275 0.6856
vn -0.5956 0.7848 0.1712
vn -0.0657 0.2236 0.9725
vn 0.2513 0.0776 0.9648
vn 0.3425 0.5710 0.7461
vn -0.8901 0.4451 -0.0978
vn -0.5147 0.7781 -0.3601
vn -0.8916 0.4458 -0.0791
vn -0.8011 0.5926 -0.0840
vn -0.8850 0.4469 -0.1308
vn -0.5431 0.8395 -0.0163
vn -0.5366 0.8295 0.1551
vn -0.8597 0.2863 -0.4230
vn -0.7211 0.6102 -0.3281
vn -0.6674 0.5633 0.4871
vn -0.7960 0.5888 0.1402
vn -0.8944 0.4472 0.0000
vn -0.9631 0.2543 0.0883
vn -0.9213 -0.0088 0.3888
vn -0.9682 0.2474 0.0359
vn -0.8584 0.3805 0.3440
vn -0.5119 0.8532 0.0994
vn -0.5546 0.8309 -0.0459
vn 0.9224 0.2627 -0.2830
vn 0.6420 0.7538 0.1405
vn 0.8761 0.4381 -0.2014
vn 0.8944 0.4472 0.0020
vn 0.8893 0.4447 -0.1067
vn 0.5727 0.8093 0.1304
vn 0.5126 0.8543 0.0858
vn 0.8435 0.2232 -0.4886
vn 0.8659 0.2687 0.4218
vn 0.9242 0.2671 0.2728
vn 0.8036 0.5923 0.0582
vn 0.6017 0.6650 -0.4425
vn 0.2821 0.7006 -0.6554
vn 0.8185 0.5720 0.0531
vn -0.0000 0.9694 -0.2453
vn 0.2453 0.9694 0.0000
vn 0.7643 0.6343 0.1157
vn -0.1384 0.6200 -0.7723
vn -0.0000 0.0000 -1.0000
vn 1.0000 -0.0000 -0.0000
vn 0.0000 1.0000 0.0000
vn 0.0000 -1.0000 0.0000
vn -0.8613 0.4998 0.0911
vn -0.6893 0.6377 0.3438
vn -0.7701 0.5726 -0.2811
vn -0.9105 0.1344 -0.3911
vn -0.8397 0.3376 -0.4254
vn -0.9472 0.3193 -0.0298
vn -0.8308 0.5341 0.1567
vn -0.8891 0.2393 -0.3901
vn -0.9641 0.2594 -0.0559
vn -0.7312 0.6195 0.2856
vn -0.5672 0.6216 0.5403
vn -0.6294 0.6899 -0.3576
vn -0.7933 0.5898 0.1510
vn -0.9577 0.2315 -0.1711
vn -0.6029 0.7971 0.0329
vn -0.7432 0.3275 0.5834
vn -0.9276 0.1127 -0.3563
vn -0.9297 0.1650 0.3294
vn -0.5966 0.7028 0.3874
vn -0.5938 0.6996 -0.3976
vn -0.9303 0.3665 -0.0141
vn -0.7090 0.2378 0.6639
vn -0.9606 0.0856 0.2643
vn -0.7849 0.5351 -0.3125
vn -0.8199 0.4786 0.3141
vn -0.2686 0.6180 -0.7389
vn 0.1932 0.4102 -0.8913
vn -0.0568 0.4465 -0.8930
vn 0.3516 0.4114 -0.8409
vn 0.0995 0.4450 -0.8900
vn -0.3544 0.7304 -0.5838
vn -0.1496 0.3920 -0.9077
vn 0.0167 0.6168 -0.7869
vn 0.3785 0.4496 -0.8091
vn -0.0000 0.8311 -0.5561
vn -0.0000 0.7481 -0.6636
vn 0.3447 0.5391 0.7685
vn 0.0386 0.6525 0.7568
vn 0.1069 0.6444 0.7572
vn -0.1879 0.4124 0.8914
vn 0.0587 0.1806 0.9818
vn -0.2113 0.5676 0.7957
vn -0.3143 0.4411 0.8406
vn 0.1330 0.5634 0.8154
vn -0.4081 0.5537 0.7259
vn -0.3106 0.6370 0.7055
vn -0.3829 0.5039 0.7743
vn -0.2544 0.2964 0.9206
vn -0.3793 0.3208 0.8679
vn -0.3501 0.1359 0.9268
vn 0.4811 0.1272 0.8674
vn 0.0307 0.2860 0.9577
vn -0.1535 0.2550 0.9547
vn 0.2952 0.4463 0.8448
vn 0.0840 0.5745 0.8142
vn -0.2991 0.8217 0.4850
vn 0.2674 0.1743 0.9477
vn -0.0671 0.5508 0.8319
vn -0.0681 0.4998 0.8634
vn 0.1930 0.2199 0.9562
vn -0.3281 0.5709 0.7526
vn 0.2675 0.3175 0.9097
vn 0.0000 0.7481 0.6636
vn -0.0198 0.5311 0.8471
vn 0.1763 0.4402 0.8804
vn -0.2073 0.4375 0.8750
vn -0.1510 0.3649 0.9187
vn -0.1574 0.6448 0.7479
vn 0.0000 0.7399 0.6727
vn 0.0000 0.7165 0.6976
vn 0.0808 0.5245 0.8476
vn 0.3768 0.7977 0.4708
vn -0.3994 0.5265 0.7505
vn 0.5180 0.4804 0.7077
vn 0.1036 0.0798 0.9914
vn -0.1357 0.4160 0.8992
vn 0.0594 0.3685 0.9277
vn -0.9182 0.2207 -0.3288
vn -0.9207 0.3612 0.1474
vn -0.5552 0.7341 0.3910
vn -0.8894 0.4447 0.1058
vn -0.8411 0.5407 -0.0166
vn -0.5551 0.8318 0.0000
vn -0.6553 0.7554 0.0000
vn -0.8053 0.5782 -0.1306
vn -0.8912 0.4456 -0.0845
vn -0.9397 0.3129 0.1382
vn -0.8917 0.4503 -0.0453
vn -0.9210 0.3816 -0.0789
vn -0.9476 0.3194 0.0024
vn -0.9506 -0.0090 0.3103
vn -0.8487 0.2040 0.4880
vn -0.5885 0.8085 0.0000
vn 0.8028 0.5807 0.1353
vn 0.6961 0.4693 -0.5434
vn 0.7747 0.6323 0.0020
vn 0.6219 0.6676 0.4092
vn 0.8913 0.4102 -0.1932
vn 0.6702 0.7422 -0.0000
vn 0.5773 0.8165 -0.0000
vn 0.8117 0.5075 -0.2889
vn 0.8589 0.4294 0.2792
vn 0.8911 0.4456 0.0858
vn 0.8364 0.4129 -0.3605
usemtl None
s off
f 14//1 86//1 105//1
f 60//2 100//2 121//2
f 106//3 6//3 13//3
f 118//4 92//4 11//4
f 117//5 19//5 109//5
f 86//6 115//6 7//6
f 4//7 115//7 100//7
f 10//8 109//8 92//8
f 105//9 10//9 3//9
f 105//10 7//10 117//10
f 96//11 11//11 88//11
f 6//12 96//12 1//12
f 6//13 10//13 118//13
f 88//14 119//14 103//14
f 92//15 119//15 11//15
f 12//16 91//16 107//16
f 94//17 108//17 2//17
f 5//18 94//18 84//18
f 101//12 6//12 1//12
f 108//17 101//17 2//17
f 108//19 106//19 13//19
f 8//20 99//20 90//20
f 14//21 3//21 106//21
f 9//22 106//22 91//22
f 90//23 14//23 9//23
f 35//24 16//24 24//24
f 34//25 17//25 21//25
f 28//26 22//26 33//26
f 32//27 20//27 29//27
f 135//28 30//28 20//28
f 33//29 16//29 23//29
f 129//30 33//30 23//30
f 29//31 28//31 33//31
f 138//32 24//32 17//32
f 27//33 23//33 35//33
f 28//34 25//34 18//34
f 20//35 36//35 28//35
f 67//36 69//36 76//36
f 83//37 44//37 75//37
f 55//38 56//38 66//38
f 82//39 70//39 49//39
f 65//40 128//40 80//40
f 57//41 58//41 63//41
f 62//42 90//42 59//42
f 53//43 8//43 90//43
f 69//44 61//44 53//44
f 75//45 60//45 61//45
f 57//46 59//46 72//46
f 70//47 62//47 57//47
f 76//48 53//48 62//48
f 48//49 58//49 43//49
f 49//50 48//50 39//50
f 49//51 57//51 63//51
f 52//52 5//52 84//52
f 43//53 64//53 52//53
f 58//54 107//54 64//54
f 65//55 71//55 78//55
f 40//56 65//56 78//56
f 38//57 65//57 50//57
f 81//58 41//58 73//58
f 46//59 73//59 37//59
f 40//60 81//60 46//60
f 82//61 39//61 51//61
f 79//62 51//62 41//62
f 55//63 30//63 45//63
f 25//64 55//64 42//64
f 54//65 56//65 128//65
f 38//66 66//66 54//66
f 47//67 55//67 66//67
f 56//68 74//68 128//68
f 45//69 83//69 56//69
f 31//70 44//70 139//70
f 30//71 139//71 45//71
f 77//72 76//72 70//72
f 71//73 67//73 77//73
f 128//74 67//74 80//74
f 72//75 12//75 107//75
f 4//76 60//76 68//76
f 44//77 68//77 60//77
f 61//78 60//78 8//78
f 8//79 60//79 121//79
f 9//80 12//80 90//80
f 90//81 12//81 59//81
f 64//82 107//82 5//82
f 120//83 5//83 107//83
f 78//84 79//84 81//84
f 71//85 82//85 79//85
f 74//86 75//86 69//86
f 122//87 85//87 102//87
f 107//88 108//88 120//88
f 119//89 87//89 95//89
f 110//90 97//90 116//90
f 115//91 93//91 112//91
f 114//92 93//92 111//92
f 4//93 114//93 111//93
f 7//94 112//94 19//94
f 116//95 85//95 98//95
f 19//96 116//96 98//96
f 112//97 110//97 116//97
f 103//98 95//98 15//98
f 121//99 86//99 99//99
f 122//100 87//100 26//100
f 109//101 26//101 92//101
f 19//102 122//102 109//102
f 110//103 104//103 89//103
f 113//104 110//104 93//104
f 136//105 137//105 141//105
f 134//106 27//106 140//106
f 133//107 138//107 126//107
f 125//108 140//108 133//108
f 126//109 34//109 131//109
f 123//110 130//110 136//110
f 104//111 136//111 127//111
f 141//112 129//112 134//112
f 125//113 141//113 134//113
f 132//114 136//114 141//114
f 130//115 32//115 137//115
f 113//116 135//116 130//116
f 29//117 129//117 32//117
f 129//118 137//118 32//118
f 135//119 68//119 31//119
f 135//120 114//120 68//120
f 27//121 138//121 140//121
f 35//122 138//122 27//122
f 124//109 131//109 34//109
f 21//25 124//25 34//25
f 87//123 102//123 133//123
f 37//124 124//124 21//124
f 2//125 96//125 15//125
f 39//126 48//126 15//126
f 14//127 99//127 86//127
f 60//128 4//128 100//128
f 106//129 3//129 6//129
f 118//130 10//130 92//130
f 117//131 7//131 19//131
f 86//132 100//132 115//132
f 4//133 111//133 115//133
f 10//134 117//134 109//134
f 105//135 117//135 10//135
f 105//136 86//136 7//136
f 96//137 118//137 11//137
f 6//138 118//138 96//138
f 6//139 3//139 10//139
f 88//140 11//140 119//140
f 92//141 26//141 119//141
f 12//142 9//142 91//142
f 94//143 120//143 108//143
f 5//144 120//144 94//144
f 101//145 13//145 6//145
f 108//146 13//146 101//146
f 108//147 91//147 106//147
f 8//148 121//148 99//148
f 14//149 105//149 3//149
f 9//150 14//150 106//150
f 90//151 99//151 14//151
f 35//152 23//152 16//152
f 34//153 138//153 17//153
f 28//154 18//154 22//154
f 32//155 135//155 20//155
f 135//119 31//119 30//119
f 33//156 22//156 16//156
f 129//157 29//157 33//157
f 29//158 20//158 28//158
f 138//159 35//159 24//159
f 27//160 129//160 23//160
f 28//161 36//161 25//161
f 20//162 30//162 36//162
f 67//163 74//163 69//163
f 83//164 139//164 44//164
f 55//165 45//165 56//165
f 82//166 77//166 70//166
f 65//167 54//167 128//167
f 57//168 72//168 58//168
f 62//169 53//169 90//169
f 53//170 61//170 8//170
f 69//171 75//171 61//171
f 75//172 44//172 60//172
f 57//173 62//173 59//173
f 70//174 76//174 62//174
f 76//175 69//175 53//175
f 48//176 63//176 58//176
f 49//177 63//177 48//177
f 49//178 70//178 57//178
f 52//179 64//179 5//179
f 43//180 58//180 64//180
f 58//181 72//181 107//181
f 65//182 80//182 71//182
f 40//57 50//57 65//57
f 38//183 54//183 65//183
f 81//184 79//184 41//184
f 46//185 81//185 73//185
f 40//186 78//186 81//186
f 82//187 49//187 39//187
f 79//188 82//188 51//188
f 55//189 36//189 30//189
f 25//189 36//189 55//189
f 54//190 66//190 56//190
f 38//191 47//191 66//191
f 47//192 42//192 55//192
f 56//193 83//193 74//193
f 45//194 139//194 83//194
f 31//195 68//195 44//195
f 30//196 31//196 139//196
f 77//197 67//197 76//197
f 71//198 80//198 67//198
f 128//199 74//199 67//199
f 72//200 59//200 12//200
f 78//201 71//201 79//201
f 71//202 77//202 82//202
f 74//203 83//203 75//203
f 122//204 98//204 85//204
f 107//205 91//205 108//205
f 119//206 26//206 87//206
f 110//207 89//207 97//207
f 115//208 111//208 93//208
f 114//209 113//209 93//209
f 4//210 68//210 114//210
f 7//211 115//211 112//211
f 116//212 97//212 85//212
f 19//213 112//213 116//213
f 112//214 93//214 110//214
f 103//215 119//215 95//215
f 121//216 100//216 86//216
f 122//87 102//87 87//87
f 109//217 122//217 26//217
f 19//218 98//218 122//218
f 110//219 123//219 104//219
f 113//219 123//219 110//219
f 136//220 130//220 137//220
f 134//221 129//221 27//221
f 133//222 140//222 138//222
f 125//223 134//223 140//223
f 126//224 138//224 34//224
f 123//225 113//225 130//225
f 104//226 123//226 136//226
f 141//227 137//227 129//227
f 125//228 132//228 141//228
f 132//229 127//229 136//229
f 130//230 135//230 32//230
f 113//120 114//120 135//120
f 102//123 85//123 133//123
f 85//123 97//123 125//123
f 133//123 85//123 125//123
f 97//123 89//123 127//123
f 89//123 104//123 127//123
f 127//123 132//123 97//123
f 132//123 125//123 97//123
f 126//123 131//123 95//123
f 131//123 124//123 15//123
f 131//123 15//123 95//123
f 133//123 126//123 87//123
f 95//123 87//123 126//123
f 24//124 16//124 38//124
f 16//124 22//124 47//124
f 22//124 18//124 42//124
f 18//124 25//124 42//124
f 42//124 47//124 22//124
f 47//124 38//124 16//124
f 38//124 50//124 24//124
f 17//124 50//124 40//124
f 21//124 17//124 40//124
f 17//124 24//124 50//124
f 40//124 46//124 21//124
f 46//124 37//124 21//124
f 84//126 94//126 2//126
f 2//126 101//126 96//126
f 101//126 1//126 96//126
f 96//126 88//126 103//126
f 15//126 84//126 2//126
f 96//126 103//126 15//126
f 84//126 15//126 52//126
f 15//126 124//126 39//126
f 52//126 15//126 43//126
f 124//126 37//126 73//126
f 41//126 51//126 124//126
f 51//126 39//126 124//126
f 124//126 73//126 41//126
f 43//126 15//126 48//126
