# Blender v2.79 (sub 0) OBJ File: 'allinoneblend.blend'
# www.blender.org
mtllib kinked_wall.mtl
o Cube.010_Cube.009
v -0.500000 0.500000 -0.250000
v -0.500000 0.250000 -0.375000
v -0.250000 0.000000 -0.500000
v -0.500000 0.750000 -0.125000
v -0.250000 0.731522 -0.105046
v -0.500000 0.125000 -0.437500
v -0.500000 0.625000 -0.187500
v -0.500000 0.375000 -0.312500
v -0.500000 0.825000 0.000000
v -0.375000 0.499571 -0.249141
v -0.375000 0.760855 -0.136722
v -0.250000 0.624540 -0.186581
v -0.250000 0.825000 0.000000
v -0.375000 0.258921 -0.392844
v -0.250000 0.388286 -0.339073
v -0.375000 0.384263 -0.331026
v -0.375000 0.825000 0.000000
v -0.375000 0.630342 -0.198185
v -0.125000 0.825000 0.000000
v -0.125000 0.361374 -0.285247
v -0.500000 0.000000 0.500000
v -0.500000 0.500000 0.250000
v -0.500000 0.250000 0.375000
v -0.500000 0.750000 0.125000
v -0.270491 0.545931 0.270395
v -0.259719 0.735085 0.108440
v -0.500000 0.125000 0.437500
v -0.500000 0.625000 0.187500
v -0.376689 0.504056 0.256312
v -0.500000 0.375000 0.312500
v -0.413303 0.313526 0.413304
v -0.346931 0.404840 0.346925
v -0.377215 0.723606 0.094536
v -0.280405 0.639567 0.199703
v -0.374617 0.622102 0.182980
v -0.422192 0.112641 0.422193
v -0.401475 0.390281 0.322114
v -0.500000 0.000000 -0.500000
v -0.000000 0.000000 -0.500000
v -0.000000 0.242023 -0.359045
v -0.005866 0.727812 -0.107018
v -0.250000 0.251008 -0.377016
v -0.375000 0.000000 -0.500000
v -0.125000 0.488951 -0.227901
v -0.125000 0.000000 -0.500000
v -0.125000 0.258262 -0.391524
v -0.250000 0.121494 -0.430488
v -0.375000 0.128772 -0.445045
v -0.125000 0.138627 -0.464755
v -0.125603 0.616920 -0.172547
v 0.000000 0.825000 0.500000
v 0.000000 0.825000 0.125000
v -0.249999 0.500000 0.500000
v -0.374999 0.250000 0.500000
v -0.125000 0.750000 0.500000
v -0.250000 0.484240 -0.218479
v -0.107478 0.732486 0.258745
v -0.437499 0.125000 0.500000
v -0.187499 0.625000 0.500000
v -0.312499 0.375000 0.500000
v -0.274702 0.515836 0.381641
v -0.147151 0.762995 0.146173
v -0.104652 0.730700 0.375453
v -0.208924 0.646174 0.282310
v -0.123996 0.759449 -0.135167
v -0.347131 0.407527 0.410811
v -0.191096 0.627045 0.375319
v -0.232623 0.657856 0.231767
v -0.000000 0.825000 0.000000
v 0.000785 0.505415 -0.260113
v 0.250000 0.000000 -0.500000
v 0.235554 0.226932 -0.355150
v 0.394827 0.087396 -0.394633
v 0.125000 0.000000 -0.500000
v -0.000000 0.129357 -0.446215
v 0.005606 0.642642 -0.213918
v 0.375000 0.000000 -0.500000
v 0.116747 0.492423 -0.255074
v -0.000433 0.362623 -0.288613
v 0.126358 0.260808 -0.395439
v 0.249376 0.121957 -0.432486
v 0.208949 0.333260 -0.268257
v 0.100986 0.698928 -0.100819
v 0.166203 0.608232 -0.165926
v 0.087554 0.592840 -0.160169
v 0.124875 0.374547 -0.311744
v 0.125451 0.139056 -0.464708
v 0.341896 0.086413 -0.394697
v 0.283624 0.349604 -0.283291
v 0.500000 0.000000 -0.500000
v 0.500000 0.000000 0.500000
v 0.500000 0.000000 -0.000000
v 0.250000 0.500000 0.500000
v 0.272096 0.511827 -0.001706
v 0.500000 0.000000 -0.250000
v 0.375000 0.250000 0.500000
v 0.500000 0.000000 0.250000
v 0.125000 0.750000 0.500000
v 0.273817 0.511908 0.250000
v 0.230920 0.451563 -0.230622
v 0.362789 0.243895 -0.000000
v 0.107771 0.728470 0.005676
v 0.362710 0.231608 -0.237298
v 0.378615 0.251807 0.250000
v 0.135844 0.760042 0.250000
v 0.500000 0.000000 -0.375000
v 0.437500 0.125000 0.500000
v 0.500000 0.000000 0.125000
v 0.187500 0.625000 0.500000
v 0.244764 0.497382 0.375000
v 0.218631 0.468619 -0.106112
v 0.431300 0.121900 -0.000000
v 0.179047 0.619355 0.001789
v 0.500000 0.000000 -0.125000
v 0.312500 0.375000 0.500000
v 0.500000 0.000000 0.375000
v 0.248184 0.499092 0.125000
v 0.329520 0.383816 -0.000306
v 0.401531 0.264022 -0.126748
v 0.353035 0.200167 -0.352767
v 0.416022 0.111977 -0.247340
v 0.312817 0.364080 -0.224984
v 0.365827 0.245413 0.375000
v 0.372057 0.248529 0.125000
v 0.432228 0.122364 0.250000
v 0.270163 0.353832 0.250000
v 0.136822 0.760948 0.375000
v 0.122767 0.747925 0.125220
v 0.208586 0.635543 0.250000
v 0.000000 0.825000 0.250000
v 0.171087 0.616132 0.125661
v 0.186081 0.624291 0.375000
v 0.341844 0.389671 0.125000
v 0.424531 0.118516 0.125000
v 0.400281 0.106391 0.375000
v 0.443682 0.123130 -0.351585
v 0.408606 0.110078 -0.124526
v 0.169174 0.599786 -0.091072
v 0.306873 0.371631 -0.124077
v 0.278444 0.357973 0.375000
v 0.000000 0.825000 0.375000
vn -0.0287 0.4098 -0.9117
vn 0.1014 0.6030 -0.7912
vn 0.1630 0.5151 -0.8415
vn 0.1288 0.3784 -0.9166
vn -0.0709 0.5775 -0.8133
vn 0.1376 0.2639 -0.9547
vn -0.0000 0.4966 -0.8680
vn -0.0000 0.3839 -0.9234
vn 0.3048 0.8622 -0.4045
vn 0.2574 0.2142 -0.9423
vn -0.0838 0.3953 -0.9147
vn 0.1258 0.6013 -0.7890
vn 0.3259 0.8516 -0.4106
vn -0.2908 0.8600 -0.4192
vn 0.2644 0.6922 -0.6716
vn -0.1263 0.2643 -0.9561
vn 0.4001 0.7171 -0.5706
vn -0.3729 0.7304 0.5722
vn -0.3065 0.5062 0.8061
vn -0.2475 0.6329 0.7336
vn -0.4649 0.5170 0.7187
vn -0.1514 0.6758 0.7213
vn -0.3332 0.7197 -0.6091
vn -0.2921 0.4993 -0.8157
vn -0.2758 0.3805 -0.8827
vn -0.7759 0.5835 0.2400
vn -0.5028 0.8380 -0.2120
vn -0.7676 0.6401 0.0326
vn -0.7249 0.3624 0.5858
vn -0.8683 0.4342 -0.2398
vn -0.7980 0.6018 0.0329
vn -0.8964 0.0591 0.4393
vn -0.7399 0.6167 0.2687
vn -0.8342 0.5509 -0.0258
vn -0.6691 0.7427 0.0276
vn -0.7886 0.6004 0.1326
vn -0.5300 0.7373 0.4189
vn -0.5799 0.7113 0.3972
vn -0.5862 0.6224 0.5186
vn -0.6106 0.4350 0.6618
vn -0.7788 0.4233 0.4630
vn -0.4386 0.7148 0.5447
vn -0.8178 0.5750 -0.0267
vn 0.0000 1.0000 0.0000
vn -0.3267 0.8869 0.3267
vn 0.0000 0.6819 0.7314
vn 0.3031 0.4262 0.8524
vn -0.0604 0.4464 0.8928
vn -0.0607 0.5096 0.8583
vn -0.5858 0.3624 0.7249
vn -0.4393 0.0591 0.8964
vn 0.2398 0.4342 0.8683
vn -0.1176 0.8990 -0.4218
vn 0.0077 0.4472 -0.8944
vn -1.0000 -0.0000 0.0000
vn 0.2783 0.5932 -0.7554
vn 0.5175 0.1706 -0.8385
vn 0.3438 0.4762 -0.8093
vn 0.1091 0.6993 -0.7064
vn 0.6457 0.3089 -0.6983
vn 0.4331 0.6329 -0.6418
vn -0.3050 0.5619 -0.7690
vn -0.2032 0.4128 -0.8879
vn 0.0000 0.4843 -0.8749
vn -0.1641 0.4887 -0.8569
vn 0.0000 0.7697 -0.6384
vn -0.0000 0.7730 -0.6344
vn 0.4510 0.2695 -0.8509
vn 0.1237 0.4650 -0.8766
vn 0.9319 0.2251 -0.2845
vn 0.7069 0.6795 -0.1962
vn 0.8162 0.5416 -0.2009
vn 0.8541 0.4796 -0.2012
vn 0.6259 0.7403 0.2453
vn 0.9232 0.2288 -0.3089
vn 0.9251 0.3734 -0.0685
vn 0.8698 -0.0201 0.4930
vn 0.8944 0.4472 -0.0127
vn 0.8901 0.3253 -0.3192
vn 0.4276 0.8943 -0.1317
vn 0.5212 0.8296 -0.2004
vn 0.8621 0.4548 -0.2234
vn 0.7435 0.6368 0.2043
vn 0.8364 0.5439 0.0679
vn 0.9067 0.4192 -0.0468
vn 0.8785 0.4062 0.2514
vn 0.9225 0.3325 0.1960
vn 0.9763 0.2090 -0.0567
vn 0.9698 0.2304 -0.0804
vn 0.7555 0.6467 -0.1045
vn 0.8748 0.4845 0.0000
vn 0.8712 0.4910 -0.0000
vn 0.8703 0.4888 0.0604
vn 0.8944 0.4472 0.0000
vn 0.9350 0.2317 0.2686
vn 0.8481 0.4889 -0.2042
vn 0.9094 0.4159 -0.0000
vn 0.6391 0.7691 -0.0000
vn 0.8000 0.6000 -0.0000
vn 0.9136 0.4020 0.0614
vn 0.7667 0.3507 -0.5378
vn 0.7159 0.6218 0.3176
vn 0.8445 0.3553 -0.4007
vn 0.7303 0.6831 -0.0081
vn 0.8914 0.4457 -0.0818
vn 0.6813 0.7242 0.1067
vn 0.9695 0.2342 -0.0720
vn 0.4210 0.8993 0.1186
vn 0.4240 0.9056 -0.0099
vn 0.9358 0.3525 0.0026
vn 0.6577 0.5851 -0.4745
vn -0.2560 0.3359 -0.9064
vn -0.1597 0.4973 -0.8528
vn 0.8221 0.5685 0.0315
vn 0.6546 0.7167 -0.2405
vn 0.2313 0.7139 -0.6610
vn 0.3876 0.4436 -0.8081
vn -0.0053 0.3463 -0.9381
vn 0.0000 0.0000 1.0000
vn 0.0000 -1.0000 0.0000
vn -0.2669 0.1908 -0.9446
vn 0.3127 0.4047 -0.8593
vn 0.2741 0.5885 -0.7606
vn 0.1397 0.3686 -0.9190
vn 0.2413 0.7594 -0.6042
vn -0.0718 0.4412 -0.8945
vn 0.1289 0.3892 -0.9121
vn 0.1599 0.2432 -0.9567
vn -0.2869 0.2360 -0.9284
vn -0.0000 0.7470 -0.6648
vn 0.1028 0.3611 -0.9268
vn 0.1227 0.2200 -0.9678
vn -0.2767 0.2467 -0.9288
vn -0.0000 0.7403 -0.6723
vn -0.0284 0.5040 -0.8632
vn 0.4137 0.6534 -0.6340
vn -0.0839 0.4085 -0.9089
vn 0.0000 0.9206 0.3905
vn -0.2448 0.5676 0.7861
vn -0.1510 0.6998 0.6982
vn -0.3280 0.5815 0.7445
vn 0.0000 0.7698 0.6383
vn 0.2854 0.2401 -0.9278
vn -0.1284 0.3785 -0.9167
vn -0.3407 0.3107 -0.8874
vn -0.7967 0.3983 0.4546
vn -0.6694 0.7429 0.0000
vn -0.8744 0.4372 -0.2106
vn -0.7171 0.5172 0.4671
vn -0.8684 0.4342 0.2393
vn -0.6441 0.7645 0.0273
vn -0.8484 0.5183 0.1081
vn -0.6524 0.7579 0.0000
vn -0.8364 0.4828 0.2596
vn -0.5321 0.7509 0.3911
vn -0.3883 0.9215 0.0000
vn -0.3700 0.7486 0.5501
vn 0.2978 0.8186 0.4911
vn 0.0423 0.6570 0.7527
vn 0.0428 0.5267 0.8490
vn -0.1548 0.4418 0.8837
vn -0.1790 0.7640 0.6199
vn -0.0000 0.8575 -0.5145
vn -0.1209 0.4229 -0.8981
vn -0.1616 0.5714 -0.8046
vn -0.1635 0.4364 -0.8848
vn -0.0951 0.4452 -0.8904
vn -0.0947 0.3614 -0.9276
vn -0.1571 0.3676 -0.9166
vn -0.1576 0.4416 -0.8832
vn -0.0672 0.3916 -0.9177
vn -0.0000 0.4472 -0.8944
vn -0.0673 0.4462 -0.8924
vn 0.4282 0.4445 -0.7868
vn 0.3329 0.4271 -0.8407
vn -0.1809 0.6473 -0.7405
vn 0.6272 0.2286 -0.7445
vn 0.2426 0.7713 -0.5885
vn 0.5780 0.4885 -0.6537
vn -0.2031 0.4933 -0.8458
vn 0.0644 0.1948 -0.9787
vn 0.2749 0.2357 -0.9321
vn -0.1598 0.2433 -0.9567
vn -0.3037 0.5830 -0.7536
vn -0.0135 0.7709 -0.6368
vn 0.4777 0.4274 -0.7676
vn 0.1524 0.5991 -0.7860
vn -0.2799 0.5645 -0.7765
vn 0.8934 0.4467 -0.0468
vn 0.7722 0.3405 -0.5364
vn 0.8166 0.5406 -0.2020
vn 0.9531 0.0481 0.2990
vn 0.8913 0.4129 -0.1871
vn 0.9223 0.3820 -0.0584
vn 0.7416 0.6348 -0.2171
vn 0.9342 0.3367 0.1178
vn 0.8551 0.4996 -0.1381
vn 0.5317 0.8469 0.0000
vn 0.6672 0.7449 -0.0000
vn 0.7904 0.5225 -0.3199
vn 0.8333 0.5486 0.0678
vn 0.9252 0.3386 -0.1712
vn 0.8671 0.4575 0.1973
vn 0.8634 0.5045 -0.0104
vn 0.5871 0.6241 0.5156
vn 0.9724 0.2082 -0.1054
vn 0.8915 0.4022 0.2087
vn 0.8415 0.5359 -0.0683
vn 0.8420 0.5362 0.0601
vn 0.9242 0.3730 -0.0824
vn 0.6951 0.6515 -0.3040
vn 0.7037 0.6596 0.2641
vn 0.9179 0.3802 0.1134
vn 0.8013 0.3471 -0.4873
vn 0.7740 0.5742 0.2668
vn 0.4530 0.3621 -0.8147
vn 0.7539 0.6268 -0.1969
vn 0.7683 0.6376 0.0563
vn 0.9393 0.0382 -0.3410
vn 0.7353 0.6432 -0.2137
vn 0.9539 0.2264 -0.1968
vn 0.7508 0.6605 -0.0052
vn 0.7377 0.6748 -0.0196
vn 0.7569 0.5876 -0.2862
vn 0.7878 0.6116 -0.0725
vn 0.9744 -0.0225 0.2238
vn 0.5145 0.8575 0.0000
vn 0.4314 0.9022 -0.0000
vn 0.9294 0.3668 0.0415
usemtl None
s off
f 44//1 79//1 20//1
f 18//2 5//2 12//2
f 46//3 75//3 49//3
f 48//4 42//4 47//4
f 10//5 15//5 16//5
f 14//6 15//6 42//6
f 43//7 47//7 3//7
f 45//8 75//8 39//8
f 47//7 45//7 3//7
f 17//9 5//9 11//9
f 10//10 12//10 56//10
f 56//11 50//11 44//11
f 5//12 50//12 12//12
f 19//13 41//13 65//13
f 5//14 19//14 65//14
f 20//15 40//15 46//15
f 15//16 46//16 42//16
f 56//17 20//17 15//17
f 62//18 13//18 26//18
f 25//19 35//19 29//19
f 34//20 33//20 35//20
f 32//21 29//21 37//21
f 26//22 17//22 33//22
f 50//23 41//23 76//23
f 47//24 46//24 49//24
f 50//25 70//25 44//25
f 66//26 53//26 61//26
f 51//27 63//27 55//27
f 59//28 63//28 67//28
f 60//29 31//29 54//29
f 21//30 58//30 36//30
f 61//31 59//31 67//31
f 36//32 54//32 31//32
f 63//33 64//33 67//33
f 61//34 32//34 66//34
f 141//35 57//35 63//35
f 67//36 25//36 61//36
f 57//37 68//37 64//37
f 130//38 62//38 57//38
f 68//39 26//39 34//39
f 25//40 68//40 34//40
f 68//41 25//41 64//41
f 32//42 37//42 31//42
f 31//43 66//43 32//43
f 69//44 19//44 52//44
f 52//45 19//45 62//45
f 9//46 33//46 17//46
f 28//47 33//47 24//47
f 29//48 28//48 22//48
f 22//49 37//49 29//49
f 31//50 30//50 23//50
f 23//51 36//51 31//51
f 36//52 27//52 21//52
f 4//53 17//53 11//53
f 1//54 10//54 8//54
f 28//55 24//55 7//55
f 87//56 72//56 81//56
f 86//57 100//57 82//57
f 78//58 84//58 100//58
f 70//59 85//59 78//59
f 76//60 83//60 85//60
f 80//61 82//61 72//61
f 40//62 86//62 80//62
f 79//63 78//63 86//63
f 74//64 81//64 71//64
f 75//8 74//8 39//8
f 75//65 80//65 87//65
f 77//66 73//66 90//66
f 71//67 88//67 77//67
f 81//68 120//68 88//68
f 72//69 89//69 120//69
f 110//70 115//70 140//70
f 111//71 118//71 139//71
f 83//72 113//72 138//72
f 137//73 101//73 112//73
f 120//74 121//74 136//74
f 123//75 107//75 135//75
f 124//76 125//76 134//76
f 133//77 99//77 126//77
f 132//78 98//78 109//78
f 128//79 129//79 131//79
f 128//80 130//80 105//80
f 102//81 52//81 128//81
f 117//82 129//82 99//82
f 113//83 117//83 94//83
f 102//84 131//84 113//84
f 132//85 93//85 110//85
f 99//86 132//86 110//86
f 129//87 127//87 132//87
f 133//88 104//88 124//88
f 118//89 124//89 101//89
f 118//90 117//90 133//90
f 108//91 125//91 97//91
f 112//92 108//92 92//92
f 101//93 134//93 112//93
f 116//94 107//94 91//94
f 125//91 116//91 97//91
f 125//95 123//95 135//95
f 89//96 103//96 120//96
f 136//97 95//97 106//97
f 73//98 106//98 90//98
f 114//92 112//92 92//92
f 121//99 114//99 95//99
f 103//100 137//100 121//100
f 138//101 94//101 111//101
f 139//102 101//102 119//102
f 122//103 119//103 103//103
f 100//104 139//104 122//104
f 123//105 115//105 96//105
f 126//106 123//106 104//106
f 126//107 110//107 140//107
f 141//108 98//108 127//108
f 105//109 141//109 127//109
f 111//110 84//110 138//110
f 122//111 89//111 100//111
f 82//112 100//112 89//112
f 85//113 83//113 84//113
f 83//114 138//114 84//114
f 102//115 83//115 69//115
f 41//116 69//116 83//116
f 136//117 73//117 120//117
f 88//118 120//118 73//118
f 96//119 115//119 54//119
f 114//120 92//120 39//120
f 44//121 70//121 79//121
f 18//122 11//122 5//122
f 46//123 40//123 75//123
f 48//124 14//124 42//124
f 10//125 56//125 15//125
f 14//126 16//126 15//126
f 43//127 48//127 47//127
f 45//128 49//128 75//128
f 47//129 49//129 45//129
f 17//130 13//130 5//130
f 10//131 18//131 12//131
f 56//132 12//132 50//132
f 5//133 65//133 50//133
f 19//134 69//134 41//134
f 5//130 13//130 19//130
f 20//135 79//135 40//135
f 15//136 20//136 46//136
f 56//137 44//137 20//137
f 62//138 19//138 13//138
f 25//139 34//139 35//139
f 34//140 26//140 33//140
f 32//141 25//141 29//141
f 26//142 13//142 17//142
f 50//143 65//143 41//143
f 47//144 42//144 46//144
f 50//145 76//145 70//145
f 66//146 60//146 53//146
f 51//147 141//147 63//147
f 59//148 55//148 63//148
f 60//149 66//149 31//149
f 61//150 53//150 59//150
f 36//30 58//30 54//30
f 63//151 57//151 64//151
f 61//152 25//152 32//152
f 141//153 130//153 57//153
f 67//154 64//154 25//154
f 57//155 62//155 68//155
f 130//156 52//156 62//156
f 68//157 62//157 26//157
f 9//158 24//158 33//158
f 28//159 35//159 33//159
f 29//160 35//160 28//160
f 22//161 30//161 37//161
f 31//162 37//162 30//162
f 23//52 27//52 36//52
f 4//163 9//163 17//163
f 4//164 11//164 18//164
f 10//165 16//165 8//165
f 16//166 14//166 8//166
f 4//167 18//167 7//167
f 18//168 10//168 7//168
f 14//169 48//169 2//169
f 8//170 14//170 2//170
f 48//171 43//171 6//171
f 43//172 38//172 6//172
f 6//173 2//173 48//173
f 7//54 10//54 1//54
f 9//55 4//55 24//55
f 4//55 7//55 24//55
f 7//55 1//55 22//55
f 1//55 8//55 22//55
f 8//55 2//55 30//55
f 2//55 6//55 23//55
f 30//55 2//55 23//55
f 6//55 38//55 27//55
f 38//55 21//55 27//55
f 27//55 23//55 6//55
f 22//55 8//55 30//55
f 22//55 28//55 7//55
f 87//174 80//174 72//174
f 86//175 78//175 100//175
f 78//176 85//176 84//176
f 70//177 76//177 85//177
f 76//178 41//178 83//178
f 80//179 86//179 82//179
f 40//180 79//180 86//180
f 79//181 70//181 78//181
f 74//182 87//182 81//182
f 75//183 87//183 74//183
f 75//184 40//184 80//184
f 77//185 88//185 73//185
f 71//186 81//186 88//186
f 81//187 72//187 120//187
f 72//188 82//188 89//188
f 110//189 93//189 115//189
f 111//190 94//190 118//190
f 83//191 102//191 113//191
f 137//192 119//192 101//192
f 120//193 103//193 121//193
f 123//105 96//105 107//105
f 124//194 104//194 125//194
f 133//195 117//195 99//195
f 132//196 127//196 98//196
f 128//197 105//197 129//197
f 128//198 52//198 130//198
f 102//199 69//199 52//199
f 117//200 131//200 129//200
f 113//201 131//201 117//201
f 102//202 128//202 131//202
f 132//78 109//78 93//78
f 99//203 129//203 132//203
f 129//204 105//204 127//204
f 133//205 126//205 104//205
f 118//206 133//206 124//206
f 118//207 94//207 117//207
f 108//208 134//208 125//208
f 112//209 134//209 108//209
f 101//210 124//210 134//210
f 116//211 135//211 107//211
f 125//212 135//212 116//212
f 125//213 104//213 123//213
f 89//214 122//214 103//214
f 136//215 121//215 95//215
f 73//216 136//216 106//216
f 114//217 137//217 112//217
f 121//218 137//218 114//218
f 103//219 119//219 137//219
f 138//220 113//220 94//220
f 139//221 118//221 101//221
f 122//222 139//222 119//222
f 100//223 111//223 139//223
f 123//224 140//224 115//224
f 126//225 140//225 123//225
f 126//226 99//226 110//226
f 141//227 51//227 98//227
f 105//228 130//228 141//228
f 111//229 100//229 84//229
f 51//119 55//119 98//119
f 55//119 59//119 98//119
f 59//119 53//119 109//119
f 53//119 60//119 93//119
f 109//119 53//119 93//119
f 115//119 93//119 60//119
f 109//119 98//119 59//119
f 60//119 54//119 115//119
f 58//119 21//119 91//119
f 54//119 58//119 107//119
f 58//119 91//119 107//119
f 107//119 96//119 54//119
f 43//120 3//120 21//120
f 3//120 45//120 21//120
f 39//120 74//120 114//120
f 74//120 71//120 114//120
f 45//120 39//120 92//120
f 21//120 45//120 108//120
f 21//120 38//120 43//120
f 116//120 91//120 21//120
f 92//120 108//120 45//120
f 108//120 97//120 21//120
f 97//120 116//120 21//120
f 71//120 77//120 106//120
f 77//120 90//120 106//120
f 106//120 95//120 71//120
f 95//120 114//120 71//120
