# Blender v2.79 (sub 0) OBJ File: 'allinoneblend.blend'
# www.blender.org
mtllib pillar.mtl
o Cube.010_Cube.009
v -0.000000 0.000000 -0.500000
v -0.000000 0.825000 0.000000
v 0.000004 0.505717 -0.259977
v 0.250000 0.000000 -0.500000
v 0.235554 0.226932 -0.355150
v 0.394827 0.087396 -0.394633
v 0.125000 0.000000 -0.500000
v -0.000000 0.129357 -0.446215
v 0.375000 0.000000 -0.500000
v 0.116747 0.492376 -0.255038
v -0.000003 0.362280 -0.288790
v 0.126358 0.260808 -0.395439
v 0.249376 0.121957 -0.432486
v 0.208949 0.333258 -0.268258
v 0.099990 0.695035 -0.099818
v 0.166201 0.607888 -0.165923
v 0.087745 0.592068 -0.160441
v 0.124875 0.374547 -0.311744
v 0.125451 0.139056 -0.464708
v 0.341896 0.086413 -0.394697
v 0.283624 0.349605 -0.283291
v 0.500000 0.000000 -0.500000
v 0.500000 0.000000 -0.000000
v 0.500000 0.000000 -0.250000
v 0.230907 0.451534 -0.230610
v 0.362710 0.231608 -0.237298
v 0.500000 0.000000 -0.375000
v 0.218647 0.468550 -0.106099
v 0.500000 0.000000 -0.125000
v 0.329393 0.384063 0.000002
v 0.401531 0.264022 -0.126748
v 0.353035 0.200167 -0.352767
v 0.416022 0.111977 -0.247340
v 0.312816 0.364081 -0.224984
v 0.443682 0.123130 -0.351585
v 0.408606 0.110078 -0.124526
v 0.169161 0.599103 -0.091079
v 0.306873 0.371631 -0.124077
v 0.000001 0.000000 0.500000
v -0.000009 0.512938 0.272576
v -0.250000 0.000000 0.500000
v -0.245142 0.250542 0.392540
v -0.379563 0.065544 0.379386
v -0.125000 0.000000 0.500000
v 0.000000 0.117310 0.422119
v -0.375000 0.000000 0.500000
v -0.120115 0.500003 0.266730
v -0.000001 0.381727 0.325040
v -0.124235 0.243911 0.363484
v -0.250969 0.129728 0.445292
v -0.214105 0.343014 0.282282
v -0.102537 0.698625 0.102363
v -0.160435 0.601527 0.160161
v -0.097688 0.611943 0.184551
v -0.129598 0.391719 0.340409
v -0.124859 0.120637 0.429055
v -0.340629 0.081698 0.388430
v -0.270354 0.336305 0.270032
v -0.500000 0.000000 0.500000
v -0.205527 0.474514 0.000019
v -0.500000 0.000000 0.250000
v -0.227935 0.448356 0.227640
v -0.369743 0.236044 0.239094
v -0.500000 0.000000 0.375000
v -0.245571 0.486100 0.113825
v -0.500000 0.000000 0.125000
v -0.365147 0.244792 0.124351
v -0.361805 0.209923 0.361528
v -0.403736 0.104527 0.245818
v -0.287417 0.346424 0.215677
v -0.418465 0.104182 0.346506
v -0.422249 0.117124 0.124750
v -0.180022 0.608055 0.095547
v -0.334694 0.388289 0.128640
v 0.362789 0.243895 -0.000000
v 0.111072 0.722681 0.000065
v 0.271795 0.512490 0.000009
v 0.500000 0.000000 0.250000
v 0.362321 0.231460 0.237393
v 0.381072 0.067960 0.381251
v 0.500000 0.000000 0.125000
v 0.431300 0.121900 -0.000000
v 0.179521 0.618453 -0.000004
v 0.500000 0.000000 0.375000
v 0.229653 0.475816 0.109437
v 0.372096 0.248465 0.124807
v 0.432489 0.121959 0.249377
v 0.274839 0.337836 0.211369
v 0.103084 0.699642 0.103259
v 0.142615 0.582161 0.142878
v 0.165077 0.595890 0.089657
v 0.340367 0.391694 0.129592
v 0.424619 0.118346 0.124786
v 0.417210 0.103354 0.346446
v 0.271894 0.338173 0.272218
v 0.500000 0.000000 0.500000
v 0.250000 0.000000 0.500000
v 0.238603 0.460088 0.238908
v 0.000000 0.262296 0.399593
v -0.000040 0.692834 0.078709
v 0.239480 0.236999 0.371256
v 0.375000 0.000000 0.500000
v 0.111062 0.479823 0.235941
v -0.000008 0.638905 0.204446
v 0.125000 0.000000 0.500000
v 0.124675 0.247391 0.370064
v 0.350575 0.197727 0.350841
v 0.253168 0.140506 0.463073
v 0.217931 0.350700 0.293569
v 0.343366 0.092469 0.402877
v 0.125218 0.131848 0.450761
v 0.092831 0.602612 0.173419
v 0.122765 0.366841 0.298873
v -0.500000 0.000000 0.000000
v -0.390542 0.257771 0.000000
v -0.104373 0.716503 -0.000060
v -0.500000 0.000000 -0.250000
v -0.393211 0.250965 -0.245314
v -0.402374 0.098490 -0.402576
v -0.500000 0.000000 -0.125000
v -0.427117 0.119809 0.000000
v -0.203153 0.637844 -0.000007
v -0.500000 0.000000 -0.375000
v -0.253086 0.491102 -0.116185
v -0.332449 0.385702 -0.000003
v -0.376356 0.250717 -0.125090
v -0.440811 0.127009 -0.250411
v -0.311609 0.363417 -0.224889
v -0.095155 0.688459 -0.095322
v -0.156386 0.597360 -0.156657
v -0.180789 0.608843 -0.096137
v -0.284794 0.358403 -0.120435
v -0.462457 0.137893 -0.125414
v -0.409424 0.097495 -0.344872
v -0.296903 0.363258 -0.297248
v -0.500000 0.000000 -0.500000
v -0.250000 0.000000 -0.500000
v -0.197421 0.416018 -0.197686
v -0.000000 0.242023 -0.359045
v 0.000063 0.719846 -0.107998
v -0.238084 0.233551 -0.365790
v -0.375000 0.000000 -0.500000
v -0.109204 0.475604 -0.229468
v 0.000012 0.645462 -0.212437
v -0.125000 0.000000 -0.500000
v -0.126074 0.258618 -0.391305
v -0.343996 0.190401 -0.344256
v -0.249174 0.120958 -0.430834
v -0.228324 0.370419 -0.321933
v -0.346756 0.105114 -0.419705
v -0.125445 0.138981 -0.464572
v -0.083806 0.584529 -0.151478
v -0.120754 0.359500 -0.286613
vn 0.2783 0.5932 -0.7554
vn 0.5175 0.1708 -0.8384
vn 0.3437 0.4769 -0.8089
vn 0.1099 0.7008 -0.7048
vn 0.6239 0.3401 -0.7036
vn 0.4331 0.6329 -0.6418
vn -0.3050 0.5619 -0.7690
vn -0.2037 0.4131 -0.8876
vn 0.0000 0.4843 -0.8749
vn -0.0000 0.3839 -0.9234
vn -0.1641 0.4887 -0.8569
vn 0.0000 0.7697 -0.6384
vn -0.0000 0.7730 -0.6344
vn 0.4510 0.2695 -0.8509
vn 0.1237 0.4650 -0.8766
vn 0.7067 0.6797 -0.1964
vn 0.8020 0.5591 -0.2100
vn 0.8541 0.4796 -0.2012
vn 0.6259 0.7403 0.2453
vn 0.8481 0.4889 -0.2042
vn 0.9094 0.4159 -0.0000
vn 0.6391 0.7691 -0.0000
vn 0.8712 0.4910 -0.0000
vn 0.8000 0.6000 -0.0000
vn 0.9136 0.4020 0.0614
vn 0.7698 0.3530 -0.5318
vn 0.7159 0.6218 0.3176
vn 0.8445 0.3553 -0.4007
vn 0.7301 0.6833 -0.0081
vn 0.9352 0.3540 0.0046
vn 0.6575 0.5853 -0.4745
vn -0.2560 0.3360 -0.9064
vn -0.1626 0.5149 -0.8417
vn 0.8090 0.5867 0.0369
vn 0.6527 0.7084 -0.2685
vn 0.2288 0.6975 -0.6790
vn 0.3876 0.4436 -0.8081
vn -0.0053 0.3463 -0.9381
vn 0.1452 0.3900 0.9093
vn -0.6487 0.2816 0.7071
vn -0.5008 0.5242 0.6888
vn -0.1034 0.6020 0.7918
vn -0.3192 0.6426 0.6965
vn 0.1987 0.7227 0.6620
vn -0.3090 0.5036 0.8068
vn 0.1401 0.5486 0.8243
vn 0.0000 0.5069 0.8620
vn 0.0614 0.4685 0.8813
vn -0.0000 0.8786 0.4775
vn 0.0000 0.8068 0.5908
vn -0.5639 0.0794 0.8221
vn -0.4011 0.7096 0.5793
vn -0.7409 0.6711 -0.0264
vn -0.7224 0.5910 0.3591
vn -0.9119 0.4080 0.0444
vn -0.8670 0.4823 -0.1252
vn -0.7259 0.6615 0.1882
vn -0.7875 0.6163 0.0000
vn -0.4780 0.8784 0.0000
vn -0.8543 0.5197 0.0000
vn -0.7356 0.6774 0.0000
vn -0.9516 0.2547 0.1720
vn -0.8487 0.4052 -0.3399
vn -0.8875 0.4030 0.2233
vn -0.8001 0.5997 0.0137
vn -0.7352 0.3617 0.5733
vn -0.8214 0.4862 0.2981
vn -0.8284 0.4432 0.3425
vn -0.2407 0.4218 0.8741
vn -0.3703 0.6281 0.6843
vn -0.7387 0.6105 0.2856
vn -0.7143 0.6871 0.1327
vn 0.2215 0.4989 0.8379
vn -0.5336 0.1681 0.8289
vn -0.2830 0.1519 0.9470
vn 0.8434 0.5329 -0.0687
vn 0.7531 0.0760 0.6535
vn 0.7771 0.6289 0.0227
vn 0.7531 0.4793 0.4507
vn 0.8445 0.4712 0.2546
vn 0.7422 0.6502 0.1626
vn 0.9696 0.2310 -0.0808
vn 0.6133 0.7837 -0.0981
vn 0.8749 0.4843 0.0000
vn 0.9256 0.3736 0.0602
vn 0.4961 0.8682 0.0000
vn 0.7805 0.6252 -0.0000
vn 0.7997 0.5538 0.2320
vn 0.7773 0.5765 0.2519
vn 0.2381 0.4913 0.8378
vn 0.4431 0.4941 0.7480
vn -0.2462 0.5542 0.7951
vn 0.6359 0.3066 0.7082
vn 0.3444 0.5981 0.7237
vn 0.0000 0.7242 0.6895
vn 0.0000 0.8679 0.4967
vn 0.0000 0.5531 0.8331
vn 0.0000 0.3498 0.9368
vn -0.1158 0.6760 0.7277
vn 0.3990 0.4624 0.7918
vn 0.2555 0.5120 0.8201
vn 0.0430 0.5692 0.8211
vn 0.1221 0.4251 0.8969
vn 0.5939 0.4333 0.6779
vn 0.4134 0.3433 0.8434
vn 0.9605 0.2746 0.0450
vn 0.7941 0.4165 0.4426
vn 0.5938 0.4293 0.6805
vn -0.2318 0.4978 0.8357
vn 0.6621 0.7189 0.2117
vn 0.6177 0.3141 0.7210
vn 0.4876 0.3062 0.8176
vn -0.9140 0.3588 -0.1895
vn -0.4437 0.8824 0.1563
vn -0.6325 0.3043 -0.7123
vn -0.8117 0.4314 0.3938
vn -0.6348 0.6864 -0.3548
vn -0.8138 0.5696 0.1153
vn -0.9033 0.4102 -0.1256
vn -0.8875 0.2249 -0.4022
vn -0.9064 0.4224 0.0000
vn -0.9234 0.2448 0.2955
vn -0.7102 0.7040 -0.0000
vn -0.7326 0.6806 0.0000
vn -0.7438 0.5266 -0.4117
vn -0.7305 0.3573 -0.5820
vn -0.0264 0.4436 -0.8959
vn -0.6904 0.2841 -0.6653
vn 0.1627 0.5159 -0.8411
vn -0.1897 0.6540 -0.7323
vn -0.3147 0.3280 -0.8907
vn -0.0000 0.6070 -0.7947
vn -0.0000 0.7032 -0.7109
vn -0.0000 0.4964 -0.8681
vn -0.2949 0.4996 -0.8145
vn -0.3643 0.5968 -0.7149
vn 0.2636 0.6879 -0.6763
vn -0.2767 0.3111 -0.9092
vn 0.2170 0.8977 -0.3834
vn 0.1559 0.5508 -0.8200
vn -0.2029 0.9345 -0.2925
vn -0.4005 0.9125 -0.0834
vn -0.6274 0.6787 -0.3818
vn 0.1469 0.4826 -0.8634
vn -0.3125 0.6805 -0.6628
vn -0.6950 0.6687 -0.2641
vn -0.2950 0.6384 -0.7109
vn -0.8140 0.5739 -0.0896
vn 0.0000 -1.0000 0.0000
vn 0.4282 0.4445 -0.7868
vn 0.3328 0.4275 -0.8405
vn -0.1824 0.6483 -0.7392
vn 0.6036 0.2567 -0.7548
vn 0.2423 0.7902 -0.5629
vn 0.5780 0.4885 -0.6536
vn -0.2039 0.4938 -0.8453
vn 0.0639 0.1965 -0.9784
vn 0.2749 0.2357 -0.9321
vn -0.1598 0.2433 -0.9567
vn -0.3037 0.5830 -0.7536
vn -0.0135 0.7709 -0.6368
vn 0.4777 0.4274 -0.7676
vn 0.1524 0.5991 -0.7860
vn -0.2799 0.5645 -0.7765
vn 0.7732 0.3468 -0.5309
vn 0.8118 0.5333 -0.2377
vn 0.9531 0.0481 0.2990
vn 0.8913 0.4129 -0.1871
vn 0.8013 0.3471 -0.4873
vn 0.7740 0.5742 0.2668
vn 0.4530 0.3621 -0.8147
vn 0.7539 0.6268 -0.1969
vn 0.7683 0.6376 0.0563
vn 0.9393 0.0382 -0.3410
vn 0.7357 0.6406 -0.2198
vn 0.9539 0.2273 -0.1959
vn 0.7508 0.6605 -0.0052
vn 0.7375 0.6750 -0.0196
vn 0.9291 0.3674 0.0413
vn 0.2315 0.4559 0.8594
vn -0.4996 0.5168 0.6952
vn -0.3749 0.5963 0.7099
vn -0.2965 0.4543 0.8400
vn 0.1414 0.9098 0.3902
vn -0.6029 0.1017 0.7913
vn 0.1283 0.1575 0.9792
vn -0.0849 0.3699 0.9252
vn 0.1451 0.3854 0.9113
vn 0.0609 0.5521 0.8316
vn -0.2960 0.1466 0.9439
vn -0.4294 0.7866 0.4437
vn -0.6205 0.3008 0.7243
vn -0.3605 0.3878 0.8483
vn -0.2210 0.7770 0.5894
vn -0.5513 0.7880 -0.2742
vn -0.6162 0.7739 0.1461
vn -0.9432 0.2500 0.2187
vn -0.9601 0.2541 0.1165
vn -0.7184 0.6077 0.3386
vn -0.7336 0.6714 -0.1050
vn -0.2746 0.4477 0.8510
vn -0.8323 0.5526 0.0444
vn -0.8191 0.5441 0.1819
vn -0.9128 0.4083 -0.0054
vn -0.9708 0.0142 0.2394
vn -0.9779 0.2082 -0.0212
vn -0.8328 0.1609 0.5297
vn -0.6742 0.6635 0.3245
vn -0.8221 0.4900 0.2899
vn 0.9187 0.3708 0.1358
vn 0.5976 0.7999 0.0559
vn 0.7569 0.4801 0.4433
vn 0.7249 0.6313 0.2756
vn 0.8216 0.5395 0.1840
vn 0.7264 0.1384 0.6732
vn 0.9712 0.2183 -0.0951
vn 0.8198 0.3677 0.4390
vn 0.8415 0.5359 -0.0687
vn 0.8418 0.5363 0.0603
vn 0.8689 0.4880 -0.0827
vn 0.3173 0.4801 0.8178
vn 0.8520 0.4728 0.2247
vn 0.8041 0.5420 0.2444
vn 0.7679 0.6397 0.0336
vn 0.3848 0.3427 0.8570
vn -0.1527 0.9082 0.3896
vn 0.2447 0.1489 0.9581
vn 0.3565 0.6701 0.6511
vn 0.4136 0.5658 0.7133
vn 0.6125 0.1880 0.7678
vn 0.6499 0.6448 0.4023
vn -0.2470 0.3394 0.9076
vn -0.1097 0.2550 0.9607
vn 0.0433 0.5722 0.8190
vn 0.4327 0.4289 0.7930
vn 0.2381 0.5000 0.8326
vn 0.1337 0.5089 0.8504
vn 0.0556 0.4902 0.8698
vn 0.0841 0.6561 0.7500
vn -0.7901 0.6026 0.1120
vn -0.7183 0.1930 -0.6684
vn -0.7482 0.5279 -0.4019
vn -0.9729 0.0141 -0.2306
vn -0.5983 0.7511 -0.2790
vn -0.7475 0.6260 0.2220
vn -0.6867 0.6015 -0.4081
vn -0.5409 0.7729 0.3317
vn -0.9481 0.2576 -0.1866
vn -0.9214 0.2518 0.2959
vn -0.7887 0.6022 -0.1234
vn -0.7187 0.6912 -0.0759
vn -0.8323 0.3866 -0.3973
vn -0.7588 0.3148 -0.5702
vn -0.7847 0.5986 -0.1608
vn -0.3118 0.1871 -0.9315
vn -0.3268 0.7699 -0.5482
vn 0.2722 0.5888 -0.7610
vn -0.3617 0.4928 -0.7914
vn -0.3505 0.3084 -0.8843
vn -0.1769 0.4895 -0.8539
vn -0.2963 0.6288 -0.7189
vn 0.1587 0.2444 -0.9566
vn -0.2875 0.2357 -0.9283
vn -0.2970 0.4976 -0.8150
vn -0.6781 0.2367 -0.6958
vn -0.0272 0.5042 -0.8631
vn 0.2898 0.6818 -0.6717
vn -0.5428 0.4137 -0.7309
vn -0.4947 0.2968 -0.8168
usemtl None
s off
f 19//1 5//1 13//1
f 18//2 25//2 14//2
f 10//3 16//3 25//3
f 3//4 17//4 10//4
f 144//5 15//5 17//5
f 12//6 14//6 5//6
f 139//7 18//7 12//7
f 11//8 10//8 18//8
f 7//9 13//9 4//9
f 8//10 7//10 1//10
f 8//11 12//11 19//11
f 9//12 6//12 22//12
f 4//13 20//13 9//13
f 13//14 32//14 20//14
f 5//15 21//15 32//15
f 28//16 30//16 38//16
f 15//17 83//17 37//17
f 36//18 75//18 82//18
f 32//19 33//19 35//19
f 21//20 26//20 32//20
f 35//21 24//21 27//21
f 6//22 27//22 22//22
f 29//23 82//23 23//23
f 33//24 29//24 24//24
f 26//25 36//25 33//25
f 37//26 77//26 28//26
f 38//27 75//27 31//27
f 34//28 31//28 26//28
f 25//29 38//29 34//29
f 28//30 16//30 37//30
f 34//31 21//31 25//31
f 14//32 25//32 21//32
f 17//33 15//33 16//33
f 15//34 37//34 16//34
f 76//35 15//35 2//35
f 140//36 2//36 15//36
f 35//37 6//37 32//37
f 20//38 32//38 6//38
f 56//39 42//39 50//39
f 55//40 62//40 51//40
f 47//41 53//41 62//41
f 40//42 54//42 47//42
f 104//43 52//43 54//43
f 49//44 51//44 42//44
f 48//45 49//45 99//45
f 48//46 47//46 55//46
f 56//47 41//47 44//47
f 39//47 56//47 44//47
f 45//48 49//48 56//48
f 46//49 43//49 59//49
f 41//50 57//50 46//50
f 50//51 68//51 57//51
f 42//52 58//52 68//52
f 65//53 125//53 74//53
f 52//54 122//54 73//54
f 67//55 121//55 72//55
f 68//56 69//56 71//56
f 58//57 63//57 68//57
f 71//58 61//58 64//58
f 43//59 64//59 59//59
f 66//60 121//60 114//60
f 69//61 66//61 61//61
f 63//62 72//62 69//62
f 73//63 60//63 65//63
f 67//64 125//64 115//64
f 70//65 67//65 63//65
f 62//66 74//66 70//66
f 65//67 53//67 73//67
f 70//68 58//68 62//68
f 51//69 62//69 58//69
f 54//70 52//70 53//70
f 52//71 73//71 53//71
f 116//72 52//72 2//72
f 100//73 2//73 52//73
f 71//74 43//74 68//74
f 57//75 68//75 43//75
f 93//76 79//76 87//76
f 92//77 98//77 88//77
f 85//78 90//78 98//78
f 77//79 91//79 85//79
f 83//80 89//80 91//80
f 86//81 88//81 79//81
f 30//82 86//82 75//82
f 30//83 85//83 92//83
f 81//84 87//84 78//84
f 82//23 81//23 23//23
f 82//85 86//85 93//85
f 84//86 80//86 96//86
f 78//87 94//87 84//87
f 87//88 107//88 94//88
f 79//89 95//89 107//89
f 103//90 48//90 113//90
f 89//91 104//91 112//91
f 106//92 45//92 111//92
f 107//93 108//93 110//93
f 95//94 101//94 107//94
f 110//95 97//95 102//95
f 80//96 102//96 96//96
f 105//97 45//97 39//97
f 97//98 111//98 105//98
f 101//99 111//99 108//99
f 112//100 40//100 103//100
f 106//101 48//101 99//101
f 109//102 106//102 101//102
f 98//103 113//103 109//103
f 103//104 90//104 112//104
f 109//105 95//105 98//105
f 88//106 98//106 95//106
f 91//107 89//107 90//107
f 89//108 112//108 90//108
f 100//109 89//109 2//109
f 76//110 2//110 89//110
f 110//111 80//111 107//111
f 94//112 107//112 80//112
f 133//113 118//113 127//113
f 132//114 138//114 128//114
f 124//115 130//115 138//115
f 60//116 131//116 124//116
f 122//117 129//117 131//117
f 126//118 128//118 118//118
f 125//119 126//119 115//119
f 125//120 124//120 132//120
f 120//121 127//121 117//121
f 121//60 120//60 114//60
f 115//122 133//122 121//122
f 123//123 119//123 136//123
f 117//124 134//124 123//124
f 127//125 147//125 134//125
f 118//126 135//126 147//126
f 143//127 11//127 153//127
f 129//128 144//128 152//128
f 146//129 8//129 151//129
f 147//130 148//130 150//130
f 135//131 141//131 147//131
f 150//132 137//132 142//132
f 119//133 142//133 136//133
f 145//10 8//10 1//10
f 148//134 145//134 137//134
f 141//135 151//135 148//135
f 152//136 3//136 143//136
f 153//137 139//137 146//137
f 149//138 146//138 141//138
f 138//139 153//139 149//139
f 143//140 130//140 152//140
f 149//141 135//141 138//141
f 128//142 138//142 135//142
f 131//143 129//143 130//143
f 129//144 152//144 130//144
f 140//145 129//145 2//145
f 116//146 2//146 129//146
f 150//147 119//147 147//147
f 134//148 147//148 119//148
f 44//149 41//149 61//149
f 19//150 12//150 5//150
f 18//151 10//151 25//151
f 10//152 17//152 16//152
f 3//153 144//153 17//153
f 144//154 140//154 15//154
f 12//155 18//155 14//155
f 139//156 11//156 18//156
f 11//157 3//157 10//157
f 7//158 19//158 13//158
f 8//159 19//159 7//159
f 8//160 139//160 12//160
f 9//161 20//161 6//161
f 4//162 13//162 20//162
f 13//163 5//163 32//163
f 5//164 14//164 21//164
f 28//165 77//165 30//165
f 15//166 76//166 83//166
f 36//167 31//167 75//167
f 32//168 26//168 33//168
f 21//169 34//169 26//169
f 35//170 33//170 24//170
f 6//171 35//171 27//171
f 29//172 36//172 82//172
f 33//173 36//173 29//173
f 26//174 31//174 36//174
f 37//175 83//175 77//175
f 38//176 30//176 75//176
f 34//177 38//177 31//177
f 25//178 28//178 38//178
f 28//179 25//179 16//179
f 56//180 49//180 42//180
f 55//181 47//181 62//181
f 47//182 54//182 53//182
f 40//183 104//183 54//183
f 104//184 100//184 52//184
f 49//185 55//185 51//185
f 48//186 55//186 49//186
f 48//187 40//187 47//187
f 56//188 50//188 41//188
f 39//189 45//189 56//189
f 45//190 99//190 49//190
f 46//191 57//191 43//191
f 41//192 50//192 57//192
f 50//193 42//193 68//193
f 42//194 51//194 58//194
f 65//195 60//195 125//195
f 52//196 116//196 122//196
f 67//197 115//197 121//197
f 68//198 63//198 69//198
f 58//199 70//199 63//199
f 71//200 69//200 61//200
f 43//201 71//201 64//201
f 66//202 72//202 121//202
f 69//203 72//203 66//203
f 63//204 67//204 72//204
f 73//205 122//205 60//205
f 67//206 74//206 125//206
f 70//207 74//207 67//207
f 62//208 65//208 74//208
f 65//209 62//209 53//209
f 93//210 86//210 79//210
f 92//211 85//211 98//211
f 85//212 91//212 90//212
f 77//213 83//213 91//213
f 83//214 76//214 89//214
f 86//215 92//215 88//215
f 30//216 92//216 86//216
f 30//217 77//217 85//217
f 81//218 93//218 87//218
f 82//219 93//219 81//219
f 82//220 75//220 86//220
f 84//221 94//221 80//221
f 78//222 87//222 94//222
f 87//223 79//223 107//223
f 79//224 88//224 95//224
f 103//225 40//225 48//225
f 89//226 100//226 104//226
f 106//227 99//227 45//227
f 107//228 101//228 108//228
f 95//229 109//229 101//229
f 110//230 108//230 97//230
f 80//231 110//231 102//231
f 105//232 111//232 45//232
f 97//233 108//233 111//233
f 101//234 106//234 111//234
f 112//235 104//235 40//235
f 106//236 113//236 48//236
f 109//237 113//237 106//237
f 98//238 103//238 113//238
f 103//239 98//239 90//239
f 133//240 126//240 118//240
f 132//241 124//241 138//241
f 124//242 131//242 130//242
f 60//243 122//243 131//243
f 122//244 116//244 129//244
f 126//245 132//245 128//245
f 125//246 132//246 126//246
f 125//247 60//247 124//247
f 120//248 133//248 127//248
f 121//249 133//249 120//249
f 115//250 126//250 133//250
f 123//251 134//251 119//251
f 117//252 127//252 134//252
f 127//253 118//253 147//253
f 118//254 128//254 135//254
f 143//255 3//255 11//255
f 129//256 140//256 144//256
f 146//257 139//257 8//257
f 147//258 141//258 148//258
f 135//259 149//259 141//259
f 150//260 148//260 137//260
f 119//261 150//261 142//261
f 145//262 151//262 8//262
f 148//263 151//263 145//263
f 141//264 146//264 151//264
f 152//265 144//265 3//265
f 153//266 11//266 139//266
f 149//267 153//267 146//267
f 138//268 143//268 153//268
f 143//269 138//269 130//269
f 4//149 9//149 27//149
f 9//149 22//149 27//149
f 27//149 24//149 4//149
f 24//149 29//149 4//149
f 1//149 7//149 29//149
f 7//149 4//149 29//149
f 142//149 137//149 117//149
f 137//149 145//149 117//149
f 145//149 1//149 114//149
f 114//149 1//149 39//149
f 123//149 136//149 142//149
f 114//149 120//149 145//149
f 120//149 117//149 145//149
f 117//149 123//149 142//149
f 23//149 1//149 29//149
f 23//149 81//149 39//149
f 81//149 78//149 105//149
f 39//149 81//149 105//149
f 78//149 84//149 102//149
f 84//149 96//149 102//149
f 102//149 97//149 78//149
f 97//149 105//149 78//149
f 1//149 23//149 39//149
f 61//149 66//149 44//149
f 66//149 114//149 39//149
f 59//149 64//149 46//149
f 64//149 61//149 41//149
f 41//149 46//149 64//149
f 39//149 44//149 66//149
