# Blender v2.79 (sub 0) OBJ File: 'allinoneblend.blend'
# www.blender.org
mtllib quadra_wall.mtl
o Cube.012_Cube.022
v -0.464661 0.141557 0.464662
v -0.206690 0.636717 0.206690
v -0.500000 0.000000 0.500000
v -0.380990 0.288446 0.380991
v -0.120919 0.775296 0.120919
v -0.500000 0.500000 -0.250000
v -0.500000 0.250000 -0.375000
v -0.500000 0.750000 -0.125000
v -0.245210 0.705164 -0.085379
v -0.500000 0.125000 -0.437500
v -0.500000 0.625000 -0.187500
v -0.384337 0.518896 -0.277863
v -0.500000 0.375000 -0.312500
v -0.500000 0.825000 0.000000
v -0.399139 0.303122 -0.399138
v -0.338143 0.397815 -0.338142
v -0.374855 0.746006 -0.120875
v -0.268571 0.616611 -0.162990
v -0.250000 0.825000 0.000000
v -0.125000 0.825000 0.000000
v -0.368591 0.599549 -0.142349
v -0.395519 0.379912 -0.304970
v -0.375000 0.825000 0.000000
v -0.500000 0.500000 0.250000
v -0.500000 0.250000 0.375000
v -0.500000 0.750000 0.125000
v -0.248825 0.739006 0.115285
v -0.500000 0.125000 0.437500
v -0.500000 0.625000 0.187500
v -0.500000 0.375000 0.312500
v -0.375392 0.500793 0.251169
v -0.372867 0.691365 0.064456
v -0.278377 0.642834 0.198530
v -0.325927 0.385413 0.325927
v -0.391729 0.373893 0.296625
v -0.371823 0.612383 0.165116
v -0.500000 0.000000 -0.500000
v -0.255983 0.535564 -0.255983
v -0.000000 0.825000 -0.000000
v 0.500000 0.500000 0.249999
v 0.500000 0.250000 0.374999
v 0.500000 0.750000 0.124999
v 0.248013 0.731406 0.108568
v 0.500001 0.125000 0.437499
v 0.500000 0.625000 0.187499
v 0.381443 0.513038 0.269225
v 0.500000 0.375000 0.312499
v 0.500000 0.825000 -0.000000
v 0.376544 0.284850 0.376543
v 0.374621 0.739577 0.114237
v 0.273528 0.629867 0.180955
v 0.250000 0.825000 -0.000000
v 0.125000 0.825000 -0.000000
v 0.232520 0.672874 0.232520
v 0.376290 0.630120 0.196583
v 0.396797 0.381943 0.307785
v 0.375000 0.825000 -0.000000
v 0.500000 0.500000 -0.250000
v 0.500000 0.250000 -0.375000
v 0.500000 0.750000 -0.125000
v 0.246995 0.721879 -0.100150
v 0.500000 0.125000 -0.437500
v 0.500000 0.625000 -0.187500
v 0.500000 0.375000 -0.312500
v 0.361942 0.473575 -0.211035
v 0.374509 0.736516 -0.111077
v 0.275091 0.634046 -0.186620
v 0.402703 0.391328 -0.320796
v 0.375061 0.625243 -0.187931
v 0.500001 0.000000 0.499999
v 0.288832 0.567972 0.288832
v -0.453310 0.134398 -0.453309
v -0.224419 0.661534 -0.224419
v -0.118691 0.769070 -0.118691
v 0.249999 0.500000 -0.500000
v 0.374999 0.250000 -0.500000
v 0.124999 0.750000 -0.500000
v 0.112671 0.736049 -0.248510
v 0.437499 0.125000 -0.500001
v 0.187499 0.625000 -0.500000
v 0.190527 0.459668 -0.355071
v 0.312499 0.375000 -0.500000
v -0.000001 0.825000 -0.500000
v 0.389616 0.295421 -0.389617
v 0.329016 0.388549 -0.329016
v 0.108352 0.733878 -0.374414
v 0.194211 0.639647 -0.277186
v -0.000000 0.825000 -0.250000
v -0.000000 0.825000 -0.125000
v 0.193004 0.617561 -0.193005
v 0.145547 0.601352 -0.369045
v 0.311652 0.384733 -0.398553
v -0.000000 0.825000 -0.375000
v -0.250000 0.500000 -0.500000
v -0.375000 0.250000 -0.500000
v -0.125000 0.750000 -0.500000
v -0.114354 0.737952 -0.248713
v -0.437500 0.125000 -0.500000
v -0.187500 0.625000 -0.500000
v -0.312501 0.375000 -0.500000
v -0.276064 0.517676 -0.383734
v -0.122194 0.747283 -0.374901
v -0.175033 0.625497 -0.271894
v -0.311150 0.384370 -0.398324
v -0.186322 0.624336 -0.374833
v 0.499999 0.000000 -0.500001
v 0.270062 0.549454 -0.270063
v 0.127738 0.794361 -0.127738
v 0.432137 0.121048 -0.432138
v 0.459851 0.138523 0.459850
v 0.118094 0.767401 0.118094
v -0.250000 0.500000 0.500000
v -0.375000 0.250000 0.500000
v -0.125000 0.750000 0.500000
v -0.119772 0.744084 0.249368
v -0.437500 0.125000 0.500000
v -0.187500 0.625000 0.500000
v -0.234741 0.489652 0.369887
v -0.312500 0.375000 0.500000
v 0.000000 0.825000 0.500000
v -0.113681 0.739038 0.374601
v -0.164932 0.618044 0.269107
v 0.000000 0.825000 0.250000
v 0.000000 0.825000 0.125000
v -0.146751 0.602031 0.369216
v -0.280705 0.362409 0.384502
v 0.000000 0.825000 0.375000
v 0.250000 0.500000 0.500000
v 0.375000 0.250000 0.500000
v 0.125000 0.750000 0.500000
v 0.106166 0.728687 0.247723
v 0.437500 0.125000 0.500000
v 0.187500 0.625000 0.500000
v 0.312500 0.375000 0.500000
v 0.201950 0.467414 0.358898
v 0.138679 0.763247 0.375482
v 0.174541 0.625134 0.271758
v 0.341116 0.400833 0.341115
v 0.308298 0.382313 0.397029
v 0.153230 0.605682 0.370135
v -0.261589 0.541095 0.261589
vn -0.2608 0.2050 -0.9434
vn 0.3472 0.1506 -0.9256
vn -0.4932 0.8062 -0.3267
vn -0.0000 0.9046 -0.4263
vn 0.3293 0.7941 -0.5109
vn -0.2564 0.7112 -0.6546
vn -0.2578 0.6744 -0.6919
vn 0.0091 0.7748 -0.6322
vn 0.0885 0.4708 -0.8778
vn -0.0000 0.8371 -0.5471
vn 0.3770 0.5474 -0.7471
vn -0.4308 0.7078 0.5598
vn -0.4315 0.3529 0.8302
vn -0.4081 0.6149 0.6748
vn -0.1862 0.4394 0.8788
vn 0.1345 0.4432 0.8863
vn -0.6677 0.3329 0.6658
vn -0.4715 0.3770 0.7972
vn 0.0000 0.8575 0.5145
vn -0.2789 0.5920 0.7561
vn -0.0112 0.4472 0.8944
vn 0.5344 0.3780 0.7560
vn -0.0293 0.6593 0.7513
vn -0.2457 0.7758 0.5812
vn -1.0000 0.0000 0.0000
vn -0.0527 0.5198 0.8527
vn -0.8647 0.3147 -0.3914
vn -0.5161 0.6734 -0.5293
vn -0.4053 0.3948 -0.8245
vn -0.3657 0.4162 -0.8325
vn 0.0000 0.9249 0.3802
vn 0.1846 0.2972 0.9368
vn 0.0833 0.5999 0.7957
vn 0.2697 0.8573 0.4385
vn 0.0000 0.8988 0.4384
vn 0.0839 0.5280 0.8451
vn -0.0788 0.8598 0.5045
vn -0.0733 0.5666 0.8207
vn 0.0016 0.5777 0.8162
vn 0.4044 0.3859 0.8292
vn 0.0000 0.8009 0.5989
vn -0.0779 0.7558 0.6501
vn 0.0392 0.5680 -0.8221
vn 0.0355 0.8060 -0.5908
vn 0.0692 0.5754 -0.8150
vn 0.2895 0.4281 -0.8561
vn 0.1496 0.4422 -0.8844
vn -0.0963 0.4451 -0.8903
vn -0.0000 0.7822 -0.6231
vn -0.1476 0.8481 -0.5089
vn 0.5812 0.0732 -0.8105
vn 0.0039 0.4472 -0.8944
vn -0.1457 0.4424 -0.8849
vn -0.0815 0.6859 -0.7231
vn 0.5056 0.5935 -0.6262
vn 1.0000 0.0000 -0.0000
vn -0.0861 0.7022 -0.7067
vn 0.8163 0.5434 0.1960
vn 0.5668 0.3941 0.7235
vn 0.1677 0.5581 0.8126
vn 0.5441 0.3752 0.7504
vn -0.0000 0.9724 -0.2332
vn 0.5816 0.6901 0.4307
vn 0.9027 0.2670 0.3374
vn 0.8478 0.4284 -0.3126
vn 0.2332 0.9724 0.0000
vn 0.8456 0.3112 0.4336
vn 0.6558 0.5074 -0.5590
vn 0.7575 0.6518 -0.0372
vn 0.7549 0.6534 -0.0564
vn 0.3781 0.4375 -0.8159
vn 0.6436 0.7653 -0.0000
vn 0.6196 0.7842 -0.0348
vn -0.8829 0.4606 0.0916
vn -0.8535 0.2732 -0.4438
vn -0.6124 0.6674 -0.4238
vn -0.8158 0.4079 -0.4101
vn -0.8940 0.4470 -0.0293
vn -0.8325 0.4162 -0.3657
vn -0.5367 0.8438 0.0000
vn -0.5143 0.8571 0.0302
vn -0.7661 0.6420 0.0305
vn -0.8638 0.4319 -0.2593
vn -0.8940 0.4470 0.0298
vn -0.4587 0.4100 -0.7884
vn -0.5942 0.7775 -0.2059
vn -0.0000 -0.0000 -1.0000
vn -0.5194 0.3279 -0.7892
vn 0.7460 0.6415 0.1790
vn 0.7456 0.6288 -0.2207
vn 0.9280 0.2848 -0.2401
vn 0.8903 0.4451 0.0963
vn -0.4263 0.9046 -0.0000
vn -0.9367 0.3228 -0.1355
vn -0.9158 0.2339 -0.3264
vn -0.7967 0.5856 0.1494
vn -0.3802 0.9249 0.0000
vn -0.7433 0.5800 -0.3334
vn -0.6168 0.7521 0.2323
vn -0.9367 0.3449 0.0595
vn -0.5703 0.7848 -0.2426
vn -0.7631 0.4897 0.4218
vn -0.6031 0.7976 0.0000
vn -0.5590 0.8270 0.0605
vn 0.9706 0.0819 0.2265
vn 0.4250 0.7549 0.4995
vn 0.7299 0.3937 0.5588
vn 0.8861 0.4430 0.1361
vn 0.8944 0.4472 -0.0047
vn 0.7504 0.3752 0.5441
vn 0.3848 0.8616 -0.3310
vn 0.5145 0.8575 0.0000
vn 0.5349 0.1205 0.8363
vn 0.8561 0.4281 -0.2896
vn 0.8851 0.4425 0.1443
vn 0.2767 0.3869 0.8796
vn 0.6498 0.7099 0.2718
vn 0.0000 0.0000 1.0000
vn 0.1368 0.5245 0.8403
vn -0.5448 0.6303 0.5531
vn -0.4813 0.6233 0.6163
vn -0.7857 0.5761 0.2256
vn -0.6658 0.3329 0.6677
vn 0.4384 0.8988 0.0000
vn 0.0000 -1.0000 0.0000
vn 0.0434 0.4468 -0.8936
vn 0.0437 0.4468 -0.8936
vn -0.8454 0.4604 -0.2709
vn -0.4495 0.5063 -0.7359
vn -0.2772 0.4297 -0.8594
vn -0.0249 0.8603 -0.5091
vn 0.3050 0.1509 -0.9403
vn -0.4101 0.4079 -0.8158
vn -0.5368 0.2029 -0.8190
vn 0.0443 0.8567 -0.5140
vn -0.4881 0.6521 0.5801
vn -0.2393 0.4536 0.8585
vn 0.1099 0.7053 0.7003
vn -0.0110 0.3385 0.9409
vn -0.2256 0.5761 0.7857
vn 0.0000 0.8016 0.5979
vn 0.5337 0.3743 0.7583
vn -0.4244 0.4254 0.7993
vn 0.1947 0.5951 0.7797
vn 0.1820 0.7745 0.6058
vn -0.2052 0.6038 0.7703
vn -0.0108 0.4472 0.8944
vn -0.1132 0.4443 0.8887
vn 0.8457 0.4339 0.3106
vn 0.2492 0.7313 0.6350
vn 0.1907 0.4390 0.8780
vn 0.4471 0.4857 0.7511
vn -0.1222 0.5955 0.7940
vn 0.1361 0.4430 0.8861
vn 0.5623 0.2933 0.7732
vn -0.1147 0.8518 0.5111
vn -0.1395 0.6717 -0.7276
vn 0.7161 0.4560 -0.5285
vn 0.1633 0.5604 -0.8120
vn -0.3149 0.6997 -0.6413
vn 0.2401 0.2848 -0.9280
vn -0.1401 0.6919 -0.7082
vn 0.0523 0.6997 -0.7125
vn -0.2975 0.1689 -0.9397
vn 0.0039 0.5683 -0.8228
vn 0.4521 0.4510 -0.7695
vn 0.8939 0.4469 -0.0354
vn 0.8809 0.4404 0.1733
vn 0.7768 0.6064 0.1702
vn 0.5673 0.7117 -0.4144
vn 0.8396 0.4198 0.3448
vn 0.6501 0.1326 -0.7482
vn 0.8249 0.2103 -0.5247
vn 0.8561 0.4281 -0.2895
vn 0.4750 0.8642 -0.1660
vn 0.5065 0.8442 0.1755
vn -0.8841 0.4587 0.0889
vn -0.8746 0.4797 0.0703
vn -0.6769 0.7337 -0.0586
vn -0.9294 0.2719 -0.2497
vn -0.8245 0.3948 -0.4053
vn -0.6022 0.7925 0.0960
vn -0.7348 0.6743 0.0730
vn -0.7656 0.6433 0.0106
vn -0.8866 0.4624 0.0108
vn -0.5884 0.7817 -0.2067
vn -0.8579 0.4289 -0.2829
vn -0.8881 0.4440 -0.1190
vn -0.7256 0.3525 0.5909
vn -0.5490 0.8111 0.2020
vn -0.8857 0.4429 -0.1391
vn -0.7062 0.5555 0.4390
vn -0.9526 0.2217 0.2085
vn -0.8788 0.4394 0.1862
vn -0.6839 0.3222 0.6546
vn -0.5107 0.8512 -0.1205
vn 0.8203 0.4640 -0.3343
vn 0.2885 0.3669 0.8844
vn 0.8198 0.5726 0.0072
vn 0.6575 0.6536 -0.3748
vn 0.8126 0.5581 0.1677
vn 0.6719 0.7406 -0.0000
vn 0.4024 0.9046 0.1404
vn 0.4005 0.8785 0.2605
vn 0.8655 0.3352 -0.3722
vn 0.9586 0.0976 -0.2675
vn 0.4155 0.8603 0.2952
usemtl None
s off
f 22//1 6//1 12//1
f 11//2 17//2 21//2
f 73//3 9//3 74//3
f 74//4 19//4 20//4
f 12//5 11//5 21//5
f 38//6 21//6 18//6
f 21//7 9//7 18//7
f 15//8 13//8 22//8
f 16//9 12//9 38//9
f 17//10 14//10 23//10
f 17//11 19//11 9//11
f 33//12 32//12 36//12
f 34//13 31//13 35//13
f 34//14 35//14 4//14
f 4//15 30//15 25//15
f 35//16 24//16 30//16
f 1//17 28//17 3//17
f 1//17 25//17 28//17
f 27//18 23//18 32//18
f 26//19 23//19 14//19
f 141//20 36//20 31//20
f 31//21 29//21 24//21
f 29//22 32//22 26//22
f 2//23 27//23 33//23
f 74//4 20//4 39//4
f 5//24 19//24 27//24
f 11//25 6//25 29//25
f 2//26 33//26 141//26
f 18//27 73//27 38//27
f 16//28 15//28 22//28
f 72//29 7//29 15//29
f 37//30 10//30 72//30
f 20//31 5//31 39//31
f 56//32 40//32 46//32
f 45//33 50//33 55//33
f 54//34 43//34 111//34
f 111//35 52//35 53//35
f 46//36 45//36 55//36
f 71//37 55//37 51//37
f 51//38 50//38 43//38
f 49//39 47//39 56//39
f 138//40 46//40 71//40
f 50//41 48//41 57//41
f 50//42 52//42 43//42
f 67//43 66//43 69//43
f 85//44 65//44 68//44
f 85//45 68//45 84//45
f 84//46 64//46 59//46
f 68//47 58//47 64//47
f 109//48 62//48 106//48
f 109//48 59//48 62//48
f 66//49 52//49 57//49
f 66//50 48//50 60//50
f 107//51 69//51 65//51
f 58//52 69//52 63//52
f 63//53 66//53 60//53
f 90//54 61//54 67//54
f 111//35 53//35 39//35
f 108//55 52//55 61//55
f 60//56 48//56 42//56
f 90//57 67//57 107//57
f 51//58 54//58 71//58
f 138//59 49//59 56//59
f 110//60 41//60 49//60
f 70//61 44//61 110//61
f 53//62 108//62 39//62
f 92//63 75//63 81//63
f 80//64 86//64 91//64
f 90//65 78//65 108//65
f 108//66 88//66 89//66
f 75//67 91//67 81//67
f 107//68 91//68 87//68
f 87//69 86//69 78//69
f 84//70 82//70 92//70
f 85//71 81//71 107//71
f 86//72 83//72 93//72
f 86//73 88//73 78//73
f 103//74 102//74 105//74
f 16//75 101//75 104//75
f 16//76 104//76 15//76
f 15//77 100//77 95//77
f 104//78 94//78 100//78
f 72//79 98//79 37//79
f 72//79 95//79 98//79
f 102//80 88//80 93//80
f 102//81 83//81 96//81
f 38//82 105//82 101//82
f 101//83 99//83 94//83
f 99//84 102//84 96//84
f 73//85 97//85 103//85
f 108//66 89//66 39//66
f 74//86 88//86 97//86
f 80//87 75//87 99//87
f 73//88 103//88 38//88
f 87//89 90//89 107//89
f 85//90 84//90 92//90
f 109//91 76//91 84//91
f 106//92 79//92 109//92
f 89//93 74//93 39//93
f 126//94 112//94 118//94
f 117//95 121//95 125//95
f 2//96 115//96 5//96
f 5//97 123//97 124//97
f 118//98 117//98 125//98
f 141//99 125//99 122//99
f 122//100 121//100 115//100
f 4//101 119//101 126//101
f 34//102 118//102 141//102
f 121//103 120//103 127//103
f 121//104 123//104 115//104
f 137//105 136//105 140//105
f 138//106 135//106 139//106
f 138//107 139//107 49//107
f 49//108 134//108 129//108
f 139//109 128//109 134//109
f 110//110 132//110 70//110
f 110//110 129//110 132//110
f 131//111 127//111 136//111
f 130//112 127//112 120//112
f 71//113 140//113 135//113
f 128//114 140//114 133//114
f 133//115 136//115 130//115
f 54//116 131//116 137//116
f 5//97 124//97 39//97
f 111//117 123//117 131//117
f 133//118 130//118 114//118
f 54//119 137//119 71//119
f 122//120 2//120 141//120
f 34//121 4//121 126//121
f 1//122 113//122 4//122
f 3//123 116//123 1//123
f 124//124 111//124 39//124
f 106//125 3//125 37//125
f 22//126 13//126 6//126
f 11//127 8//127 17//127
f 73//128 18//128 9//128
f 74//129 9//129 19//129
f 12//130 6//130 11//130
f 38//131 12//131 21//131
f 21//132 17//132 9//132
f 15//133 7//133 13//133
f 16//134 22//134 12//134
f 17//135 8//135 14//135
f 17//10 23//10 19//10
f 33//136 27//136 32//136
f 34//137 141//137 31//137
f 4//138 35//138 30//138
f 35//139 31//139 24//139
f 1//140 4//140 25//140
f 27//141 19//141 23//141
f 26//142 32//142 23//142
f 141//143 33//143 36//143
f 31//144 36//144 29//144
f 29//145 36//145 32//145
f 2//146 5//146 27//146
f 5//31 20//31 19//31
f 10//25 37//25 3//25
f 3//25 28//25 10//25
f 28//25 25//25 10//25
f 25//25 30//25 13//25
f 30//25 24//25 13//25
f 13//25 7//25 25//25
f 7//25 10//25 25//25
f 29//25 26//25 8//25
f 26//25 14//25 8//25
f 24//25 29//25 6//25
f 13//25 24//25 6//25
f 8//25 11//25 29//25
f 72//30 10//30 7//30
f 56//147 47//147 40//147
f 45//148 42//148 50//148
f 54//149 51//149 43//149
f 111//150 43//150 52//150
f 46//151 40//151 45//151
f 71//152 46//152 55//152
f 51//153 55//153 50//153
f 49//154 41//154 47//154
f 138//155 56//155 46//155
f 50//156 42//156 48//156
f 50//41 57//41 52//41
f 67//157 61//157 66//157
f 85//158 107//158 65//158
f 84//159 68//159 64//159
f 68//160 65//160 58//160
f 109//161 84//161 59//161
f 66//162 61//162 52//162
f 66//49 57//49 48//49
f 107//163 67//163 69//163
f 58//164 65//164 69//164
f 63//165 69//165 66//165
f 90//166 108//166 61//166
f 108//62 53//62 52//62
f 44//56 70//56 62//56
f 70//56 106//56 62//56
f 41//56 44//56 62//56
f 59//56 64//56 47//56
f 64//56 58//56 47//56
f 41//56 62//56 59//56
f 45//56 40//56 63//56
f 40//56 47//56 58//56
f 63//56 40//56 58//56
f 47//56 41//56 59//56
f 63//56 60//56 45//56
f 42//56 45//56 60//56
f 110//61 44//61 41//61
f 92//167 82//167 75//167
f 80//168 77//168 86//168
f 90//169 87//169 78//169
f 108//170 78//170 88//170
f 75//171 80//171 91//171
f 107//172 81//172 91//172
f 87//173 91//173 86//173
f 84//174 76//174 82//174
f 85//175 92//175 81//175
f 86//176 77//176 83//176
f 86//72 93//72 88//72
f 103//177 97//177 102//177
f 16//178 38//178 101//178
f 15//179 104//179 100//179
f 104//180 101//180 94//180
f 72//181 15//181 95//181
f 102//182 97//182 88//182
f 102//80 93//80 83//80
f 38//183 103//183 105//183
f 101//184 105//184 99//184
f 99//185 105//185 102//185
f 73//186 74//186 97//186
f 74//93 89//93 88//93
f 79//87 106//87 37//87
f 37//87 98//87 79//87
f 98//87 95//87 79//87
f 95//87 100//87 82//87
f 100//87 94//87 82//87
f 99//87 96//87 77//87
f 96//87 83//87 77//87
f 94//87 99//87 75//87
f 82//87 94//87 75//87
f 82//87 76//87 95//87
f 76//87 79//87 95//87
f 77//87 80//87 99//87
f 109//92 79//92 76//92
f 126//187 119//187 112//187
f 117//188 114//188 121//188
f 2//189 122//189 115//189
f 5//190 115//190 123//190
f 118//191 112//191 117//191
f 141//192 118//192 125//192
f 122//193 125//193 121//193
f 4//194 113//194 119//194
f 34//195 126//195 118//195
f 121//196 114//196 120//196
f 121//103 127//103 123//103
f 137//197 131//197 136//197
f 138//198 71//198 135//198
f 49//199 139//199 134//199
f 139//200 135//200 128//200
f 110//201 49//201 129//201
f 131//202 123//202 127//202
f 130//203 136//203 127//203
f 71//204 137//204 140//204
f 128//205 135//205 140//205
f 133//206 140//206 136//206
f 54//207 111//207 131//207
f 111//124 124//124 123//124
f 116//118 3//118 70//118
f 116//118 70//118 132//118
f 113//118 116//118 132//118
f 129//118 134//118 119//118
f 134//118 128//118 119//118
f 113//118 132//118 129//118
f 117//118 112//118 128//118
f 112//118 119//118 128//118
f 119//118 113//118 129//118
f 128//118 133//118 117//118
f 120//118 114//118 130//118
f 114//118 117//118 133//118
f 1//123 116//123 113//123
f 106//125 70//125 3//125
