# Blender v2.79 (sub 0) OBJ File: 'allinoneblend.blend'
# www.blender.org
mtllib single_edge_270.mtl
o Cube.001_Cube.005
v 0.500000 0.000000 -0.500000
v 0.500000 1.000000 -0.500000
v 0.500000 0.000000 0.500000
v 0.500000 1.000000 -0.000000
v -0.500000 0.000000 0.500000
v 0.500000 0.500000 0.250000
v 0.000000 0.000000 0.500000
v 0.012485 0.892251 -0.012485
v 0.023838 0.470272 0.232479
v 0.500000 0.250000 0.375000
v 0.250000 0.000000 0.500000
v 0.500000 0.750000 0.125000
v -0.250000 0.000000 0.500000
v 0.250000 1.000000 -0.000000
v 0.254237 0.501897 0.262280
v 0.013397 0.224316 0.344353
v 0.047131 0.676563 0.071560
v 0.254840 0.753909 0.149019
v 0.251834 0.255562 0.389087
v -0.205592 0.187288 0.324644
v 0.500000 0.125000 0.437500
v 0.375000 0.000000 0.500000
v 0.500000 0.625000 0.187500
v -0.125000 0.000000 0.500000
v 0.125000 1.000000 -0.000000
v 0.137227 0.483112 0.237485
v 0.006822 0.103989 0.407225
v 0.025637 0.597438 0.184962
v 0.500000 0.375000 0.312500
v 0.125000 0.000000 0.500000
v 0.500000 0.875000 0.062500
v -0.375000 0.000000 0.500000
v 0.375000 1.000000 -0.000000
v -0.085742 0.449806 0.223711
v 0.377694 0.480567 0.214908
v 0.014104 0.367321 0.320891
v 0.040265 0.811686 0.046969
v 0.140505 0.728525 0.121475
v 0.377840 0.742075 0.114569
v 0.257703 0.608865 0.168804
v 0.130247 0.243712 0.370582
v 0.375429 0.264975 0.405817
v 0.251318 0.110412 0.410534
v 0.252665 0.383128 0.333747
v -0.104309 0.228189 0.363661
v -0.226994 0.098161 0.416233
v -0.184463 0.308212 0.263239
v -0.061650 0.556728 0.143434
v -0.094474 0.344690 0.298565
v -0.113684 0.112956 0.429542
v -0.332778 0.096588 0.417046
v 0.376520 0.365677 0.296138
v 0.375344 0.125737 0.439492
v 0.127522 0.122342 0.435947
v 0.377035 0.869253 0.055048
v 0.376692 0.631682 0.205259
v 0.140504 0.604617 0.176501
v 0.144927 0.844685 0.039448
v 0.134460 0.357406 0.292099
v -0.500000 0.000000 -0.500000
v -0.000000 1.000000 -0.500000
v -0.500000 0.000000 0.000000
v -0.250000 0.500000 -0.500000
v -0.211299 0.457337 -0.028734
v -0.500000 0.000000 0.250000
v -0.000000 1.000000 -0.250000
v -0.375000 0.250000 -0.500000
v -0.500000 0.000000 -0.250000
v -0.125000 0.750000 -0.500000
v -0.218995 0.479328 -0.256622
v -0.191563 0.399400 0.191563
v -0.348329 0.226607 -0.013002
v -0.085848 0.685351 -0.040926
v -0.335908 0.196330 0.209521
v -0.371455 0.246486 -0.252233
v -0.123572 0.741205 -0.256996
v -0.500000 0.000000 0.375000
v -0.000000 1.000000 -0.375000
v -0.437500 0.125000 -0.500000
v -0.500000 0.000000 -0.125000
v -0.187500 0.625000 -0.500000
v -0.273923 0.510511 -0.376165
v -0.218697 0.446227 0.083602
v -0.443308 0.124462 -0.005103
v -0.146594 0.572995 -0.038206
v -0.500000 0.000000 0.125000
v -0.000000 1.000000 -0.125000
v -0.312500 0.375000 -0.500000
v -0.500000 0.000000 -0.375000
v -0.062500 0.875000 -0.500000
v -0.274899 0.503752 -0.132833
v -0.286010 0.346594 -0.019687
v -0.032897 0.804191 -0.047537
v -0.092381 0.664060 0.092381
v -0.364430 0.228695 0.104455
v -0.335639 0.179775 0.335639
v -0.431075 0.110096 0.229630
v -0.279044 0.321164 0.191928
v -0.354808 0.239206 -0.375965
v -0.373019 0.245016 -0.130128
v -0.402584 0.106339 -0.251403
v -0.325625 0.378916 -0.252968
v -0.102281 0.735956 -0.378288
v -0.114502 0.724850 -0.142019
v -0.178664 0.613982 -0.256970
v -0.075081 0.873736 -0.254910
v -0.039149 0.844552 -0.145006
v -0.147992 0.588797 -0.145214
v -0.199545 0.628792 -0.376886
v -0.300111 0.361760 -0.133821
v -0.461372 0.135815 -0.126931
v -0.428003 0.119944 -0.375400
v -0.420410 0.100057 0.333532
v -0.420375 0.107049 0.112834
v -0.134383 0.550032 0.056963
v -0.272909 0.326900 0.086639
v -0.323931 0.379756 -0.376034
v -0.036978 0.860509 -0.377487
v -0.248677 0.304532 0.248677
v -0.392800 0.087531 0.392800
v -0.101419 0.525819 0.101419
v -0.004725 0.782634 0.004725
v 0.257044 0.857522 0.039350
vn 0.2303 0.6214 0.7489
vn -0.1187 0.5628 0.8180
vn -0.0092 0.8209 0.5710
vn -0.3121 0.1224 0.9421
vn -0.2711 0.4574 0.8470
vn -0.2417 0.1427 0.9598
vn 0.3159 0.4861 0.8148
vn -0.1730 0.7258 0.6658
vn -0.4861 0.5164 0.7051
vn -0.1765 0.6161 0.7676
vn -0.5079 0.2471 0.8252
vn -0.4752 0.4630 0.7482
vn 0.1578 0.4715 0.8676
vn -0.2779 0.5724 0.7714
vn 0.0000 0.6491 0.7607
vn 0.0000 0.5292 0.8485
vn 0.1943 0.4749 0.8583
vn 0.0000 0.6515 0.7586
vn -0.0049 0.6993 0.7148
vn -0.1527 0.3941 0.9063
vn 0.2481 0.7124 0.6565
vn -0.1505 0.4421 0.8842
vn 0.0000 0.4336 0.9011
vn 0.0169 0.4471 0.8943
vn 0.0000 0.6657 0.7462
vn 0.0000 0.4638 0.8859
vn 0.2209 0.4586 0.8607
vn -0.1043 0.4210 0.9010
vn -0.0738 0.3860 0.9195
vn 0.3744 0.6032 0.7042
vn -0.2840 0.0592 0.9570
vn 0.1442 0.6273 0.7653
vn -0.0808 0.3499 0.9333
vn -0.2532 0.4394 0.8619
vn 0.0453 0.4055 0.9130
vn -0.5217 0.1270 0.8436
vn -0.2412 0.1583 0.9575
vn -0.1777 0.5635 0.8068
vn -0.3796 0.3757 0.8454
vn -0.9427 0.2459 0.2255
vn -0.9294 0.3554 -0.0993
vn -0.8928 0.4103 0.1860
vn -0.9390 0.2869 0.1897
vn -0.8774 0.4195 0.2326
vn -0.6802 0.7196 0.1394
vn -0.8911 0.4456 0.0860
vn -0.6970 0.5505 -0.4595
vn -0.9586 0.1686 0.2295
vn -0.7379 0.6685 -0.0928
vn -0.9267 0.2210 0.3041
vn -0.8001 0.4608 0.3840
vn -0.8362 0.5299 0.1413
vn -0.8330 0.3928 0.3896
vn -0.9003 0.3786 0.2145
vn -0.5385 0.7467 -0.3905
vn -0.6746 0.4267 0.6024
vn -0.8759 0.4755 0.0817
vn -0.8292 0.5202 -0.2043
vn -0.8513 0.2562 0.4580
vn -0.8983 0.3890 0.2045
vn -0.8482 0.5296 -0.0045
vn -0.8531 0.4571 0.2517
vn -0.8096 0.5604 0.1745
vn -0.9619 0.2736 0.0000
vn -0.9100 0.4145 0.0000
vn -0.7152 0.6781 0.1692
vn -0.8574 0.5147 0.0000
vn -0.9523 0.2128 0.2186
vn -0.7826 0.6225 0.0000
vn -0.8024 0.5968 0.0000
vn -0.8476 0.5306 0.0000
vn -0.6786 0.7300 -0.0812
vn -0.7747 0.6322 0.0115
vn -0.7370 0.6664 -0.1129
vn -0.8300 0.4284 0.3573
vn -0.6666 0.7454 0.0018
vn -0.9616 0.2113 0.1749
vn -0.9667 0.2123 -0.1426
vn -0.9340 0.3572 -0.0104
vn -0.8657 0.4525 0.2138
vn -0.9234 0.3406 -0.1768
vn -0.9170 0.2487 -0.3119
vn -0.1565 0.3812 0.9112
vn 0.2542 0.7005 0.6669
vn -0.3093 0.5564 0.7712
vn -0.0295 0.2647 0.9639
vn 1.0000 0.0000 -0.0000
vn 0.0000 1.0000 0.0000
vn 0.0000 0.0000 -1.0000
vn 0.0000 -1.0000 0.0000
vn -0.8210 0.2121 0.5301
vn -0.7389 0.2162 0.6382
vn 0.0735 0.5571 0.8272
vn -0.7486 0.3644 0.5539
vn -0.7754 0.0915 0.6248
vn -0.7560 0.0918 0.6481
vn -0.4914 0.7100 0.5043
vn -0.4849 0.5652 0.6674
vn -0.5768 0.6473 0.4983
vn -0.2101 0.5940 0.7765
vn 0.0384 0.5533 0.8321
vn -0.7468 0.4136 0.5208
vn -0.6245 0.6527 0.4289
vn -0.3681 0.6438 0.6708
vn 0.0000 0.7746 0.6325
vn -0.6325 0.7746 0.0000
vn -0.0855 0.3986 0.9131
vn -0.2948 0.1995 0.9345
vn -0.5813 0.3303 0.7436
vn 0.2676 0.6100 0.7459
vn -0.2665 0.4616 0.8461
vn -0.1478 0.2326 0.9613
vn 0.3820 0.5309 0.7564
vn -0.4755 0.4655 0.7465
vn -0.4690 0.5378 0.7005
vn -0.5214 0.3051 0.7969
vn 0.0122 0.8190 0.5737
vn -0.4796 0.4585 0.7482
vn -0.2305 0.1586 0.9601
vn -0.1805 0.6506 0.7377
vn -0.1671 0.5338 0.8289
vn 0.1851 0.6474 0.7393
vn 0.1589 0.4504 0.8786
vn -0.0038 0.6496 0.7602
vn 0.0179 0.7145 0.6994
vn 0.2956 0.7022 0.6477
vn -0.1506 0.4421 0.8842
vn -0.3099 0.5510 0.7748
vn -0.2508 0.6112 0.7507
vn 0.2595 0.2269 0.9387
vn -0.2709 0.4509 0.8505
vn 0.2151 0.6133 0.7600
vn -0.1627 0.1448 0.9760
vn -0.0749 0.4460 0.8919
vn 0.0000 0.4472 0.8944
vn -0.3027 0.0587 0.9513
vn 0.1513 0.4421 0.8841
vn -0.1048 0.4448 0.8895
vn 0.0379 0.4474 0.8935
vn 0.0256 0.6573 0.7532
vn -0.2586 0.1255 0.9578
vn -0.1234 0.5756 0.8084
vn 0.2372 0.5459 0.8036
vn -0.3793 0.3703 0.8479
vn -0.2556 0.5009 0.8269
vn -0.8944 0.4472 -0.0000
vn -0.8752 0.4376 -0.2062
vn -0.8290 0.5593 0.0007
vn -0.8788 0.4760 0.0329
vn -0.7320 0.6720 -0.1123
vn -0.6565 0.7477 0.0996
vn -0.8378 0.5150 0.1812
vn -0.9762 0.2168 -0.0099
vn -0.6314 0.6554 -0.4145
vn -0.8738 0.4369 0.2135
vn -0.9101 0.3941 0.1279
vn -0.9697 0.2442 -0.0000
vn -0.8746 0.3142 0.3694
vn -0.8126 0.5182 0.2667
vn -0.9353 0.1978 0.2932
vn -0.9101 0.2734 0.3114
vn -0.5432 0.8295 0.1296
vn -0.9137 0.2168 0.3437
vn -0.8899 0.4449 -0.1008
vn -0.8274 0.5215 0.2085
vn -0.7323 0.6626 -0.1572
vn -0.9165 0.3185 0.2421
vn -0.8330 0.5257 0.1728
vn -0.8156 0.1409 0.5612
vn -0.6601 0.5988 -0.4536
vn -0.9479 0.2720 0.1659
vn -0.7483 0.6128 0.2541
vn -0.7179 0.6606 0.2196
vn -0.8437 0.5171 -0.1439
vn -0.8279 0.5437 0.1375
vn -0.8816 0.4111 0.2321
vn -0.8040 0.5879 -0.0890
vn -0.8400 0.4107 0.3546
vn -0.8421 0.4896 0.2262
vn -0.8665 0.4607 0.1921
vn -0.7321 0.6812 -0.0055
vn -0.8384 0.3906 0.3801
vn -0.8900 0.4450 -0.0991
vn -0.9450 0.3270 -0.0108
vn -0.6043 0.6580 0.4493
vn -0.8699 0.4349 0.2327
vn -0.8414 0.4431 -0.3094
vn -0.8595 0.5111 -0.0000
vn 0.0000 0.2662 0.9639
vn -0.1579 0.4177 0.8947
vn -0.0824 0.7252 0.6835
vn 0.0000 0.2462 0.9692
vn -0.5911 0.5488 0.5911
vn -0.7121 0.0905 0.6962
vn -0.7805 0.6222 0.0611
vn -0.7865 0.4742 0.3956
vn -0.5482 0.7082 0.4449
vn -0.2206 0.4720 0.8536
vn -0.7901 0.6075 0.0814
vn -0.3574 0.6935 0.6256
vn -0.6135 0.6647 0.4263
usemtl None
s off
f 59//1 9//1 36//1
f 58//2 8//2 37//2
f 57//3 17//3 28//3
f 56//4 18//4 40//4
f 54//5 16//5 27//5
f 53//6 19//6 43//6
f 52//7 15//7 44//7
f 50//8 20//8 46//8
f 49//9 71//9 47//9
f 9//10 48//10 34//10
f 28//11 94//11 48//11
f 45//12 47//12 20//12
f 16//13 49//13 45//13
f 36//14 34//14 49//14
f 24//15 46//15 13//15
f 7//16 50//16 24//16
f 27//17 45//17 50//17
f 13//18 51//18 32//18
f 46//19 96//19 51//19
f 42//20 44//20 19//20
f 10//21 52//21 42//21
f 6//22 52//22 29//22
f 53//23 11//23 22//23
f 3//23 53//23 22//23
f 10//24 53//24 21//24
f 30//25 27//25 7//25
f 11//26 54//26 30//26
f 43//27 41//27 54//27
f 12//28 55//28 39//28
f 31//29 33//29 55//29
f 35//30 40//30 15//30
f 6//31 56//31 35//31
f 23//32 39//32 56//32
f 26//33 28//33 9//33
f 15//34 57//34 26//34
f 40//35 38//35 57//35
f 38//36 37//36 17//36
f 41//37 36//37 16//37
f 19//38 59//38 41//38
f 44//39 26//39 59//39
f 78//40 90//40 118//40
f 82//41 88//41 117//41
f 83//42 92//42 116//42
f 94//43 85//43 115//43
f 95//44 84//44 114//44
f 96//45 97//45 113//45
f 112//46 67//46 79//46
f 100//47 101//47 111//47
f 91//48 102//48 110//48
f 103//49 81//49 109//49
f 104//50 105//50 108//50
f 107//51 66//51 106//51
f 107//52 76//52 104//52
f 93//53 104//53 73//53
f 8//54 107//54 93//54
f 108//55 70//55 91//55
f 85//56 91//56 64//56
f 73//57 108//57 85//57
f 109//58 63//58 82//58
f 105//59 82//59 70//59
f 76//60 109//60 105//60
f 110//61 75//61 100//61
f 92//62 100//62 72//62
f 64//63 110//63 92//63
f 111//64 68//64 80//64
f 84//65 80//65 62//65
f 72//66 111//66 84//66
f 112//67 60//67 89//67
f 68//67 112//67 89//67
f 75//68 112//68 101//68
f 113//69 65//69 77//69
f 114//70 62//70 86//70
f 97//71 86//71 65//71
f 74//72 114//72 97//72
f 115//73 64//73 83//73
f 116//74 72//74 95//74
f 98//75 95//75 74//75
f 71//76 116//76 98//76
f 117//77 67//77 99//77
f 75//78 117//78 99//78
f 102//79 82//79 117//79
f 118//80 69//80 103//80
f 106//81 103//81 76//81
f 106//82 78//82 118//82
f 33//83 123//83 55//83
f 39//84 123//84 18//84
f 18//85 58//85 38//85
f 14//86 58//86 123//86
f 29//87 10//87 1//87
f 25//88 14//88 87//88
f 69//89 90//89 2//89
f 32//90 77//90 65//90
f 93//91 122//91 8//91
f 8//92 122//92 37//92
f 17//93 122//93 94//93
f 73//94 122//94 93//94
f 115//95 121//95 94//95
f 48//96 94//96 121//96
f 34//97 121//97 71//97
f 83//98 121//98 115//98
f 98//99 119//99 71//99
f 47//100 71//100 119//100
f 20//101 119//101 96//101
f 74//102 119//102 98//102
f 113//103 120//103 96//103
f 51//104 96//104 120//104
f 32//105 120//105 5//105
f 120//106 77//106 5//106
f 59//107 26//107 9//107
f 58//108 25//108 8//108
f 57//109 38//109 17//109
f 56//110 39//110 18//110
f 54//111 41//111 16//111
f 53//112 42//112 19//112
f 52//113 35//113 15//113
f 50//114 45//114 20//114
f 49//115 34//115 71//115
f 9//116 28//116 48//116
f 28//117 17//117 94//117
f 45//118 49//118 47//118
f 16//119 36//119 49//119
f 36//120 9//120 34//120
f 24//121 50//121 46//121
f 7//122 27//122 50//122
f 27//123 16//123 45//123
f 13//124 46//124 51//124
f 46//125 20//125 96//125
f 42//126 52//126 44//126
f 10//127 29//127 52//127
f 6//128 35//128 52//128
f 53//129 43//129 11//129
f 3//24 21//24 53//24
f 10//130 42//130 53//130
f 30//131 54//131 27//131
f 11//132 43//132 54//132
f 43//133 19//133 41//133
f 12//134 31//134 55//134
f 31//135 4//135 33//135
f 35//136 56//136 40//136
f 6//137 23//137 56//137
f 23//138 12//138 39//138
f 26//139 57//139 28//139
f 15//140 40//140 57//140
f 40//141 18//141 38//141
f 38//142 58//142 37//142
f 41//143 59//143 36//143
f 19//144 44//144 59//144
f 44//145 15//145 26//145
f 78//146 61//146 90//146
f 82//147 63//147 88//147
f 83//148 64//148 92//148
f 94//149 73//149 85//149
f 95//150 72//150 84//150
f 96//151 74//151 97//151
f 112//152 99//152 67//152
f 100//153 75//153 101//153
f 91//154 70//154 102//154
f 103//155 69//155 81//155
f 104//156 76//156 105//156
f 107//157 87//157 66//157
f 107//158 106//158 76//158
f 93//159 107//159 104//159
f 8//160 87//160 107//160
f 108//161 105//161 70//161
f 85//162 108//162 91//162
f 73//163 104//163 108//163
f 109//164 81//164 63//164
f 105//165 109//165 82//165
f 76//166 103//166 109//166
f 110//167 102//167 75//167
f 92//168 110//168 100//168
f 64//169 91//169 110//169
f 111//170 101//170 68//170
f 84//171 111//171 80//171
f 72//172 100//172 111//172
f 112//46 79//46 60//46
f 68//173 101//173 112//173
f 75//174 99//174 112//174
f 113//175 97//175 65//175
f 114//176 84//176 62//176
f 97//177 114//177 86//177
f 74//178 95//178 114//178
f 115//179 85//179 64//179
f 116//180 92//180 72//180
f 98//181 116//181 95//181
f 71//182 83//182 116//182
f 117//183 88//183 67//183
f 75//184 102//184 117//184
f 102//185 70//185 82//185
f 118//186 90//186 69//186
f 106//187 118//187 103//187
f 106//188 66//188 78//188
f 33//189 14//189 123//189
f 39//190 55//190 123//190
f 18//191 123//191 58//191
f 14//192 25//192 58//192
f 21//87 3//87 1//87
f 1//87 2//87 12//87
f 2//87 4//87 31//87
f 31//87 12//87 2//87
f 12//87 23//87 1//87
f 10//87 21//87 1//87
f 23//87 6//87 1//87
f 6//87 29//87 1//87
f 4//88 2//88 33//88
f 2//88 61//88 78//88
f 78//88 66//88 2//88
f 66//88 87//88 14//88
f 14//88 2//88 66//88
f 14//88 33//88 2//88
f 8//193 25//193 87//193
f 2//89 1//89 69//89
f 1//89 60//89 79//89
f 79//89 67//89 1//89
f 67//89 88//89 1//89
f 1//89 88//89 63//89
f 90//89 61//89 2//89
f 63//89 81//89 1//89
f 81//89 69//89 1//89
f 1//90 3//90 22//90
f 22//90 11//90 1//90
f 11//90 30//90 1//90
f 80//90 30//90 62//90
f 60//90 1//90 89//90
f 89//90 1//90 68//90
f 80//90 68//90 1//90
f 80//90 1//90 30//90
f 30//90 7//90 62//90
f 62//90 7//90 86//90
f 24//90 13//90 65//90
f 13//90 32//90 65//90
f 24//90 65//90 86//90
f 7//90 24//90 86//90
f 32//90 5//90 77//90
f 17//194 37//194 122//194
f 73//195 94//195 122//195
f 34//196 48//196 121//196
f 83//197 71//197 121//197
f 20//198 47//198 119//198
f 74//199 96//199 119//199
f 32//200 51//200 120//200
f 120//201 113//201 77//201
