# Blender v2.79 (sub 0) OBJ File: 'single_edge.blend'
# www.blender.org
mtllib single_edge.mtl
o Cube.000
v 0.500000 0.000000 -0.500000
v -0.500000 1.000000 0.500000
v 0.500000 1.000000 0.500000
v 0.500000 1.000000 0.000000
v 0.500000 0.500000 -0.250000
v 0.500000 0.750000 -0.125000
v 0.250000 1.000000 0.000000
v 0.500000 0.250000 -0.375000
v 0.250000 0.750000 -0.081786
v 0.500000 0.875000 -0.062500
v 0.375000 1.000000 0.000000
v 0.500000 0.375000 -0.312500
v 0.375000 0.500000 -0.311046
v 0.500000 0.625000 -0.187500
v 0.125000 1.000000 0.000000
v 0.500000 0.125000 -0.437500
v 0.376810 0.250000 -0.361372
v 0.375000 0.750000 -0.077232
v 0.110785 0.750000 -0.123175
v 0.250000 0.625000 -0.132859
v 0.250000 0.875000 -0.099682
v 0.120146 0.875000 -0.131974
v 0.135612 0.625000 -0.125519
v 0.375000 0.625000 -0.205203
v 0.407299 0.125000 -0.392206
v 0.370520 0.375000 -0.325084
v 0.375000 0.875000 -0.039560
v 0.500000 0.000000 0.500000
v -0.500000 -0.000000 0.500000
v -0.500000 -0.000000 -0.500000
v -0.000000 1.000000 -0.500000
v -0.500000 1.000000 -0.500000
v -0.000000 1.000000 -0.000000
v 0.250000 0.500000 -0.500000
v 0.125000 0.750000 -0.500000
v -0.000000 1.000000 -0.250000
v 0.375000 0.250000 -0.500000
v 0.084432 0.750000 -0.250000
v 0.062500 0.875000 -0.500000
v -0.000000 1.000000 -0.125000
v 0.312500 0.375000 -0.500000
v 0.187500 0.625000 -0.500000
v -0.000000 1.000000 -0.375000
v 0.437500 0.125000 -0.500000
v 0.243619 0.500000 -0.375000
v 0.088601 0.750000 -0.375000
v 0.133964 0.625000 -0.250000
v 0.100403 0.875000 -0.250000
v 0.310579 0.354564 -0.375000
v 0.110891 0.875000 -0.375000
v 0.130696 0.625000 -0.375000
v 0.201072 0.507545 -0.407269
v 0.268072 0.500000 -0.306864
vt 0.487254 0.823600
vt 0.432596 0.982461
vt 0.376707 0.866529
vt 0.000000 0.000000
vt 0.000000 0.000000
vt 0.000000 0.000000
vt 0.316551 0.429747
vt 0.153779 0.384199
vt 0.265264 0.320548
vt 0.114661 0.136223
vt 0.088553 0.266382
vt 0.027368 0.145298
vt 0.362427 0.576201
vt 0.318737 0.748989
vt 0.260252 0.630692
vt 0.613436 0.596224
vt 0.481346 0.575153
vt 0.546902 0.543744
vt 0.746803 0.848501
vt 0.592766 0.751512
vt 0.699204 0.671205
vt 0.527727 0.663568
vt 0.207651 0.507253
vt 0.436760 0.716913
vt 0.197875 0.212325
vt 0.641116 0.887496
vt 0.000000 0.000000
vt 0.000000 0.000000
vt 0.000000 0.000000
vt 0.000000 0.000000
vt 0.000000 0.000000
vt 0.537117 0.934135
vt 0.000000 0.000000
vt 0.000000 0.000000
vt 0.000000 0.000000
vt 0.000000 0.000000
vt 0.000000 0.000000
vt 0.000000 0.000000
vt 0.000000 0.000000
vt 0.000000 0.000000
vt 0.000000 0.000000
vt 0.000000 0.000000
vt 0.000000 0.000000
vt 0.000000 0.000000
vt 0.705462 0.420312
vt 0.573032 0.471510
vt 0.604899 0.378756
vt 0.946140 0.512134
vt 0.763512 0.567317
vt 0.805691 0.458977
vt 0.000000 0.000000
vt 0.000000 0.000000
vt 0.000000 0.000000
vt 0.255940 0.098438
vt 0.308735 0.255403
vt 0.498005 0.210898
vt 0.375185 0.154011
vt 0.143498 0.043371
vt 0.664889 0.512713
vt 0.745839 0.310685
vt 0.868747 0.356384
vt 0.623938 0.258455
vt 0.450778 0.327255
vt 0.866508 0.726687
vt 0.000000 0.000000
vt 0.000000 0.000000
vt 0.000000 0.000000
vt 0.000000 0.000000
vt 0.000000 0.000000
vt 0.000000 0.000000
vt 0.000000 0.000000
vt 0.846861 0.827573
vt 0.904818 0.619278
vt 0.006439 0.005904
vt 0.989136 0.404455
vt 0.415021 0.390633
vn -0.1620 0.4413 -0.8826
vn 1.0000 0.0000 0.0000
vn 0.0962 0.1077 -0.9895
vn -0.4005 0.4098 -0.8196
vn 0.1257 0.4437 -0.8873
vn -0.0640 0.0060 -0.9979
vn 0.1694 0.7124 -0.6810
vn 0.2823 -0.1360 -0.9496
vn 0.3492 0.6055 -0.7151
vn -0.3749 0.6632 -0.6478
vn -0.1058 0.2723 -0.9564
vn -0.3234 0.4232 -0.8464
vn 0.0360 -0.1416 -0.9893
vn 0.3520 0.5836 -0.7318
vn 0.0000 1.0000 0.0000
vn 0.0000 0.3017 -0.9534
vn 0.4003 0.4098 -0.8196
vn -0.1074 0.2133 -0.9711
vn -0.2580 0.6911 -0.6751
vn 0.2654 0.3647 -0.8925
vn 0.0000 0.6235 -0.7818
vn 0.2404 -0.0861 -0.9668
vn 0.0337 0.3780 -0.9252
vn 0.0866 0.4455 -0.8911
vn -0.1731 0.2842 -0.9430
vn 0.4183 0.2621 -0.8697
vn 0.0000 0.0000 -1.0000
vn 0.9474 0.3191 -0.0248
vn 0.7466 0.6623 0.0626
vn -1.0000 0.0000 -0.0000
vn 0.8454 0.5340 -0.0110
vn 0.8911 0.4455 0.0865
vn 0.9496 0.1660 0.2660
vn 0.9914 -0.1267 0.0331
vn 0.9464 -0.1688 0.2756
vn 0.7185 0.6374 -0.2782
vn 0.8935 0.4467 0.0456
vn 0.8286 0.4143 0.3765
vn 0.9807 0.1950 -0.0130
vn 0.9715 -0.1241 -0.2019
vn 0.7125 0.6915 -0.1192
vn 0.7210 0.6930 -0.0000
vn 0.9292 0.3682 0.0310
vn 0.7796 0.6262 0.0000
vn -0.0000 -0.0000 1.0000
vn 0.5655 0.2560 -0.7840
vn 0.9074 0.4178 0.0463
vn 0.8676 0.4338 0.2431
vn 0.8944 0.4472 -0.0117
vn 0.9811 -0.1750 0.0823
vn 0.8452 0.4226 -0.3272
vn 0.8944 0.4472 -0.0000
vn 0.7419 0.6702 -0.0194
vn 0.7031 0.6352 0.3195
vn 0.9136 0.3076 0.2660
vn 0.9128 0.3617 -0.1897
vn 0.9827 -0.0852 -0.1644
vn 0.0000 0.7260 -0.6877
vn -0.4040 0.5911 -0.6981
vn -0.0388 0.1129 -0.9928
vn -0.0229 0.8108 -0.5848
vn 0.6135 0.7584 -0.2202
vn 0.6798 0.7334 -0.0090
vn -0.0376 0.8097 -0.5856
vn 0.7276 0.6344 -0.2611
vn 0.5641 0.2597 -0.7838
vn 0.0000 -1.0000 0.0000
usemtl Material.001
s off
f 27/1/1 4/2/1 10/3/1
f 5/4/2 14/5/2 28/6/2
f 13/7/3 12/8/3 26/9/3
f 25/10/4 8/11/4 16/12/4
f 24/13/5 6/14/5 14/15/5
f 19/16/6 20/17/6 23/18/6
f 15/19/7 21/20/7 22/21/7
f 19/16/8 21/20/8 9/22/8
f 24/13/9 5/23/9 13/7/9
f 20/17/10 18/24/10 24/13/10
f 26/9/11 8/11/11 17/25/11
f 18/24/12 10/3/12 6/14/12
f 21/20/13 18/24/13 9/22/13
f 7/26/14 27/1/14 21/20/14
f 3/27/15 4/28/15 11/29/15
f 11/29/15 7/30/15 3/27/15
f 7/30/15 15/31/15 3/27/15
f 27/1/16 11/32/16 4/2/16
f 28/6/2 1/33/2 16/34/2
f 8/35/2 12/36/2 28/6/2
f 12/36/2 5/4/2 28/6/2
f 28/6/2 16/34/2 8/35/2
f 4/28/2 3/27/2 10/37/2
f 3/27/2 28/6/2 6/38/2
f 10/37/2 3/27/2 6/38/2
f 14/5/2 6/38/2 28/6/2
f 13/7/17 5/23/17 12/8/17
f 25/10/18 17/25/18 8/11/18
f 24/13/19 18/24/19 6/14/19
f 19/16/20 9/22/20 20/17/20
f 15/19/21 7/26/21 21/20/21
f 19/16/22 22/21/22 21/20/22
f 24/13/5 14/15/5 5/23/5
f 20/17/23 9/22/23 18/24/23
f 26/9/24 12/8/24 8/11/24
f 18/24/25 27/1/25 10/3/25
f 21/20/26 27/1/26 18/24/26
f 7/26/16 11/32/16 27/1/16
f 40/39/15 36/40/15 32/41/15
f 41/42/27 30/43/27 34/44/27
f 46/45/28 47/46/28 51/47/28
f 43/48/29 48/49/29 50/50/29
f 2/51/15 3/27/15 33/52/15
f 30/43/30 29/53/30 2/51/30 32/41/30
f 3/27/15 15/31/15 33/52/15
f 37/54/31 49/55/31 17/25/31
f 34/56/32 49/55/32 41/57/32
f 44/58/33 17/25/33 25/10/33
f 46/45/34 48/49/34 38/59/34
f 35/60/35 50/50/35 46/45/35
f 39/61/36 43/48/36 50/50/36
f 42/62/37 45/63/37 34/56/37
f 35/60/38 51/47/38 42/62/38
f 47/46/39 19/16/39 23/18/39
f 48/49/40 19/16/40 38/59/40
f 48/49/41 40/64/41 22/21/41
f 43/65/15 31/66/15 32/41/15
f 32/41/15 2/51/15 33/52/15
f 36/40/15 43/65/15 32/41/15
f 33/52/15 40/39/15 32/41/15
f 32/41/27 31/66/27 39/67/27
f 35/68/27 42/69/27 30/43/27
f 42/69/27 34/44/27 30/43/27
f 35/68/27 30/43/27 32/41/27
f 32/41/27 39/67/27 35/68/27
f 1/33/27 30/43/27 44/70/27
f 44/70/27 30/43/27 37/71/27
f 41/42/27 37/71/27 30/43/27
f 22/21/42 40/64/42 33/72/42
f 46/45/43 38/59/43 47/46/43
f 43/48/44 36/73/44 48/49/44
f 29/53/45 28/6/45 3/27/45 2/51/45
f 17/25/46 49/55/46 26/9/46
f 37/54/32 41/57/32 49/55/32
f 34/56/47 45/63/47 49/55/47
f 1/74/48 44/58/48 25/10/48
f 44/58/49 37/54/49 17/25/49
f 46/45/50 50/50/50 48/49/50
f 35/60/51 39/61/51 50/50/51
f 39/61/52 31/75/52 43/48/52
f 45/63/53 51/47/53 47/46/53
f 42/62/54 51/47/54 45/63/54
f 35/60/55 46/45/55 51/47/55
f 47/46/56 38/59/56 19/16/56
f 48/49/57 22/21/57 19/16/57
f 48/49/44 36/73/44 40/64/44
f 22/21/58 33/72/58 15/19/58
f 24/13/59 13/7/59 20/17/59
f 13/7/60 26/9/60 53/76/60
f 13/7/61 53/76/61 20/17/61
f 47/46/62 53/76/62 45/63/62
f 47/46/63 23/18/63 53/76/63
f 20/17/64 53/76/64 23/18/64
f 16/12/4 1/74/4 25/10/4
f 45/63/65 53/76/65 26/9/65
f 26/9/66 49/55/66 45/63/66
f 29/53/67 30/43/67 1/33/67 28/6/67
l 45 52
l 29 3
l 30 2
