# Blender v2.79 (sub 0) OBJ File: 'allinoneblend.blend'
# www.blender.org
mtllib single_edge.mtl
o Cube.004
v -0.500000 0.000000 -0.500000
v -0.500000 1.000000 -0.500000
v -0.500000 0.000000 0.500000
v -0.500000 1.000000 0.000000
v -0.071004 0.946478 0.071004
v -0.500000 0.500000 0.250000
v -0.250000 1.000000 0.000000
v -0.500000 0.250000 0.375000
v -0.500000 0.750000 0.125000
v -0.246148 0.524190 0.246148
v -0.250804 0.718140 0.054602
v -0.375000 1.000000 0.000000
v -0.500000 0.125000 0.437500
v -0.500000 0.625000 0.187500
v -0.374809 0.482741 0.198721
v -0.125000 1.000000 0.000000
v -0.500000 0.375000 0.312500
v -0.500000 0.875000 0.062500
v -0.379073 0.730506 0.081615
v -0.275585 0.628281 0.163814
v -0.259455 0.853784 0.019583
v -0.158049 0.882116 0.064303
v -0.381893 0.608704 0.146277
v -0.392752 0.375133 0.282192
v -0.378240 0.848827 0.009759
v 0.500000 0.000000 0.500000
v 0.500000 1.000000 0.500000
v 0.000000 1.000000 0.500000
v 0.500000 0.000000 -0.500000
v 0.500000 1.000000 -0.500000
v -0.250000 0.500000 0.500000
v -0.375000 0.250000 0.500000
v -0.125000 0.750000 0.500000
v 0.000000 1.000000 0.250000
v -0.103464 0.747523 0.261041
v -0.437500 0.125000 0.500000
v -0.187500 0.625000 0.500000
v 0.000000 1.000000 0.125000
v -0.312500 0.375000 0.500000
v -0.062500 0.875000 0.500000
v 0.000000 1.000000 0.375000
v -0.172690 0.467629 0.368953
v -0.137175 0.774501 0.137175
v -0.074608 0.726788 0.378609
v -0.166276 0.629845 0.276270
v -0.029695 0.859799 0.260488
v -0.364399 0.270755 0.364399
v -0.280983 0.374409 0.392383
v -0.028954 0.858869 0.378800
v -0.099186 0.582214 0.375657
v -0.007603 0.841258 0.137746
v -0.293893 0.374967 0.293893
v -0.401953 0.109577 0.401953
v -0.171519 0.620258 0.171519
v -0.084798 0.847723 0.084798
vn 0.4060 0.0502 0.9125
vn 0.2446 0.4336 0.8673
vn 0.3502 0.4189 0.8378
vn -0.4332 0.1471 0.8892
vn -0.6302 0.1562 0.7606
vn 0.3935 0.4111 0.8223
vn -0.4353 0.4795 0.7619
vn -0.2264 0.4608 0.8581
vn 0.0015 0.4472 0.8944
vn 0.3658 0.4162 0.8325
vn 0.2228 0.2570 0.9404
vn -0.0850 0.0660 0.9942
vn -0.8320 0.4160 -0.3671
vn -0.7942 0.1229 0.5950
vn -0.9795 0.2012 0.0077
vn -0.8944 0.4472 -0.0015
vn -0.8647 0.4324 -0.2556
vn -0.9080 0.3134 0.2781
vn -0.8601 0.2979 -0.4140
vn -0.9405 0.1853 -0.2850
vn -0.7129 0.3689 0.5964
vn -0.7540 0.3770 -0.5379
vn -0.7823 0.1454 -0.6057
vn -0.4375 0.8465 0.3034
vn -0.9612 0.1885 -0.2015
vn -0.9120 0.2715 0.3074
vn 0.0123 0.7708 0.6370
vn -0.0105 0.6185 0.7857
vn -0.7955 0.6058 -0.0156
vn -0.4273 0.3967 0.8125
vn -0.6861 0.4115 0.5999
vn -0.7885 0.6057 0.1068
vn -0.0930 0.6003 0.7943
vn 0.3671 0.4160 0.8320
vn 0.0346 0.5650 0.8244
vn -0.3633 0.6998 0.6151
vn -0.5444 0.1902 0.8170
vn -0.4420 0.5219 0.7295
vn 0.0000 -0.0000 1.0000
vn 1.0000 0.0000 -0.0000
vn -0.0000 0.0000 -1.0000
vn 0.0000 -1.0000 0.0000
vn 0.0000 1.0000 0.0000
vn -1.0000 0.0000 0.0000
vn 0.0000 0.4472 0.8944
vn 0.3835 0.5253 0.7596
vn 0.3655 0.4298 0.8256
vn 0.0000 0.4789 0.8779
vn -0.4623 0.4340 0.7733
vn 0.3512 0.3766 0.8572
vn -0.2166 0.3648 0.9055
vn 0.2073 0.7318 0.6492
vn 0.2083 0.6395 0.7401
vn 0.4341 0.4654 0.7713
vn -0.0920 0.5173 0.8508
vn 0.0000 0.1327 0.9912
vn -0.9752 0.2172 -0.0430
vn -0.8288 0.4797 0.2880
vn -0.9783 0.2072 0.0000
vn -0.7309 0.6469 -0.2176
vn -0.6211 0.5927 -0.5128
vn -0.8357 0.5491 0.0096
vn -0.8550 0.4275 -0.2936
vn -0.8944 0.4472 -0.0000
vn -0.6657 0.3898 0.6362
vn -0.6470 0.4510 -0.6148
vn -0.8136 0.4068 -0.4155
vn -0.8144 0.5340 -0.2272
vn -0.9989 0.0478 0.0000
vn -0.8821 0.4710 0.0011
vn -0.6537 0.3002 0.6946
vn -0.0912 0.6198 0.7794
vn -0.6388 0.7643 0.0881
vn 0.0430 0.2172 0.9752
vn -0.6457 0.0918 0.7581
vn -0.1945 0.1623 0.9674
vn -0.6899 0.2192 0.6899
usemtl None
s off
f 12//1 18//1 25//1
f 24//2 6//2 17//2
f 23//3 9//3 14//3
f 22//4 7//4 21//4
f 43//5 21//5 11//5
f 15//6 14//6 6//6
f 20//7 15//7 10//7
f 20//8 19//8 23//8
f 47//9 17//9 8//9
f 19//10 18//10 9//10
f 21//11 19//11 11//11
f 21//12 12//12 25//12
f 32//13 53//13 36//13
f 44//14 45//14 50//14
f 41//15 46//15 49//15
f 39//16 47//16 32//16
f 31//17 48//17 39//17
f 49//18 35//18 44//18
f 33//19 49//19 44//19
f 40//20 41//20 49//20
f 42//21 45//21 10//21
f 37//22 42//22 31//22
f 37//23 44//23 50//23
f 35//24 51//24 43//24
f 34//25 51//25 46//25
f 54//26 35//26 43//26
f 54//27 11//27 20//27
f 20//28 10//28 54//28
f 54//29 10//29 45//29
f 15//30 52//30 10//30
f 52//31 42//31 10//31
f 47//32 48//32 52//32
f 52//33 24//33 47//33
f 53//34 8//34 13//34
f 13//34 3//34 53//34
f 53//13 3//13 36//13
f 22//35 43//35 55//35
f 43//36 51//36 55//36
f 51//37 5//37 55//37
f 22//38 5//38 16//38
f 31//39 39//39 26//39
f 27//40 29//40 30//40
f 2//41 29//41 1//41
f 29//42 3//42 1//42
f 16//43 38//43 30//43
f 9//44 18//44 2//44
f 12//45 4//45 18//45
f 24//46 15//46 6//46
f 23//47 19//47 9//47
f 22//48 16//48 7//48
f 43//49 22//49 21//49
f 15//50 23//50 14//50
f 20//51 23//51 15//51
f 20//52 11//52 19//52
f 47//53 24//53 17//53
f 19//54 25//54 18//54
f 21//55 25//55 19//55
f 21//56 7//56 12//56
f 32//57 47//57 53//57
f 44//58 35//58 45//58
f 41//59 34//59 46//59
f 39//60 48//60 47//60
f 31//61 42//61 48//61
f 49//62 46//62 35//62
f 33//63 40//63 49//63
f 40//64 28//64 41//64
f 42//65 50//65 45//65
f 37//66 50//66 42//66
f 37//67 33//67 44//67
f 35//68 46//68 51//68
f 34//69 38//69 51//69
f 54//70 45//70 35//70
f 54//71 43//71 11//71
f 15//72 24//72 52//72
f 52//73 48//73 42//73
f 53//74 47//74 8//74
f 51//75 38//75 5//75
f 22//76 55//76 5//76
f 3//39 26//39 36//39
f 26//39 27//39 33//39
f 36//39 26//39 32//39
f 27//39 28//39 40//39
f 33//39 37//39 26//39
f 37//39 31//39 26//39
f 27//39 40//39 33//39
f 32//39 26//39 39//39
f 27//40 26//40 29//40
f 2//41 30//41 29//41
f 29//42 26//42 3//42
f 12//43 7//43 2//43
f 7//43 16//43 2//43
f 16//77 5//77 38//77
f 34//43 41//43 27//43
f 41//43 28//43 27//43
f 38//43 34//43 27//43
f 27//43 30//43 38//43
f 30//43 2//43 16//43
f 2//43 4//43 12//43
f 3//44 13//44 1//44
f 13//44 8//44 1//44
f 17//44 6//44 1//44
f 6//44 14//44 1//44
f 8//44 17//44 1//44
f 2//44 1//44 9//44
f 18//44 4//44 2//44
f 14//44 9//44 1//44
