# Blender v2.79 (sub 0) OBJ File: 'allinoneblend.blend'
# www.blender.org
mtllib triple_edge.mtl
o Cube.012_Cube.010
v 0.450766 0.123168 0.450766
v 0.210643 0.632900 0.210661
v 0.321333 0.368056 0.321318
v 0.500000 0.000000 0.500000
v -0.500000 0.000000 0.500000
v -0.500000 0.500000 0.250000
v -0.500000 0.250000 0.375000
v -0.500000 0.750000 0.125000
v -0.248917 0.529453 0.248917
v -0.247713 0.732736 0.106171
v -0.500000 0.125000 0.437500
v -0.500000 0.625000 0.187500
v -0.371255 0.482676 0.217683
v -0.500000 0.375000 0.312500
v -0.500000 0.825000 0.000001
v 0.379155 0.285525 0.379588
v -0.382617 0.288723 0.382617
v -0.313179 0.359723 0.313179
v -0.375000 0.744980 0.119579
v -0.144940 0.810369 0.144941
v -0.261968 0.607801 0.159962
v -0.250000 0.825000 0.000000
v -0.065790 0.878716 0.001241
v -0.189307 0.609453 0.189307
v -0.375434 0.630887 0.198515
v -0.446490 0.119855 0.446491
v 0.125978 0.755867 0.125978
v 0.000000 1.000000 0.000000
v -0.390878 0.375961 0.314066
v -0.375000 0.825000 0.000000
v -0.500001 0.000000 -0.499999
v -0.500000 0.500000 -0.249999
v -0.500000 0.250000 -0.374999
v -0.500000 0.750000 -0.124999
v -0.248462 0.741278 -0.115629
v -0.500000 0.125000 -0.437499
v -0.500000 0.625000 -0.187499
v -0.500000 0.375000 -0.312499
v -0.378669 0.516971 -0.281657
v -0.375000 0.747970 -0.122807
v -0.265822 0.625794 -0.188787
v -0.390755 0.297280 -0.390754
v -0.341121 0.388283 -0.341121
v -0.387785 0.364220 -0.294933
v -0.455037 0.126483 -0.455037
v -0.375783 0.635603 -0.207337
v -0.218923 0.641603 -0.218923
v 0.500000 0.000000 -0.500000
v 0.500000 1.000000 -0.500000
v 0.500000 1.000000 0.000000
v 0.000000 1.000000 0.000000
v 0.500000 0.500000 0.250000
v 0.250000 1.000000 0.000000
v 0.500000 0.250000 0.375000
v 0.500000 0.750000 0.125000
v 0.246890 0.527758 0.247340
v 0.246044 0.727384 0.082817
v 0.375000 1.000000 0.000000
v 0.500000 0.125000 0.437500
v 0.500000 0.625000 0.187500
v 0.379759 0.522063 0.291153
v 0.125000 1.000000 0.000000
v 0.500000 0.375000 0.312500
v 0.500000 0.875000 0.062500
v 0.375000 0.752798 0.130596
v 0.264152 0.620333 0.179933
v 0.250792 0.889846 0.090609
v 0.125516 0.886185 0.081487
v 0.373607 0.606050 0.152046
v 0.394056 0.389190 0.335627
v 0.375000 0.875627 0.063755
v 0.250000 0.500000 0.500000
v 0.375000 0.250000 0.500000
v 0.125000 0.750000 0.500000
v 0.121998 0.747209 0.249509
v 0.437500 0.125000 0.500000
v 0.187500 0.625000 0.500000
v 0.312500 0.375000 0.500000
v -0.000000 0.825000 0.500000
v 0.289185 0.520993 0.379497
v 0.140840 0.781321 0.143260
v 0.130939 0.755497 0.374997
v 0.179178 0.620067 0.264400
v -0.000000 0.825000 0.250000
v 0.326405 0.383712 0.392917
v 0.000000 0.825000 0.375000
v 0.196877 0.630008 0.375360
v 0.001800 0.869610 0.057727
v 0.000000 1.000000 -0.500000
v -0.250000 0.500000 -0.500000
v -0.250000 0.500000 0.500000
v -0.375000 0.250000 -0.500000
v -0.375000 0.250000 0.500000
v -0.125000 0.750000 -0.500000
v 0.000000 1.000000 -0.250000
v -0.125000 0.750000 0.500000
v -0.285780 0.568605 -0.285780
v -0.110479 0.742214 -0.248637
v -0.120098 0.745505 0.249405
v -0.437500 0.125000 -0.500000
v -0.437500 0.125000 0.500000
v -0.187500 0.625000 -0.500000
v 0.000000 1.000000 -0.125000
v -0.187500 0.625000 0.500000
v -0.195138 0.470590 0.368643
v -0.312500 0.375000 -0.500000
v -0.312500 0.375000 0.500000
v -0.062500 0.875000 -0.500000
v 0.000000 1.000000 -0.375000
v -0.207696 0.477322 -0.370098
v -0.145098 0.783333 -0.142230
v -0.152769 0.763884 -0.375000
v -0.183979 0.622828 -0.265086
v -0.039277 0.862734 -0.249345
v -0.116796 0.742402 0.375000
v -0.184519 0.623138 0.265229
v -0.155307 0.607793 0.373730
v -0.288340 0.360173 -0.386718
v -0.096552 0.892025 -0.375000
v -0.163138 0.611979 -0.374039
v -0.082818 0.886969 -0.125552
v -0.312315 0.374887 0.390595
vn -0.0168 0.4472 0.8943
vn -0.1067 0.4447 0.8893
vn -0.0991 0.5664 0.8181
vn -0.3505 0.4038 0.8450
vn -0.6316 0.5784 0.5162
vn 0.2579 0.1311 0.9572
vn -0.2868 0.1149 0.9511
vn 0.3676 0.5282 0.7655
vn -0.2014 0.4381 0.8761
vn 0.1441 0.6486 0.7474
vn 0.0567 0.8561 0.5137
vn 0.1372 0.8232 0.5509
vn 0.1852 0.5899 -0.7859
vn -0.7260 0.1024 -0.6801
vn -0.3070 0.4256 -0.8512
vn 0.1800 0.4399 -0.8798
vn -0.3417 0.4203 -0.8406
vn 0.0747 0.8448 -0.5299
vn 0.0229 0.8573 -0.5144
vn -0.3183 0.5088 -0.7998
vn -0.2838 0.4288 -0.8577
vn -0.1761 0.5925 -0.7861
vn -0.5815 0.4959 -0.6449
vn -0.4330 0.7274 -0.5324
vn 0.0112 0.4561 0.8898
vn 0.3593 0.3307 0.8726
vn -0.2869 0.1412 0.9475
vn 0.0000 0.5821 0.8131
vn -0.0775 0.4976 0.8639
vn -0.2652 0.8202 0.5069
vn 0.2736 0.5323 0.8011
vn -0.3806 0.5852 0.7160
vn 0.2442 0.3486 0.9049
vn 0.0500 0.4774 0.8773
vn -0.3411 -0.0351 0.9394
vn 0.2330 0.6188 0.7502
vn 0.8727 0.4364 0.2189
vn 0.8710 0.4572 -0.1799
vn 0.8828 0.4414 0.1607
vn 0.8842 0.4421 0.1508
vn 0.4669 0.8796 -0.0914
vn 0.5145 0.8575 0.0000
vn 0.7504 0.6275 -0.2080
vn 0.8912 0.4456 0.0850
vn 0.5059 0.7912 0.3437
vn 0.7997 0.5157 0.3074
vn 0.4930 0.6289 0.6013
vn 0.5230 0.4358 0.7325
vn 0.7275 0.4357 0.5300
vn -0.2632 0.2806 0.9230
vn 0.9136 0.2975 -0.2772
vn 0.8590 0.4841 -0.1667
vn -0.2891 0.4087 0.8657
vn 0.2189 0.4364 0.8727
vn -0.2239 0.3920 0.8923
vn -0.2268 0.4695 0.8533
vn -0.8581 0.4920 0.1473
vn 0.0000 1.0000 0.0000
vn -0.6219 0.6676 -0.4092
vn -0.7984 0.5843 0.1453
vn -0.9789 0.0656 -0.1938
vn -0.6680 0.5974 0.4437
vn -0.4528 0.4230 -0.7849
vn -0.8913 0.4102 0.1932
vn -0.9245 0.2671 -0.2721
vn -0.8807 0.2790 0.3827
vn -0.2521 0.9432 0.2165
vn -0.8665 0.2672 -0.4217
vn -0.8115 0.5073 0.2902
vn -0.8825 0.4691 0.0348
vn -0.8512 0.4256 -0.3070
vn -0.8679 0.4339 0.2419
vn -0.8406 0.4203 -0.3417
vn -0.8154 0.3577 0.4551
vn -0.8681 0.4340 -0.2411
vn -0.8944 0.4472 0.0000
vn -0.6159 0.1814 -0.7667
vn -0.8737 0.4368 0.2141
vn -0.6063 0.4624 -0.6470
vn -0.7784 0.4574 -0.4300
vn -0.8956 0.2545 -0.3648
vn -0.7747 0.6323 -0.0020
vn -0.6961 0.4693 0.5434
vn -0.5774 0.8165 -0.0000
vn -0.5517 0.8333 0.0351
vn -0.5810 0.3228 0.7472
vn -0.1661 0.9229 0.3475
vn -0.3041 0.7797 -0.5473
vn -0.4982 0.7879 -0.3620
vn -0.3296 0.5842 -0.7417
vn -0.6986 0.5965 -0.3951
vn -0.2813 0.6993 0.6572
vn -0.8188 0.5718 -0.0514
vn 0.1384 0.6200 0.7723
vn -0.7643 0.6343 -0.1157
vn -0.8893 0.4447 0.1067
vn 0.0000 -0.0000 1.0000
vn -1.0000 0.0000 0.0000
vn 1.0000 0.0000 -0.0000
vn 0.0000 0.0000 -1.0000
vn 0.0000 -1.0000 0.0000
vn 0.2686 0.6180 0.7389
vn -0.1932 0.4102 0.8913
vn 0.0567 0.4465 0.8930
vn -0.5229 0.2923 0.8007
vn -0.2698 0.9187 0.2883
vn -0.0997 0.4450 0.8900
vn 0.3487 0.7281 0.5901
vn 0.1329 0.3791 0.9158
vn -0.0167 0.6168 0.7869
vn -0.3785 0.4496 0.8091
vn 0.0000 0.8311 0.5561
vn 0.0000 0.7548 0.6559
vn 0.0759 0.5254 -0.8474
vn -0.2350 0.3504 -0.9066
vn 0.1664 0.8059 -0.5682
vn -0.2642 0.0992 -0.9594
vn -0.3101 0.4349 -0.8454
vn -0.0000 0.8100 -0.5865
vn -0.0000 0.8471 -0.5314
vn 0.1632 0.8348 -0.5258
vn -0.1777 0.5255 -0.8320
vn 0.0229 0.4471 -0.8942
vn -0.4180 0.5910 -0.6899
vn -0.2491 0.8643 -0.4369
vn 0.0000 0.4472 0.8944
vn 0.2472 0.4333 0.8667
vn 0.0500 0.4467 0.8933
vn -0.0746 0.6332 0.7704
vn 0.4756 -0.0560 0.8779
vn 0.3619 0.4169 0.8338
vn -0.1341 0.8457 0.5165
vn 0.2613 0.1372 0.9555
vn 0.1632 0.4412 0.8824
vn 0.0112 0.4472 0.8944
vn 0.2376 0.4643 0.8532
vn 0.0000 0.4562 0.8899
vn 0.8736 0.4577 0.1652
vn 0.9122 0.3995 -0.0914
vn 0.8792 0.4519 0.1509
vn 0.8986 0.2769 0.3404
vn 0.5376 0.8432 -0.0000
vn 0.4680 0.8816 0.0610
vn 0.7775 0.6032 -0.1781
vn 0.7117 0.6155 0.3386
vn 0.8834 0.4644 0.0624
vn 0.4300 0.8786 0.2079
vn 0.7469 0.3983 0.5324
vn 0.6099 0.5472 0.5733
vn -0.2887 0.2883 0.9130
vn 0.9609 0.2485 -0.1224
vn 0.1675 0.4569 0.8736
vn -0.8944 0.4472 -0.0020
vn -0.8790 0.4768 0.0000
vn -0.8180 0.4551 0.3518
vn -0.9614 0.2751 -0.0000
vn -0.4330 0.3833 -0.8159
vn -0.8911 0.4456 -0.0856
vn -0.8860 0.4629 -0.0276
vn -0.4649 0.6983 0.5442
vn -0.8593 0.4296 -0.2776
vn -0.8421 0.2263 0.4895
vn -0.9222 0.2612 0.2852
vn -0.5169 0.8277 0.2186
vn -0.7951 0.4982 0.3459
vn -0.8454 0.4349 -0.3101
vn -0.8052 0.4777 0.3514
vn -0.8761 0.3844 -0.2910
vn -0.7152 0.6395 -0.2819
vn -0.4358 0.8836 -0.1713
vn -0.8889 0.3042 0.3426
vn -0.9782 0.0680 0.1962
vn -0.6712 0.5914 -0.4469
vn -0.7679 0.5214 -0.3722
vn -0.8066 0.5910 -0.0000
vn -0.8761 0.4381 0.2014
vn -0.6419 0.7538 -0.1405
vn -0.5126 0.8543 -0.0856
usemtl None
s off
f 29//1 6//1 14//1
f 26//2 7//2 11//2
f 19//3 12//3 25//3
f 24//4 10//4 21//4
f 20//5 22//5 10//5
f 25//6 6//6 13//6
f 9//7 25//7 13//7
f 21//8 19//8 25//8
f 17//9 14//9 7//9
f 18//10 13//10 29//10
f 19//11 15//11 8//11
f 10//12 30//12 19//12
f 40//13 41//13 46//13
f 39//14 43//14 44//14
f 38//15 42//15 33//15
f 32//16 44//16 38//16
f 33//17 45//17 36//17
f 30//18 35//18 40//18
f 15//19 40//19 34//19
f 46//20 97//20 39//20
f 37//21 39//21 32//21
f 37//22 40//22 46//22
f 35//23 47//23 41//23
f 22//24 111//24 35//24
f 64//25 58//25 71//25
f 70//26 52//26 61//26
f 60//27 65//27 69//27
f 68//28 53//28 62//28
f 81//29 67//29 68//29
f 61//30 60//30 69//30
f 56//31 69//31 66//31
f 66//32 65//32 57//32
f 16//33 63//33 70//33
f 55//34 71//34 65//34
f 65//35 67//35 57//35
f 71//36 53//36 67//36
f 1//37 73//37 76//37
f 83//38 82//38 87//38
f 16//39 78//39 73//39
f 85//40 72//40 78//40
f 75//41 86//41 82//41
f 74//42 86//42 79//42
f 56//43 87//43 80//43
f 72//44 87//44 77//44
f 87//44 74//44 77//44
f 81//45 84//45 75//45
f 75//46 2//46 81//46
f 57//47 2//47 66//47
f 66//48 2//48 56//48
f 2//49 83//49 56//49
f 61//50 3//50 70//50
f 80//51 3//51 56//51
f 16//52 3//52 85//52
f 3//53 16//53 70//53
f 54//54 1//54 59//54
f 59//54 1//54 4//54
f 1//37 76//37 4//37
f 68//55 51//55 88//55
f 88//56 81//56 68//56
f 111//57 23//57 121//57
f 53//58 58//58 49//58
f 122//59 91//59 105//59
f 23//60 103//60 121//60
f 113//61 112//61 120//61
f 114//62 109//62 119//62
f 43//63 110//63 118//63
f 26//64 93//64 17//64
f 104//65 115//65 117//65
f 24//66 99//66 20//66
f 20//67 84//67 88//67
f 91//68 117//68 105//68
f 9//69 117//69 116//69
f 116//70 115//70 99//70
f 42//71 106//71 92//71
f 118//72 90//72 106//72
f 45//73 92//73 100//73
f 112//74 114//74 119//74
f 112//75 108//75 94//75
f 108//76 109//76 89//76
f 97//77 120//77 110//77
f 90//78 120//78 102//78
f 102//75 112//75 94//75
f 47//79 98//79 113//79
f 111//80 114//80 98//80
f 121//81 95//81 114//81
f 17//82 107//82 122//82
f 18//83 105//83 9//83
f 115//84 79//84 86//84
f 115//85 84//85 99//85
f 23//86 88//86 51//86
f 88//87 23//87 20//87
f 97//88 47//88 113//88
f 47//89 97//89 41//89
f 42//90 43//90 118//90
f 43//91 42//91 44//91
f 21//92 9//92 24//92
f 9//93 116//93 24//93
f 29//94 17//94 18//94
f 17//95 122//95 18//95
f 11//2 5//2 26//2
f 26//96 5//96 101//96
f 31//73 45//73 100//73
f 31//17 36//17 45//17
f 76//97 73//97 93//97
f 37//98 32//98 12//98
f 54//99 59//99 48//99
f 94//100 108//100 49//100
f 48//101 5//101 31//101
f 29//102 13//102 6//102
f 26//103 17//103 7//103
f 19//104 8//104 12//104
f 24//105 20//105 10//105
f 20//106 23//106 22//106
f 25//107 12//107 6//107
f 9//108 21//108 25//108
f 21//109 10//109 19//109
f 17//110 29//110 14//110
f 18//111 9//111 13//111
f 19//112 30//112 15//112
f 10//113 22//113 30//113
f 40//114 35//114 41//114
f 39//115 97//115 43//115
f 38//116 44//116 42//116
f 32//117 39//117 44//117
f 33//118 42//118 45//118
f 30//119 22//119 35//119
f 15//120 30//120 40//120
f 46//121 41//121 97//121
f 37//122 46//122 39//122
f 37//123 34//123 40//123
f 35//124 111//124 47//124
f 22//125 23//125 111//125
f 64//126 50//126 58//126
f 70//127 63//127 52//127
f 60//128 55//128 65//128
f 68//129 67//129 53//129
f 81//130 57//130 67//130
f 61//131 52//131 60//131
f 56//132 61//132 69//132
f 66//133 69//133 65//133
f 16//134 54//134 63//134
f 55//135 64//135 71//135
f 65//136 71//136 67//136
f 71//137 58//137 53//137
f 1//138 16//138 73//138
f 83//139 75//139 82//139
f 16//140 85//140 78//140
f 85//141 80//141 72//141
f 75//142 84//142 86//142
f 74//143 82//143 86//143
f 56//144 83//144 87//144
f 72//145 80//145 87//145
f 87//146 82//146 74//146
f 81//147 88//147 84//147
f 75//148 83//148 2//148
f 57//149 81//149 2//149
f 61//150 56//150 3//150
f 80//151 85//151 3//151
f 54//152 16//152 1//152
f 68//28 62//28 51//28
f 58//58 50//58 49//58
f 49//58 89//58 53//58
f 89//58 51//58 62//58
f 62//58 53//58 89//58
f 122//153 107//153 91//153
f 23//154 51//154 103//154
f 113//155 98//155 112//155
f 114//156 95//156 109//156
f 43//157 97//157 110//157
f 26//96 101//96 93//96
f 104//158 96//158 115//158
f 24//159 116//159 99//159
f 20//160 99//160 84//160
f 91//161 104//161 117//161
f 9//162 105//162 117//162
f 116//163 117//163 115//163
f 42//164 118//164 106//164
f 118//165 110//165 90//165
f 45//166 42//166 92//166
f 112//167 98//167 114//167
f 112//168 119//168 108//168
f 108//169 119//169 109//169
f 97//170 113//170 120//170
f 90//171 110//171 120//171
f 102//172 120//172 112//172
f 47//173 111//173 98//173
f 111//174 121//174 114//174
f 121//175 103//175 95//175
f 17//176 93//176 107//176
f 18//177 122//177 105//177
f 115//178 96//178 79//178
f 115//84 86//84 84//84
f 78//97 72//97 91//97
f 72//97 77//97 91//97
f 91//97 77//97 104//97
f 77//97 74//97 104//97
f 74//97 79//97 96//97
f 104//97 74//97 96//97
f 91//97 107//97 78//97
f 107//97 93//97 73//97
f 73//97 78//97 107//97
f 93//97 101//97 76//97
f 101//97 5//97 76//97
f 5//97 4//97 76//97
f 31//98 5//98 11//98
f 7//98 14//98 38//98
f 14//98 6//98 32//98
f 32//98 6//98 12//98
f 31//98 11//98 36//98
f 11//98 7//98 36//98
f 38//98 33//98 7//98
f 33//98 36//98 7//98
f 12//98 8//98 34//98
f 8//98 15//98 34//98
f 34//98 37//98 12//98
f 32//98 38//98 14//98
f 48//99 49//99 55//99
f 49//99 50//99 64//99
f 55//99 49//99 64//99
f 60//99 52//99 48//99
f 52//99 63//99 48//99
f 63//99 54//99 48//99
f 48//99 55//99 60//99
f 59//99 4//99 48//99
f 49//100 48//100 94//100
f 48//100 31//100 100//100
f 100//100 92//100 48//100
f 92//100 106//100 48//100
f 48//100 106//100 90//100
f 108//100 89//100 49//100
f 90//100 102//100 48//100
f 102//100 94//100 48//100
f 48//101 4//101 5//101
