# Blender v2.79 (sub 0) OBJ File: 'allinoneblend.blend'
# www.blender.org
mtllib triple_edge.mtl
o Cube.012_Cube.022
v -0.250000 0.500000 -0.500000
v -0.375000 0.250000 -0.500000
v -0.125000 0.750000 -0.500000
v -0.117501 0.740794 -0.248047
v -0.437500 0.125000 -0.500000
v -0.187500 0.625000 -0.500000
v -0.215223 0.476426 -0.362798
v -0.312500 0.375000 -0.500000
v -0.000000 0.825000 -0.500000
v -0.386372 0.292949 -0.386395
v -0.350895 0.410174 -0.351123
v -0.150462 0.774785 -0.375998
v -0.188747 0.633628 -0.277002
v -0.000000 0.825000 -0.250000
v -0.011595 0.813782 -0.151124
v -0.247842 0.675737 -0.252008
v -0.167537 0.613705 -0.371939
v -0.321271 0.391726 -0.402988
v -0.000000 0.825000 -0.375000
v 0.250000 0.500000 -0.500000
v 0.375000 0.250000 -0.500000
v 0.125000 0.750000 -0.500000
v 0.100257 0.735610 -0.257615
v 0.437500 0.125000 -0.500000
v 0.187500 0.625000 -0.500000
v 0.312500 0.375000 -0.500000
v 0.257146 0.518344 -0.391694
v 0.108144 0.740538 -0.379308
v 0.174159 0.623374 -0.276903
v 0.294795 0.379250 -0.394315
v 0.475276 0.148249 -0.475276
v 0.146003 0.600872 -0.382803
v 0.218162 0.649204 -0.218163
v -0.501717 -0.001489 -0.501717
v -0.500000 1.000000 0.000000
v 0.498160 0.001595 -0.498160
v -0.500000 0.500000 -0.250000
v 0.000000 1.000000 0.000000
v -0.500000 0.250000 -0.375000
v -0.500000 0.750000 -0.125000
v -0.250000 1.000000 0.000000
v 0.275523 0.555678 -0.275523
v -0.298474 0.574694 -0.299555
v -0.248297 0.745409 -0.118182
v -0.500000 0.125000 -0.437500
v -0.500000 0.625000 -0.187500
v -0.125000 1.000000 0.000000
v -0.500000 0.375000 -0.312500
v -0.500000 0.875000 -0.062500
v -0.375000 1.000000 0.000000
v -0.386365 0.521863 -0.282275
v -0.026409 0.898207 -0.065977
v -0.148200 0.768258 -0.163713
v -0.375043 0.750710 -0.126334
v -0.278511 0.639283 -0.197733
v -0.249452 0.871710 -0.056570
v 0.390509 0.297445 -0.390509
v 0.134102 0.791059 -0.134102
v -0.402613 0.391201 -0.320576
v -0.470586 0.145245 -0.470586
v -0.375000 0.884832 -0.082165
v -0.378624 0.638200 -0.210781
v -0.138660 0.893389 -0.086739
v 0.500000 0.500000 0.250000
v 0.500000 0.250000 0.375000
v 0.500000 0.750000 0.125000
v 0.242936 0.716700 0.097876
v 0.500000 0.125000 0.437500
v 0.500000 0.625000 0.187500
v 0.389347 0.527717 0.290887
v 0.500000 0.375000 0.312500
v 0.500000 0.825000 -0.000000
v 0.409603 0.311651 0.409582
v 0.348305 0.407351 0.348074
v 0.375302 0.757500 0.132704
v 0.272266 0.624728 0.176788
v 0.250000 0.825000 -0.000000
v 0.151124 0.813782 0.011595
v 0.241947 0.663965 0.237484
v 0.370274 0.607562 0.156680
v 0.401213 0.388964 0.317446
v 0.375000 0.825000 -0.000000
v 0.500000 0.500000 -0.250000
v 0.500000 0.250000 -0.375000
v 0.500000 0.750000 -0.125000
v 0.258191 0.738719 -0.102822
v 0.500000 0.125000 -0.437500
v 0.500000 0.625000 -0.187500
v 0.500000 0.375000 -0.312500
v 0.396614 0.528959 -0.273169
v 0.380220 0.702221 -0.069326
v 0.287165 0.651390 -0.204018
v 0.334657 0.396401 -0.334657
v 0.399090 0.386114 -0.305568
v 0.387432 0.630173 -0.186746
v 0.494944 0.004383 0.494943
v 0.000000 1.000000 0.500000
v 0.250000 0.500000 0.500000
v 0.375000 0.250000 0.500000
v 0.125000 0.750000 0.500000
v 0.000000 1.000000 0.250000
v 0.268855 0.545703 0.267675
v 0.125301 0.750203 0.250075
v 0.437500 0.125000 0.500000
v 0.187500 0.625000 0.500000
v 0.000000 1.000000 0.125000
v 0.312500 0.375000 0.500000
v 0.062500 0.875000 0.500000
v 0.000000 1.000000 0.375000
v 0.289091 0.526480 0.388765
v 0.065977 0.898207 0.026409
v 0.170683 0.777036 0.152867
v 0.136112 0.755913 0.375357
v 0.190873 0.634154 0.275636
v 0.074198 0.881489 0.251080
v 0.323881 0.393588 0.404149
v 0.464099 0.141165 0.464099
v 0.077051 0.882275 0.375000
v 0.200549 0.632398 0.377031
v 0.035569 0.858093 0.132053
v 0.016550 0.860187 -0.016551
v -0.500000 1.000000 0.500000
v -0.494004 0.005996 0.494004
vn -0.8835 0.4417 -0.1560
vn -0.8805 0.4402 0.1761
vn -0.1449 0.3467 -0.9267
vn -0.2600 0.8863 -0.3833
vn -0.8544 0.4979 -0.1483
vn -0.8994 0.3314 0.2849
vn -0.5074 0.1194 -0.8534
vn -0.9669 0.0965 -0.2363
vn -0.8659 0.4330 -0.2504
vn -0.4133 0.7574 -0.5055
vn -0.3053 0.9198 -0.2465
vn -0.3022 0.8991 0.3167
vn 0.9191 0.2566 -0.2989
vn 0.7800 0.2221 -0.5850
vn 0.5551 0.6238 -0.5502
vn 0.8518 0.4259 -0.3052
vn 0.8868 0.4434 0.1307
vn 0.4443 0.2054 -0.8720
vn 0.4368 0.2184 -0.8727
vn 0.6157 0.7847 0.0717
vn 0.5096 0.8493 0.1378
vn 0.5447 0.7695 -0.3335
vn 0.8864 0.4432 -0.1336
vn 0.9001 0.2348 0.3670
vn 0.5786 0.4927 -0.6500
vn -0.0978 0.5268 -0.8443
vn 0.1885 0.8756 -0.4447
vn 0.0000 0.0000 -1.0000
vn 0.1173 0.6177 -0.7776
vn 0.0975 0.5954 -0.7975
vn 0.2211 0.5664 -0.7939
vn -0.5640 0.2961 -0.7709
vn -0.2505 0.4330 -0.8659
vn -0.1470 0.4424 -0.8847
vn -0.7957 0.2708 -0.5417
vn 0.0759 0.4377 -0.8959
vn -0.0121 0.4472 -0.8944
vn -0.1712 0.5722 -0.8020
vn -0.4425 0.4907 -0.7506
vn -0.3220 0.4234 -0.8468
vn -0.2150 0.4368 -0.8735
vn -0.8826 0.4158 -0.2195
vn -0.4535 0.3874 -0.8026
vn -0.3117 0.3823 -0.8699
vn 0.4426 0.6502 -0.6175
vn -0.0576 0.4486 -0.8919
vn -0.5702 0.3901 -0.7230
vn -0.7332 0.3896 -0.5574
vn -0.7451 0.5957 -0.2998
vn -0.5350 0.2824 -0.7962
vn -0.7962 0.2824 -0.5350
vn 0.3840 0.2052 0.9002
vn -0.2486 0.1611 0.9551
vn 0.7251 0.6425 0.2478
vn 0.6797 0.7273 0.0951
vn 0.4431 0.3151 0.8393
vn -0.2342 0.8205 0.5214
vn 0.2580 0.7243 0.6394
vn -0.3655 0.5362 0.7608
vn 0.1396 0.7648 0.6290
vn -0.1024 0.4552 0.8845
vn 0.0813 0.8884 0.4517
vn -0.3736 0.6352 0.6759
vn 0.2606 0.8299 -0.4932
vn 0.4298 0.2068 -0.8789
vn 0.4045 0.6119 -0.6796
vn 0.3052 0.4259 -0.8518
vn -0.0122 0.4472 -0.8944
vn 0.8720 0.2054 -0.4443
vn 0.8727 0.2184 -0.4368
vn 0.3616 0.4700 -0.8052
vn -0.5025 0.7414 -0.4448
vn 0.1578 0.6495 -0.7438
vn 0.3097 0.4252 -0.8505
vn 0.0146 0.4472 -0.8943
vn 0.1053 0.7676 -0.6323
vn 0.6738 0.6053 0.4238
vn -0.1604 0.7498 -0.6419
vn 1.0000 0.0000 -0.0000
vn 0.9034 0.2440 0.3527
vn 0.8844 0.4604 -0.0764
vn 0.8365 0.5475 -0.0227
vn 0.8550 0.2748 0.4398
vn 0.7509 0.3754 0.5434
vn 0.8782 0.4391 0.1894
vn 0.6768 0.3384 0.6538
vn 0.9057 0.4233 -0.0235
vn 0.8899 0.4450 0.1004
vn 0.8944 0.4472 -0.0000
vn 0.7684 0.6394 -0.0269
vn 0.8244 0.4122 0.3878
vn 0.8879 0.4439 0.1209
vn 0.3863 0.4012 0.8306
vn 0.8230 0.3167 0.4716
vn 0.7939 0.4938 -0.3547
vn 0.1458 0.5807 -0.8010
vn 0.9189 0.2800 0.2780
vn 0.6097 0.6664 0.4291
vn 0.5319 0.6719 0.5154
vn 0.5558 0.4091 0.7237
vn 0.6517 0.3037 0.6950
vn 0.6950 0.3037 0.6517
vn 0.5729 0.1629 -0.8033
vn 0.8033 0.1629 -0.5729
vn 0.3351 0.4802 -0.8106
vn 0.1844 0.9166 -0.3547
vn 0.0000 1.0000 0.0000
vn -1.0000 -0.0030 0.0060
vn 0.0000 0.0000 1.0000
vn 0.0031 -1.0000 0.0075
vn -0.6619 0.6926 0.2868
vn -0.9709 0.0974 -0.2188
vn -0.3969 0.8204 -0.4116
vn -0.5821 0.8128 0.0240
vn -0.4107 0.8696 -0.2742
vn -0.8241 0.4577 0.3339
vn -0.8360 0.5231 -0.1658
vn -0.2540 0.3621 -0.8969
vn -0.5145 0.8575 0.0000
vn -0.5825 0.8128 0.0000
vn 0.8387 0.5392 0.0762
vn 0.8646 0.4222 -0.2724
vn 0.6460 0.7594 0.0777
vn 0.9591 0.2616 -0.1076
vn 0.7062 0.6077 -0.3633
vn 0.6655 0.7464 -0.0000
vn 0.6155 0.7881 0.0000
vn 0.5311 0.7890 -0.3089
vn 0.5754 0.7366 0.3554
vn 0.8832 0.4416 0.1580
vn 0.6202 0.6380 -0.4564
vn 0.0973 0.7152 -0.6922
vn 0.6636 0.7306 0.1607
vn 0.0035 0.0118 -0.9999
vn -0.0000 -0.0149 -0.9999
vn 0.0000 0.5439 -0.8392
vn 0.0764 0.5840 -0.8081
vn 0.0000 0.4035 -0.9150
vn -0.3964 0.3872 -0.8324
vn -0.1574 0.5315 -0.8323
vn -0.3139 0.3028 -0.8999
vn -0.2999 0.5957 -0.7451
vn 0.2207 0.3050 -0.9264
vn -0.1715 0.3082 -0.9357
vn 0.0000 0.4472 -0.8944
vn 0.0617 0.8373 -0.5432
vn -0.2151 0.5217 -0.8256
vn -0.0119 0.6005 -0.7995
vn -0.3816 0.8193 -0.4278
vn -0.3176 0.5143 -0.7967
vn 0.0000 0.6311 -0.7757
vn -0.5417 0.2708 -0.7957
vn 0.1074 0.4446 0.8893
vn 0.0819 0.4457 0.8914
vn 0.8885 0.4272 0.1677
vn 0.0110 0.6701 0.7422
vn 0.4047 0.4090 0.8179
vn 0.0307 0.8609 0.5078
vn 0.2234 0.1466 0.9636
vn 0.5433 0.3754 0.7509
vn 0.5424 0.2025 0.8154
vn 0.0000 0.8575 0.5145
vn 0.0000 0.8913 0.4534
vn 0.3739 0.7524 -0.5423
vn 0.1015 0.3792 -0.9197
vn 0.0263 0.6902 -0.7231
vn 0.2710 0.2174 -0.9377
vn 0.3633 0.6077 -0.7062
vn -0.0000 0.7660 -0.6428
vn -0.0000 0.4917 -0.8708
vn 0.2542 0.5588 -0.7894
vn 0.0248 0.6505 -0.7591
vn -0.5072 0.7203 -0.4731
vn 0.4297 0.6350 -0.6420
vn 0.4905 0.8575 0.1551
vn 0.4215 0.8872 -0.1876
vn 0.9991 -0.0419 -0.0000
vn 0.9999 -0.0165 0.0033
vn 0.8392 0.5439 -0.0000
vn 0.8755 0.4733 -0.0971
vn 0.8476 0.5307 0.0000
vn 0.8827 0.4640 -0.0739
vn 0.6672 0.7124 0.2174
vn 0.8847 0.2752 0.3764
vn 0.7237 0.4091 0.5559
vn 0.9273 0.3617 -0.0965
vn 0.8982 0.4202 0.1290
vn 0.8298 0.5431 0.1282
vn 0.7461 0.6632 -0.0597
vn 0.7553 0.6445 0.1189
vn 0.8816 0.4613 0.1005
vn 0.5611 0.6927 0.4532
vn 0.5229 0.7882 -0.3246
vn 0.9700 0.2431 -0.0000
vn 0.6538 0.3384 0.6768
vn 0.3546 0.9166 -0.1844
vn 0.8106 0.4802 -0.3351
vn -0.9999 0.0097 0.0077
vn -1.0000 -0.0060 0.0024
vn -1.0000 0.0000 0.0000
vn -0.0010 -0.0424 0.9991
vn -0.0060 -0.0030 1.0000
vn -0.0061 -0.0030 1.0000
vn -0.0024 -0.0060 1.0000
vn -0.0016 -1.0000 0.0028
usemtl None
s off
f 18//1 1//1 8//1
f 17//2 3//2 6//2
f 16//3 4//3 13//3
f 15//4 4//4 53//4
f 43//5 55//5 16//5
f 17//6 1//6 7//6
f 43//7 17//7 7//7
f 13//8 12//8 17//8
f 10//9 8//9 2//9
f 11//10 7//10 18//10
f 19//11 3//11 12//11
f 4//12 19//12 12//12
f 28//13 29//13 32//13
f 27//14 93//14 30//14
f 93//15 57//15 30//15
f 26//16 57//16 21//16
f 20//17 30//17 26//17
f 31//18 36//18 24//18
f 21//19 31//19 24//19
f 19//20 23//20 28//20
f 9//21 28//21 22//21
f 32//22 42//22 27//22
f 25//23 27//23 20//23
f 25//24 28//24 32//24
f 23//25 33//25 29//25
f 63//26 15//26 53//26
f 23//27 15//27 58//27
f 6//28 3//28 22//28
f 47//29 52//29 63//29
f 54//30 55//30 62//30
f 50//31 56//31 61//31
f 51//32 11//32 59//32
f 48//33 10//33 39//33
f 37//34 59//34 48//34
f 39//35 60//35 45//35
f 54//36 56//36 44//36
f 49//37 54//37 40//37
f 49//38 50//38 61//38
f 62//39 43//39 51//39
f 46//40 51//40 37//40
f 40//41 62//41 46//41
f 44//42 16//42 55//42
f 56//43 53//43 44//43
f 41//44 63//44 56//44
f 33//45 42//45 29//45
f 13//46 43//46 16//46
f 10//47 59//47 11//47
f 11//48 18//48 10//48
f 2//49 60//49 10//49
f 34//50 60//50 5//50
f 34//51 45//51 60//51
f 81//52 64//52 70//52
f 69//53 75//53 80//53
f 79//54 67//54 112//54
f 67//55 78//55 112//55
f 102//56 79//56 114//56
f 70//57 69//57 80//57
f 102//58 80//58 76//58
f 76//59 75//59 67//59
f 73//60 71//60 81//60
f 74//61 70//61 102//61
f 66//62 82//62 75//62
f 75//63 77//63 67//63
f 92//64 91//64 95//64
f 93//65 90//65 94//65
f 93//66 94//66 57//66
f 57//67 89//67 84//67
f 94//68 83//68 89//68
f 31//69 87//69 36//69
f 31//70 84//70 87//70
f 86//71 82//71 91//71
f 91//72 72//72 85//72
f 42//73 95//73 90//73
f 90//74 88//74 83//74
f 95//75 85//75 88//75
f 33//76 86//76 92//76
f 120//77 78//77 111//77
f 86//78 78//78 77//78
f 64//79 71//79 83//79
f 111//80 106//80 120//80
f 114//81 113//81 119//81
f 115//82 109//82 118//82
f 74//83 110//83 116//83
f 73//84 107//84 99//84
f 116//85 98//85 107//85
f 117//86 99//86 104//86
f 113//87 115//87 118//87
f 113//88 108//88 100//88
f 108//89 109//89 97//89
f 102//90 119//90 110//90
f 110//91 105//91 98//91
f 119//92 100//92 105//92
f 79//93 103//93 114//93
f 112//94 115//94 103//94
f 120//95 101//95 115//95
f 33//96 92//96 42//96
f 76//97 79//97 102//97
f 73//98 74//98 116//98
f 74//99 73//99 81//99
f 117//100 65//100 73//100
f 96//101 68//101 117//101
f 96//102 117//102 104//102
f 111//103 121//103 38//103
f 52//104 38//104 121//104
f 78//105 121//105 111//105
f 15//106 121//106 58//106
f 41//107 122//107 101//107
f 48//108 39//108 123//108
f 100//109 108//109 122//109
f 36//110 123//110 34//110
f 18//111 7//111 1//111
f 17//112 12//112 3//112
f 16//113 53//113 4//113
f 15//114 14//114 4//114
f 17//2 6//2 1//2
f 43//115 13//115 17//115
f 13//116 4//116 12//116
f 10//117 18//117 8//117
f 11//118 43//118 7//118
f 19//119 9//119 3//119
f 4//120 14//120 19//120
f 28//121 23//121 29//121
f 27//122 42//122 93//122
f 26//123 30//123 57//123
f 20//124 27//124 30//124
f 21//125 57//125 31//125
f 19//126 14//126 23//126
f 9//127 19//127 28//127
f 32//128 29//128 42//128
f 25//129 32//129 27//129
f 25//130 22//130 28//130
f 23//131 58//131 33//131
f 63//132 52//132 15//132
f 23//133 14//133 15//133
f 36//134 34//134 5//134
f 2//28 8//28 26//28
f 8//28 1//28 20//28
f 36//135 5//135 24//135
f 5//28 2//28 24//28
f 21//28 24//28 2//28
f 20//28 26//28 8//28
f 26//28 21//28 2//28
f 22//28 25//28 6//28
f 25//28 20//28 6//28
f 3//28 9//28 22//28
f 1//28 6//28 20//28
f 47//136 38//136 52//136
f 54//137 44//137 55//137
f 50//138 41//138 56//138
f 51//139 43//139 11//139
f 48//140 59//140 10//140
f 37//141 51//141 59//141
f 39//142 10//142 60//142
f 54//143 61//143 56//143
f 49//144 61//144 54//144
f 49//145 35//145 50//145
f 62//146 55//146 43//146
f 46//147 62//147 51//147
f 40//148 54//148 62//148
f 44//149 53//149 16//149
f 56//150 63//150 53//150
f 41//151 47//151 63//151
f 2//152 5//152 60//152
f 81//153 71//153 64//153
f 69//154 66//154 75//154
f 79//155 76//155 67//155
f 67//156 77//156 78//156
f 70//157 64//157 69//157
f 102//158 70//158 80//158
f 76//159 80//159 75//159
f 73//160 65//160 71//160
f 74//161 81//161 70//161
f 66//162 72//162 82//162
f 75//163 82//163 77//163
f 92//164 86//164 91//164
f 93//165 42//165 90//165
f 57//166 94//166 89//166
f 94//167 90//167 83//167
f 31//168 57//168 84//168
f 86//169 77//169 82//169
f 91//170 82//170 72//170
f 42//171 92//171 95//171
f 90//172 95//172 88//172
f 95//173 91//173 85//173
f 33//174 58//174 86//174
f 120//175 112//175 78//175
f 86//176 58//176 78//176
f 68//177 96//177 87//177
f 96//178 36//178 87//178
f 87//79 84//79 65//79
f 84//79 89//79 65//79
f 89//79 83//79 71//79
f 65//79 89//79 71//79
f 88//79 85//79 69//79
f 85//79 72//79 66//79
f 69//79 85//79 66//79
f 87//79 65//79 68//79
f 83//79 88//79 64//79
f 64//79 88//79 69//79
f 111//179 38//179 106//179
f 114//180 103//180 113//180
f 115//181 101//181 109//181
f 74//182 102//182 110//182
f 73//183 116//183 107//183
f 116//184 110//184 98//184
f 117//185 73//185 99//185
f 113//186 103//186 115//186
f 113//187 118//187 108//187
f 108//188 118//188 109//188
f 102//189 114//189 119//189
f 110//190 119//190 105//190
f 119//191 113//191 100//191
f 79//192 112//192 103//192
f 112//193 120//193 115//193
f 120//194 106//194 101//194
f 117//195 68//195 65//195
f 78//196 58//196 121//196
f 15//197 52//197 121//197
f 106//107 38//107 47//107
f 47//107 41//107 101//107
f 41//107 50//107 122//107
f 50//107 35//107 122//107
f 122//107 97//107 109//107
f 101//107 106//107 47//107
f 122//107 109//107 101//107
f 45//198 34//198 123//198
f 123//199 122//199 40//199
f 122//200 35//200 49//200
f 123//108 40//108 46//108
f 49//200 40//200 122//200
f 46//108 37//108 123//108
f 37//108 48//108 123//108
f 45//108 123//108 39//108
f 96//201 104//201 123//201
f 104//202 99//202 123//202
f 99//202 107//202 123//202
f 107//203 98//203 123//203
f 98//203 105//203 123//203
f 97//109 122//109 108//109
f 122//204 123//204 100//204
f 100//203 123//203 105//203
f 36//205 96//205 123//205
