# Blender v2.79 (sub 0) OBJ File: 'allinoneblend.blend'
# www.blender.org
mtllib wall.mtl
o Cube_Cube.006
v 0.500000 0.000000 0.500000
v 0.500000 1.000000 0.500000
v -0.500000 0.000000 0.500000
v 0.000000 1.000000 0.500000
v 0.500000 0.000000 -0.500000
v 0.500000 1.000000 -0.500000
v -0.500000 0.000000 -0.500000
v -0.000000 1.000000 -0.500000
v -0.250000 0.500000 0.500000
v -0.500000 0.000000 0.000000
v 0.000000 1.000000 0.000000
v -0.250000 0.500000 -0.500000
v -0.279125 0.514562 0.000000
v -0.375000 0.250000 0.500000
v -0.500000 0.000000 0.250000
v -0.000000 1.000000 -0.250000
v -0.375000 0.250000 -0.500000
v -0.125000 0.750000 0.500000
v -0.500000 0.000000 -0.250000
v 0.000000 1.000000 0.250000
v -0.125000 0.750000 -0.500000
v -0.255824 0.502912 -0.250000
v -0.195513 0.472758 0.250000
v -0.351646 0.238323 0.000000
v -0.121883 0.748442 0.000000
v -0.084905 0.729953 0.250000
v -0.387587 0.256293 0.250000
v -0.378997 0.251999 -0.250000
v -0.113367 0.744184 -0.250000
v -0.437500 0.125000 0.500000
v -0.500000 0.000000 0.375000
v -0.000000 1.000000 -0.375000
v -0.437500 0.125000 -0.500000
v -0.187500 0.625000 0.500000
v -0.500000 0.000000 -0.125000
v 0.000000 1.000000 0.125000
v -0.187500 0.625000 -0.500000
v -0.273608 0.511804 -0.375000
v -0.214358 0.482179 0.125000
v -0.463485 0.137992 0.000000
v -0.253760 0.658129 0.000000
v -0.312500 0.375000 0.500000
v -0.500000 0.000000 0.125000
v -0.000000 1.000000 -0.125000
v -0.312500 0.375000 -0.500000
v -0.062500 0.875000 0.500000
v -0.500000 0.000000 -0.375000
v 0.000000 1.000000 0.375000
v -0.062500 0.875000 -0.500000
v -0.311420 0.530709 -0.125000
v -0.256838 0.503419 0.375000
v -0.272923 0.355212 0.000000
v -0.049576 0.868538 0.000000
v -0.158449 0.766724 0.125000
v -0.162135 0.768567 0.375000
v -0.194217 0.628358 0.250000
v -0.048235 0.867868 0.250000
v -0.416602 0.270800 0.125000
v -0.419242 0.272120 0.375000
v -0.432031 0.122266 0.250000
v -0.374201 0.405850 0.250000
v -0.393513 0.259256 -0.375000
v -0.424987 0.274993 -0.125000
v -0.435504 0.124002 -0.250000
v -0.267663 0.352582 -0.250000
v -0.152644 0.763822 -0.375000
v -0.141907 0.758453 -0.125000
v -0.212028 0.637264 -0.250000
v -0.093199 0.890349 -0.250000
v -0.113025 0.900261 -0.125000
v -0.158422 0.610461 -0.125000
v -0.195053 0.628777 -0.375000
v -0.319463 0.378481 -0.125000
v -0.500844 0.156671 -0.125000
v -0.371467 0.091985 -0.375000
v -0.358107 0.397803 0.375000
v -0.461146 0.136823 0.375000
v -0.500566 0.156532 0.125000
v -0.109846 0.898672 0.375000
v -0.217425 0.639962 0.375000
v -0.165632 0.614067 0.125000
v -0.125790 0.906644 0.125000
v -0.266549 0.352025 0.125000
v -0.348865 0.393182 -0.375000
v -0.027845 0.857673 -0.375000
vn 0.0000 -0.0000 1.0000
vn -0.9403 0.1840 0.2862
vn 0.0000 0.0000 -1.0000
vn 1.0000 0.0000 -0.0000
vn 0.0000 -1.0000 0.0000
vn 0.0000 1.0000 0.0000
vn -0.8034 0.5097 -0.3079
vn -0.9267 0.3716 0.0567
vn -0.5092 0.6861 -0.5196
vn -0.4652 0.6794 0.5675
vn -0.8996 0.3868 -0.2029
vn -0.6027 0.6534 -0.4581
vn -0.7660 0.5628 -0.3107
vn -0.9191 0.3048 -0.2496
vn -0.7151 0.6856 0.1362
vn -0.8906 -0.1174 0.4395
vn -0.7279 0.4666 -0.5024
vn -0.9160 0.0721 -0.3945
vn -0.8924 0.4462 -0.0674
vn -0.9063 0.1011 0.4104
vn -0.6529 0.7399 -0.1622
vn -0.9629 0.1329 -0.2350
vn -0.8434 0.5078 0.1758
vn -0.5856 0.6636 0.4656
vn -0.4288 0.8225 -0.3736
vn -0.9490 0.1677 0.2669
vn -0.4530 0.6615 -0.5977
vn -0.8125 0.5457 -0.2050
vn -0.9392 0.3062 0.1554
vn -0.9435 0.2963 -0.1482
vn -0.6526 0.6654 -0.3625
vn -0.5950 0.6067 0.5271
vn -0.9387 -0.0365 0.3427
vn -0.8872 0.4614 0.0000
vn -0.9667 0.2558 0.0000
vn -0.7989 0.5122 0.3153
vn -0.8944 0.4472 0.0000
vn -0.8957 -0.1181 -0.4286
vn -0.9631 0.0862 -0.2548
vn -0.8317 0.4158 0.3680
vn -0.6726 0.6449 0.3630
vn -0.8740 0.4859 0.0000
vn -0.8751 0.4375 0.2069
vn -0.6897 0.5068 0.5171
vn -0.8005 0.2128 -0.5603
vn -0.8488 0.4244 0.3152
vn -0.6304 0.6834 0.3682
vn -0.8970 0.0075 -0.4419
vn -0.8928 0.4464 0.0610
vn -0.8640 0.4320 0.2586
vn -0.8129 0.3003 0.4990
vn -0.9251 0.3418 0.1652
vn -0.6621 0.7124 -0.2328
vn -0.8145 0.4904 -0.3100
vn -0.8124 0.2160 0.5415
vn -0.5068 0.6828 0.5262
vn -0.4299 0.7941 -0.4297
vn -0.9682 0.0867 0.2348
vn -0.2866 0.7653 -0.5763
vn -0.8824 0.4412 -0.1634
vn -0.9409 0.3137 0.1275
vn -0.8270 0.0651 0.5584
vn -0.8683 0.4341 -0.2400
vn -0.9399 0.1297 0.3157
vn -0.8551 0.1673 -0.4908
vn -0.8751 0.4376 -0.2066
vn -0.8910 -0.0347 0.4527
vn -0.9357 0.3529 0.0000
vn -0.9570 0.0450 -0.2865
vn -0.5716 0.6150 -0.5431
vn -0.9394 0.3429 0.0000
vn -0.5875 0.6549 -0.4754
vn -0.9200 0.2849 -0.2691
vn -0.3254 0.8690 -0.3728
vn -0.8462 0.3736 -0.3800
vn -0.9086 0.0480 -0.4148
vn -0.9268 0.2911 -0.2372
vn -0.7138 0.6586 -0.2382
vn -0.7620 0.6476 0.0000
vn -0.9658 0.1967 -0.1688
vn -0.8593 0.1750 0.4806
vn -0.8591 0.2800 0.4285
vn -0.3803 0.7296 -0.5683
vn -0.9801 0.1094 0.1658
vn -0.8209 0.5513 -0.1489
vn -0.6963 0.6426 0.3197
vn -0.6155 0.6813 -0.3962
vn -0.7667 0.5163 0.3816
vn -0.9653 0.0510 0.2560
vn -0.8867 -0.0048 -0.4623
vn -0.9583 -0.0052 0.2856
vn -0.5700 0.6354 0.5209
vn -0.5159 0.7208 0.4629
vn -0.5192 0.7255 -0.4518
vn -0.9072 0.4005 0.1286
vn -0.8901 0.4330 0.1425
vn -0.8327 0.4050 0.3777
vn -0.9319 0.2646 -0.2479
vn -0.9418 0.2675 0.2035
vn -0.8898 0.2756 0.3637
vn -0.9588 -0.0035 -0.2839
vn -0.8772 -0.0032 0.4801
vn -0.9193 0.3049 0.2488
vn -0.8133 0.3269 -0.4814
vn -0.8548 0.3436 0.3889
vn -0.9414 0.2717 -0.2000
vn -0.9291 0.2682 0.2545
vn -0.8720 0.3749 0.3147
vn -0.7857 0.1388 0.6029
vn -0.9746 0.0081 -0.2238
vn -0.8560 0.0403 0.5155
vn -0.8116 0.1894 -0.5526
vn -0.8073 0.1884 0.5593
vn -0.8281 0.5577 0.0564
vn -0.3738 0.6905 -0.6192
vn -0.9153 0.3670 0.1657
vn -0.9030 0.3010 -0.3065
vn -0.5553 0.6146 0.5603
vn -0.8340 0.5291 0.1563
vn -0.5792 0.7701 0.2673
vn -0.5326 0.7082 -0.4636
usemtl None
s off
f 9//1 42//1 1//1
f 32//2 49//2 85//2
f 12//3 37//3 5//3
f 6//4 1//4 5//4
f 35//5 5//5 10//5
f 36//6 2//6 11//6
f 38//7 45//7 84//7
f 39//8 52//8 83//8
f 36//9 53//9 82//9
f 81//10 25//10 41//10
f 55//11 56//11 80//11
f 48//12 57//12 79//12
f 58//13 40//13 78//13
f 77//14 27//14 60//14
f 51//15 61//15 76//15
f 62//16 33//16 75//16
f 63//17 64//17 74//17
f 73//18 22//18 65//18
f 72//19 21//19 37//19
f 67//20 68//20 71//20
f 44//21 69//21 70//21
f 67//22 69//22 29//22
f 53//23 67//23 25//23
f 53//24 44//24 70//24
f 71//25 22//25 50//25
f 41//26 50//26 13//26
f 25//27 71//27 41//27
f 72//28 12//28 38//28
f 68//29 38//29 22//29
f 68//30 66//30 72//30
f 73//31 28//31 63//31
f 24//32 73//32 63//32
f 13//33 73//33 52//33
f 35//34 64//34 19//34
f 40//35 35//35 10//35
f 40//36 63//36 74//36
f 47//37 33//37 7//37
f 64//34 47//34 19//34
f 64//38 62//38 75//38
f 59//39 61//39 27//39
f 42//40 59//40 14//40
f 42//41 51//41 76//41
f 31//42 60//42 15//42
f 30//37 31//37 3//37
f 14//43 77//43 30//43
f 43//35 40//35 10//35
f 60//42 43//42 15//42
f 60//44 58//44 78//44
f 55//45 57//45 26//45
f 46//46 55//46 18//46
f 46//47 48//47 79//47
f 51//48 56//48 23//48
f 34//49 51//49 9//49
f 18//50 80//50 34//50
f 81//51 13//51 39//51
f 23//52 81//52 39//52
f 26//53 81//53 56//53
f 54//54 53//54 25//54
f 57//55 54//55 26//55
f 57//56 36//56 82//56
f 83//57 24//57 58//57
f 61//58 58//58 27//58
f 23//59 83//59 61//59
f 62//60 45//60 17//60
f 28//61 84//61 62//61
f 22//62 84//62 65//62
f 66//63 49//63 21//63
f 69//64 66//64 29//64
f 69//65 32//65 85//65
f 3//1 1//1 30//1
f 1//1 2//1 18//1
f 30//1 1//1 14//1
f 2//1 4//1 46//1
f 18//1 34//1 1//1
f 34//1 9//1 1//1
f 2//1 46//1 18//1
f 14//1 1//1 42//1
f 32//37 8//37 49//37
f 5//3 7//3 33//3
f 17//3 45//3 5//3
f 45//3 12//3 5//3
f 5//3 33//3 17//3
f 8//3 6//3 49//3
f 6//3 5//3 21//3
f 49//3 6//3 21//3
f 37//3 21//3 5//3
f 6//4 2//4 1//4
f 1//5 3//5 31//5
f 15//5 43//5 1//5
f 43//5 10//5 1//5
f 1//5 31//5 15//5
f 7//5 5//5 47//5
f 5//5 1//5 10//5
f 47//5 5//5 19//5
f 35//5 19//5 5//5
f 6//6 8//6 32//6
f 16//6 44//6 6//6
f 44//6 11//6 6//6
f 6//6 32//6 16//6
f 4//6 2//6 48//6
f 2//6 6//6 11//6
f 48//6 2//6 20//6
f 36//6 20//6 2//6
f 38//66 12//66 45//66
f 39//67 13//67 52//67
f 36//68 11//68 53//68
f 81//69 54//69 25//69
f 55//70 26//70 56//70
f 48//71 20//71 57//71
f 58//72 24//72 40//72
f 77//73 59//73 27//73
f 51//74 23//74 61//74
f 62//60 17//60 33//60
f 63//75 28//75 64//75
f 73//76 50//76 22//76
f 72//77 66//77 21//77
f 67//78 29//78 68//78
f 44//79 16//79 69//79
f 67//80 70//80 69//80
f 53//81 70//81 67//81
f 53//68 11//68 44//68
f 71//82 68//82 22//82
f 41//83 71//83 50//83
f 25//84 67//84 71//84
f 72//19 37//19 12//19
f 68//85 72//85 38//85
f 68//86 29//86 66//86
f 73//87 65//87 28//87
f 24//88 52//88 73//88
f 13//89 50//89 73//89
f 35//90 74//90 64//90
f 40//91 74//91 35//91
f 40//92 24//92 63//92
f 47//93 75//93 33//93
f 64//94 75//94 47//94
f 64//95 28//95 62//95
f 59//96 76//96 61//96
f 42//97 76//97 59//97
f 42//49 9//49 51//49
f 31//98 77//98 60//98
f 30//99 77//99 31//99
f 14//100 59//100 77//100
f 43//101 78//101 40//101
f 60//102 78//102 43//102
f 60//103 27//103 58//103
f 55//104 79//104 57//104
f 46//105 79//105 55//105
f 46//37 4//37 48//37
f 51//106 80//106 56//106
f 34//107 80//107 51//107
f 18//108 55//108 80//108
f 81//109 41//109 13//109
f 23//110 56//110 81//110
f 26//111 54//111 81//111
f 54//112 82//112 53//112
f 57//113 82//113 54//113
f 57//71 20//71 36//71
f 83//114 52//114 24//114
f 61//115 83//115 58//115
f 23//116 39//116 83//116
f 62//117 84//117 45//117
f 28//118 65//118 84//118
f 22//119 38//119 84//119
f 66//120 85//120 49//120
f 69//121 85//121 66//121
f 69//79 16//79 32//79
