# Blender v2.79 (sub 0) OBJ File: 'wall.blend'
# www.blender.org
o Cube.001
v -0.500000 0.000000 -0.500000
v 0.500000 0.000000 -0.500000
v 0.500000 -0.000000 0.500000
v -0.500000 -0.000000 0.500000
v -0.500000 1.000000 0.000000
v -0.500000 1.000000 0.500000
v 0.500000 1.000000 0.500000
v 0.500000 1.000000 0.000000
v 0.000000 0.000000 -0.500000
v 0.500000 0.500000 -0.250000
v 0.000000 1.000000 0.000000
v -0.500000 0.500000 -0.250000
v 0.000000 0.500000 -0.295042
v 0.250000 0.000000 -0.500000
v 0.500000 0.750000 -0.125000
v 0.250000 1.000000 0.000000
v -0.500000 0.750000 -0.125000
v -0.250000 0.000000 -0.500000
v 0.500000 0.250000 -0.375000
v -0.250000 1.000000 0.000000
v -0.500000 0.250000 -0.375000
v 0.250000 0.500000 -0.235705
v -0.250000 0.500000 -0.251544
v 0.000000 0.250000 -0.363041
v 0.000000 0.750000 -0.101957
v -0.250000 0.750000 -0.084432
v -0.250000 0.250000 -0.398814
v 0.250000 0.250000 -0.382592
v 0.250000 0.750000 -0.081786
v 0.375000 0.000000 -0.500000
v 0.500000 0.875000 -0.062500
v 0.375000 1.000000 0.000000
v -0.500000 0.875000 -0.062500
v -0.125000 0.000000 -0.500000
v 0.500000 0.375000 -0.312500
v -0.125000 1.000000 0.000000
v -0.500000 0.375000 -0.312500
v 0.375000 0.500000 -0.311046
v -0.125000 0.500000 -0.269362
v 0.000000 0.125000 -0.376708
v 0.000000 0.625000 -0.154556
v 0.125000 0.000000 -0.500000
v 0.500000 0.625000 -0.187500
v 0.125000 1.000000 0.000000
v -0.500000 0.625000 -0.187500
v -0.375000 0.000000 -0.500000
v 0.500000 0.125000 -0.437500
v -0.375000 1.000000 0.000000
v -0.500000 0.125000 -0.437500
v 0.125000 0.500000 -0.235270
v -0.375000 0.500000 -0.243619
v 0.000000 0.375000 -0.343526
v 0.000000 0.875000 -0.123967
v -0.125000 0.750000 -0.096571
v -0.375000 0.750000 -0.088601
v -0.250000 0.625000 -0.133964
v -0.250000 0.875000 -0.100403
v -0.125000 0.250000 -0.386138
v -0.375000 0.250000 -0.378619
v -0.250000 0.125000 -0.451466
v -0.250000 0.375000 -0.306040
v 0.375000 0.250000 -0.347744
v 0.125000 0.250000 -0.401323
v 0.250000 0.125000 -0.412911
v 0.250000 0.375000 -0.318243
v 0.375000 0.750000 -0.077232
v 0.125000 0.750000 -0.121351
v 0.250000 0.625000 -0.132859
v 0.250000 0.875000 -0.099682
v 0.125000 0.875000 -0.138948
v 0.125000 0.625000 -0.126038
v 0.375000 0.625000 -0.205203
v 0.125000 0.375000 -0.344280
v 0.125000 0.125000 -0.413938
v 0.375000 0.125000 -0.404819
v -0.375000 0.375000 -0.317426
v -0.375000 0.125000 -0.452157
v -0.125000 0.125000 -0.416410
v -0.375000 0.875000 -0.110891
v -0.375000 0.625000 -0.130696
v -0.125000 0.625000 -0.146225
v -0.125000 0.875000 -0.115293
v -0.125000 0.375000 -0.306334
v 0.375000 0.375000 -0.340168
v 0.375000 0.875000 -0.039560
vn 0.0000 -1.0000 -0.0000
vn 0.0000 1.0000 0.0000
vn -0.1620 0.4413 -0.8826
vn 1.0000 0.0000 0.0000
vn 0.0000 -0.0000 1.0000
vn -1.0000 0.0000 0.0000
vn 0.2107 0.2218 -0.9520
vn -0.2673 0.3485 -0.8984
vn -0.0492 0.7033 -0.7092
vn -0.0613 0.3871 -0.9200
vn -0.0248 0.3191 -0.9474
vn 0.0626 0.6623 -0.7466
vn 0.2950 0.2249 -0.9287
vn 0.0051 0.3882 -0.9216
vn 0.0782 0.5069 -0.8585
vn -0.2277 0.4355 -0.8709
vn 0.0082 0.1004 -0.9949
vn 0.1551 0.6493 -0.7445
vn 0.1257 0.4437 -0.8873
vn -0.0545 0.0374 -0.9978
vn 0.2056 0.7276 -0.6545
vn 0.2990 -0.1352 -0.9446
vn -0.1510 -0.1714 -0.9736
vn -0.0799 0.7411 -0.6667
vn -0.0027 0.6354 -0.7722
vn 0.3029 0.7120 -0.6335
vn 0.2058 0.3796 -0.9020
vn 0.3492 0.6055 -0.7151
vn -0.4179 0.5871 -0.6933
vn -0.3749 0.6632 -0.6478
vn 0.1351 0.4114 -0.9014
vn -0.2684 0.3999 -0.8764
vn -0.0056 0.3616 -0.9323
vn 0.0000 0.5671 -0.8237
vn -0.2841 0.0963 -0.9539
vn 0.0000 0.4472 -0.8944
vn 0.0000 0.5717 -0.8205
vn 0.0628 0.2353 -0.9699
vn -0.1287 0.5910 -0.7963
vn -0.0260 0.4395 -0.8978
vn -0.0352 0.4469 -0.8939
vn 0.0000 0.3575 -0.9339
vn -0.1006 0.5045 -0.8575
vn 0.0000 0.5559 -0.8313
vn 0.0000 0.3619 -0.9322
vn 0.2502 0.3758 -0.8923
vn 0.0331 -0.1267 -0.9914
vn 0.2756 -0.1688 -0.9464
vn -0.2782 0.6374 -0.7185
vn -0.0461 0.6844 -0.7276
vn 0.0456 0.4467 -0.8935
vn 0.3765 0.4143 -0.8286
vn -0.1353 0.7402 -0.6586
vn -0.1010 0.6982 -0.7088
vn -0.0908 0.3676 -0.9255
vn -0.0426 -0.1480 -0.9881
vn -0.0959 -0.1261 -0.9874
vn -0.0872 0.6754 -0.7323
vn 0.1796 0.1517 -0.9720
vn 0.0812 0.5940 -0.8004
vn -0.0023 0.2836 -0.9589
vn -0.2127 0.0591 -0.9753
vn 0.2406 0.4443 -0.8630
vn -0.1684 0.2237 -0.9600
vn -0.3234 0.4232 -0.8464
vn 0.0360 -0.1416 -0.9893
vn 0.3520 0.5836 -0.7318
vn 0.0000 0.3017 -0.9534
vn 0.4003 0.4098 -0.8196
vn -0.1933 0.2783 -0.9408
vn 0.0000 0.6780 -0.7351
vn -0.0400 0.3689 -0.9286
vn 0.0310 0.3682 -0.9292
vn 0.0000 0.6262 -0.7796
vn 0.1807 0.1069 -0.9777
vn -0.1379 0.5022 -0.8537
vn -0.0580 0.3990 -0.9151
vn -0.1946 0.4074 -0.8923
vn 0.1441 0.2333 -0.9617
vn -0.0029 0.5510 -0.8345
vn -0.2580 0.6911 -0.6751
vn 0.2812 0.3630 -0.8884
vn 0.0000 0.6235 -0.7818
vn 0.2970 -0.1331 -0.9455
vn -0.1178 -0.1384 -0.9833
vn 0.0000 0.7042 -0.7100
vn -0.0411 0.6575 -0.7524
vn 0.1693 0.6485 -0.7421
vn -0.1532 0.0370 -0.9875
vn -0.4080 0.5801 -0.7050
vn 0.0337 0.3780 -0.9252
vn 0.1821 0.4501 -0.8742
vn -0.0060 0.1542 -0.9880
vn 0.3390 0.6183 -0.7090
vn 0.0067 0.5716 -0.8205
vn -0.2074 0.6870 -0.6965
vn -0.2912 0.1040 -0.9510
vn -0.2036 0.5931 -0.7789
vn 0.0514 0.6050 -0.7946
vn 0.2458 0.4026 -0.8817
vn 0.0815 0.4382 -0.8952
vn 0.0439 0.5080 -0.8603
vn 0.0052 0.3619 -0.9322
vn -0.1043 0.4448 -0.8895
vn -0.0259 0.4471 -0.8941
vn 0.2206 0.6849 -0.6944
vn 0.2270 0.5414 -0.8096
vn 0.0981 0.2342 -0.9672
vn 0.0823 -0.1750 -0.9811
vn -0.3272 0.4226 -0.8452
vn -0.0194 0.6702 -0.7419
vn 0.3195 0.6352 -0.7031
vn 0.2660 0.3076 -0.9136
vn -0.0474 0.7010 -0.7116
vn -0.0713 0.6834 -0.7265
vn -0.0899 0.3669 -0.9259
vn -0.0682 -0.1730 -0.9826
vn -0.1170 -0.1471 -0.9822
vn -0.2433 0.5220 -0.8176
vn -0.0020 0.5381 -0.8429
vn -0.1296 0.3963 -0.9089
vn 0.1942 0.4387 -0.8774
vn -0.1725 0.0596 -0.9832
vn -0.4493 0.4923 -0.7455
vn -0.1731 0.2842 -0.9430
vn 0.4183 0.2621 -0.8697
s off
f 42//1 3//1 9//1
f 36//2 20//2 6//2
f 85//3 8//3 31//3
f 10//4 43//4 3//4
f 7//5 4//5 3//5
f 37//6 4//6 12//6
f 38//7 35//7 84//7
f 83//8 13//8 52//8
f 82//9 11//9 53//9
f 81//10 25//10 41//10
f 55//11 56//11 80//11
f 48//12 57//12 79//12
f 58//13 40//13 78//13
f 77//14 27//14 60//14
f 51//15 61//15 76//15
f 75//16 19//16 47//16
f 63//17 64//17 74//17
f 50//18 65//18 73//18
f 72//19 15//19 43//19
f 67//20 68//20 71//20
f 44//21 69//21 70//21
f 67//22 69//22 29//22
f 53//23 67//23 25//23
f 53//24 44//24 70//24
f 50//25 68//25 22//25
f 41//26 50//26 13//26
f 25//27 71//27 41//27
f 72//28 10//28 38//28
f 22//29 72//29 38//29
f 68//30 66//30 72//30
f 73//31 28//31 63//31
f 24//32 73//32 63//32
f 13//33 73//33 52//33
f 74//34 14//34 42//34
f 9//34 74//34 42//34
f 40//35 63//35 74//35
f 30//36 47//36 2//36
f 64//37 30//37 14//37
f 28//38 75//38 64//38
f 59//39 61//39 27//39
f 21//40 76//40 59//40
f 12//41 76//41 37//41
f 77//42 18//42 46//42
f 1//42 77//42 46//42
f 49//43 59//43 77//43
f 78//44 9//44 34//44
f 60//45 34//45 18//45
f 27//46 78//46 60//46
f 55//47 57//47 26//47
f 17//48 79//48 55//48
f 33//49 48//49 79//49
f 51//50 56//50 23//50
f 45//51 51//51 12//51
f 17//52 80//52 45//52
f 39//53 41//53 13//53
f 23//54 81//54 39//54
f 56//55 54//55 81//55
f 82//56 25//56 54//56
f 57//57 54//57 26//57
f 57//58 36//58 82//58
f 58//59 52//59 24//59
f 61//60 58//60 27//60
f 61//61 39//61 83//61
f 84//62 19//62 62//62
f 65//63 62//63 28//63
f 65//64 38//64 84//64
f 66//65 31//65 15//65
f 69//66 66//66 29//66
f 16//67 85//67 69//67
f 4//1 1//1 46//1
f 18//1 34//1 4//1
f 34//1 9//1 4//1
f 4//1 46//1 18//1
f 2//1 3//1 30//1
f 3//1 4//1 9//1
f 30//1 3//1 14//1
f 42//1 14//1 3//1
f 48//2 5//2 6//2
f 6//2 7//2 11//2
f 7//2 8//2 32//2
f 32//2 16//2 7//2
f 16//2 44//2 7//2
f 7//2 44//2 11//2
f 20//2 48//2 6//2
f 11//2 36//2 6//2
f 85//68 32//68 8//68
f 3//4 2//4 47//4
f 19//4 35//4 3//4
f 35//4 10//4 3//4
f 3//4 47//4 19//4
f 8//4 7//4 31//4
f 7//4 3//4 15//4
f 31//4 7//4 15//4
f 43//4 15//4 3//4
f 7//5 6//5 4//5
f 6//6 5//6 33//6
f 17//6 45//6 4//6
f 45//6 12//6 4//6
f 17//6 4//6 6//6
f 6//6 33//6 17//6
f 1//6 4//6 49//6
f 49//6 4//6 21//6
f 37//6 21//6 4//6
f 38//69 10//69 35//69
f 83//70 39//70 13//70
f 82//71 36//71 11//71
f 81//72 54//72 25//72
f 55//73 26//73 56//73
f 48//74 20//74 57//74
f 58//75 24//75 40//75
f 77//76 59//76 27//76
f 51//77 23//77 61//77
f 75//78 62//78 19//78
f 63//79 28//79 64//79
f 50//80 22//80 65//80
f 72//81 66//81 15//81
f 67//82 29//82 68//82
f 44//83 16//83 69//83
f 67//84 70//84 69//84
f 53//85 70//85 67//85
f 53//86 11//86 44//86
f 50//87 71//87 68//87
f 41//88 71//88 50//88
f 25//89 67//89 71//89
f 72//19 43//19 10//19
f 22//90 68//90 72//90
f 68//91 29//91 66//91
f 73//92 65//92 28//92
f 24//93 52//93 73//93
f 13//94 50//94 73//94
f 74//95 64//95 14//95
f 9//96 40//96 74//96
f 40//97 24//97 63//97
f 30//98 75//98 47//98
f 64//99 75//99 30//99
f 28//100 62//100 75//100
f 59//101 76//101 61//101
f 21//41 37//41 76//41
f 12//102 51//102 76//102
f 77//103 60//103 18//103
f 1//104 49//104 77//104
f 49//105 21//105 59//105
f 78//106 40//106 9//106
f 60//107 78//107 34//107
f 27//108 58//108 78//108
f 55//109 79//109 57//109
f 17//110 33//110 79//110
f 33//36 5//36 48//36
f 51//111 80//111 56//111
f 45//112 80//112 51//112
f 17//113 55//113 80//113
f 39//114 81//114 41//114
f 23//115 56//115 81//115
f 56//116 26//116 54//116
f 82//117 53//117 25//117
f 57//118 82//118 54//118
f 57//74 20//74 36//74
f 58//119 83//119 52//119
f 61//120 83//120 58//120
f 61//121 23//121 39//121
f 84//122 35//122 19//122
f 65//123 84//123 62//123
f 65//124 22//124 38//124
f 66//125 85//125 31//125
f 69//126 85//126 66//126
f 16//68 32//68 85//68
