# Blender v2.79 (sub 0) OBJ File: 'allinoneblend.blend'
# www.blender.org
mtllib wall_single_edge_right.mtl
o Cube.008_Cube.012
v 0.500000 0.000000 -0.500000
v 0.500000 1.000000 -0.500000
v 0.500000 0.000000 0.500000
v 0.500000 1.000000 0.000000
v 0.000000 1.000000 0.000000
v 0.500000 0.500000 0.250000
v 0.250000 1.000000 0.000000
v 0.500000 0.250000 0.375000
v 0.500000 0.750000 0.125000
v 0.242571 0.520775 0.242839
v 0.244607 0.718559 0.051739
v 0.375000 1.000000 0.000000
v 0.500000 0.125000 0.437500
v 0.500000 0.625000 0.187500
v 0.374408 0.482876 0.198867
v 0.125000 1.000000 0.000000
v 0.500000 0.375000 0.312500
v 0.500000 0.875000 0.062500
v 0.376356 0.730259 0.080499
v 0.271328 0.625442 0.157858
v 0.254988 0.854155 0.016542
v 0.145937 0.885401 0.059201
v 0.380999 0.610119 0.148421
v 0.392645 0.374998 0.281954
v 0.376736 0.850245 0.011834
v 0.250000 0.500000 0.500000
v 0.375000 0.250000 0.500000
v 0.125000 0.750000 0.500000
v 0.081428 0.722361 0.252546
v 0.437500 0.125000 0.500000
v 0.187500 0.625000 0.500000
v 0.312500 0.375000 0.500000
v -0.000000 0.825000 0.500000
v 0.171871 0.463683 0.370289
v 0.128968 0.797816 0.146541
v 0.070011 0.704992 0.381189
v 0.151138 0.614666 0.270741
v -0.000000 0.825000 0.250000
v 0.364345 0.270678 0.364369
v 0.280818 0.373874 0.392560
v 0.000000 0.825000 0.375000
v 0.095681 0.569198 0.381509
v 0.000000 0.875000 0.125000
v 0.293872 0.374751 0.293786
v 0.401946 0.109565 0.401954
v 0.168082 0.618098 0.164996
v 0.052448 0.852484 0.029307
v 0.000000 1.000000 -0.500000
v 0.000000 0.000000 -0.500000
v -0.500000 0.000000 -0.500000
v -0.500000 0.000000 0.500000
v -0.250000 0.500000 -0.500000
v -0.500000 0.000000 -0.000000
v -0.250000 0.500000 0.500000
v -0.282635 0.516317 -0.000000
v -0.375000 0.250000 -0.500000
v -0.500000 0.000000 -0.250000
v -0.375000 0.250000 0.500000
v -0.125000 0.750000 -0.500000
v -0.500000 0.000000 0.250000
v 0.000000 1.000000 -0.250000
v -0.125000 0.750000 0.500000
v -0.266812 0.508406 0.250000
v -0.283450 0.516724 -0.250000
v -0.409614 0.267306 -0.000000
v -0.098634 0.736817 -0.000000
v -0.140204 0.757601 -0.250000
v -0.394572 0.259786 -0.250000
v -0.408110 0.266554 0.250000
v -0.109235 0.736378 0.249168
v -0.437500 0.125000 -0.500000
v -0.500000 0.000000 -0.375000
v -0.437500 0.125000 0.500000
v -0.187500 0.625000 -0.500000
v -0.500000 0.000000 0.125000
v 0.000000 1.000000 -0.125000
v -0.187500 0.625000 0.500000
v -0.258043 0.504021 0.375000
v -0.237959 0.493979 -0.125000
v -0.412153 0.112327 -0.000000
v -0.214635 0.638567 -0.000000
v -0.312500 0.375000 -0.500000
v -0.500000 0.000000 -0.125000
v -0.312500 0.375000 0.500000
v -0.062500 0.875000 -0.500000
v -0.500000 0.000000 0.375000
v 0.000000 1.000000 -0.375000
v -0.276978 0.513489 0.125000
v -0.271618 0.510809 -0.375000
v -0.329318 0.383409 -0.000000
v -0.083634 0.887033 0.003687
v -0.118624 0.746812 -0.125000
v -0.095472 0.735237 -0.375000
v -0.203683 0.633091 -0.250000
v -0.041412 0.864456 -0.250000
v -0.365222 0.245111 -0.125000
v -0.358965 0.241983 -0.375000
v -0.475575 0.144037 -0.250000
v -0.277178 0.357340 -0.250000
v -0.413594 0.269296 0.375000
v -0.355218 0.240109 0.125000
v -0.447522 0.130011 0.250000
v -0.293413 0.365457 0.250000
v -0.100017 0.726865 0.375000
v -0.150419 0.767682 0.127534
v -0.196245 0.629372 0.250000
v -0.224091 0.643295 0.125000
v -0.178003 0.620252 0.375000
v -0.354307 0.395903 0.125000
v -0.422470 0.117485 0.125000
v -0.347449 0.079976 0.375000
v -0.259310 0.348406 -0.375000
v -0.380190 0.096346 -0.375000
v -0.455252 0.133876 -0.125000
v -0.086274 0.886887 -0.375000
v -0.179091 0.620796 -0.375000
v -0.189805 0.626153 -0.125000
v -0.074384 0.880942 -0.125000
v -0.288706 0.363103 -0.125000
v -0.318724 0.378112 0.375000
v -0.000000 0.000000 0.500000
vn -0.3909 0.0680 0.9179
vn -0.2466 0.4334 0.8668
vn -0.3301 0.4222 0.8443
vn 0.3907 0.1169 0.9131
vn 0.6817 0.1345 0.7191
vn -0.3912 0.4116 0.8231
vn 0.4004 0.5088 0.7621
vn 0.1426 0.4913 0.8592
vn -0.0019 0.4472 0.8944
vn -0.3660 0.4162 0.8324
vn -0.2279 0.2609 0.9381
vn 0.0411 0.0792 0.9960
vn 0.8320 0.4160 -0.3672
vn 0.8540 0.1626 0.4943
vn 0.8944 0.4472 -0.0021
vn 0.8638 0.4319 -0.2593
vn 0.8516 0.5042 0.1436
vn 0.4483 0.7472 -0.4906
vn 0.6631 0.4734 0.5799
vn 0.6532 0.5292 -0.5416
vn 0.7496 0.1402 -0.6469
vn 0.6047 0.4952 0.6237
vn 0.8152 0.2319 0.5307
vn -0.0077 0.7507 0.6606
vn 0.0090 0.6288 0.7775
vn 0.7298 0.6695 0.1387
vn 0.3938 0.4231 0.8161
vn 0.6853 0.4425 0.5784
vn 0.7870 0.6071 0.1094
vn 0.0935 0.6014 0.7934
vn -0.3671 0.4160 0.8320
vn -0.4295 0.6780 0.5965
vn 0.5031 0.8611 0.0731
vn 0.0000 0.1949 0.9808
vn 1.0000 0.0000 -0.0000
vn 0.0000 -0.0000 -1.0000
vn 0.0000 -1.0000 0.0000
vn 0.0000 1.0000 0.0000
vn -0.8930 0.4465 0.0556
vn -0.8768 0.3400 -0.3401
vn -0.8021 0.5910 -0.0856
vn -0.6332 0.7477 -0.2000
vn -0.8701 0.4436 -0.2148
vn -0.7397 0.5642 0.3667
vn -0.7275 0.5888 0.3523
vn -0.7689 0.1121 -0.6295
vn -0.9879 -0.0749 -0.1359
vn -0.8232 -0.2876 -0.4895
vn -0.8556 0.4693 -0.2185
vn -0.8710 0.1621 0.4638
vn -0.8043 0.5883 -0.0835
vn -0.8372 0.4909 0.2412
vn -0.5840 0.7162 0.3821
vn -0.9131 0.1009 -0.3952
vn -0.8602 0.5018 0.0904
vn -0.8728 0.4855 0.0505
vn -0.8566 0.5091 -0.0841
vn -0.8921 0.4461 0.0718
vn -0.8611 0.5023 0.0780
vn -0.7656 0.6238 0.1572
vn -0.5985 0.6941 -0.4001
vn -0.9165 0.0054 0.4000
vn -0.9211 0.3235 -0.2165
vn -0.9273 0.3743 0.0000
vn -0.8346 0.5508 0.0000
vn -0.8731 0.4788 -0.0918
vn -0.8944 0.4472 0.0000
vn -0.8010 -0.2799 0.5292
vn -0.6136 0.7384 -0.2799
vn -0.8854 0.4427 0.1420
vn -0.9232 -0.0700 0.3779
vn -0.9859 0.1672 0.0000
vn -0.8897 0.1297 0.4377
vn -0.9484 0.3170 0.0000
vn -0.8064 0.5643 0.1770
vn -0.6854 0.6337 -0.3587
vn -0.9700 0.0588 0.2361
vn -0.7783 0.5936 -0.2045
vn -0.8203 0.5623 -0.1043
vn -0.7521 0.6327 -0.1848
vn -0.8919 0.4460 0.0750
vn -0.8733 0.3182 -0.3690
vn -0.7650 0.5244 0.3738
vn -0.8841 0.4507 0.1232
vn -0.9352 0.3084 0.1742
vn -0.9328 0.3077 0.1876
vn -0.9183 0.2806 -0.2792
vn -0.7654 0.5294 -0.3658
vn -0.6214 0.7478 0.2337
vn -0.9275 0.3596 -0.1021
vn -0.7149 0.6233 0.3169
vn -0.7529 0.6564 -0.0474
vn -0.9606 0.1788 -0.2126
vn -0.4978 0.8296 -0.2530
vn -0.6271 0.7719 0.1043
vn -0.6786 0.5194 0.5194
vn 0.8471 0.3758 0.3758
vn -0.0000 0.0000 1.0000
vn -0.5192 0.7379 0.4311
vn 0.0000 0.4472 0.8944
vn -0.3816 0.5226 0.7624
vn -0.3652 0.4474 0.8163
vn 0.0000 0.4590 0.8885
vn 0.4350 0.5922 0.6783
vn -0.3314 0.3625 0.8711
vn 0.1298 0.3596 0.9240
vn -0.2100 0.7081 0.6742
vn -0.2102 0.6405 0.7386
vn -0.4152 0.4528 0.7890
vn 0.0495 0.4960 0.8669
vn 0.0000 0.1127 0.9936
vn 0.9751 0.2174 -0.0435
vn 0.8187 0.5549 0.1476
vn 0.7276 0.6493 -0.2213
vn 0.6014 0.5982 -0.5297
vn 0.7834 0.6215 0.0000
vn 0.8638 0.5039 0.0000
vn 0.7082 0.4538 0.5408
vn 0.6636 0.3318 -0.6705
vn 0.7726 0.3863 -0.5039
vn 0.4426 0.8326 0.3330
vn 0.8184 0.5549 0.1491
vn 0.7048 0.2226 0.6736
vn 0.0920 0.6173 0.7813
vn 0.6226 0.7774 0.0892
vn -0.0433 0.2174 0.9751
vn -0.3973 0.3629 0.8429
vn -0.8985 0.4330 0.0717
vn -0.8771 0.3081 -0.3685
vn -0.8481 0.5299 0.0000
vn -0.8479 0.5002 0.1756
vn -0.7511 0.5488 -0.3670
vn -0.9564 0.2922 0.0000
vn -0.9414 0.0154 -0.3370
vn -0.7814 0.5469 -0.3005
vn -0.9950 -0.0392 -0.0923
vn -0.8455 0.4227 0.3263
vn -0.8711 0.2514 -0.4218
vn -0.8321 0.5472 0.0899
vn -0.8653 0.4327 -0.2530
vn -0.7126 0.5825 0.3912
vn -0.5486 0.7763 0.3105
vn -0.8988 0.3662 0.2410
vn -0.9228 0.3760 -0.0840
vn -0.5900 0.6966 -0.4082
vn -0.8207 0.5652 -0.0838
vn -0.8131 0.5599 0.1595
vn -0.8028 0.5872 0.1032
vn -0.8985 0.0052 0.4390
vn -0.8030 0.5554 -0.2161
vn -0.8345 0.5488 0.0502
vn -0.8147 0.5376 -0.2172
vn -0.7845 0.6135 -0.0901
vn -0.9156 0.0150 0.4017
vn -0.3887 0.7414 -0.5471
vn -0.3757 0.7166 0.5876
vn -0.9597 0.2770 -0.0482
vn -0.7215 0.6756 -0.1514
vn -0.6641 0.6219 0.4149
vn -0.8782 0.4391 -0.1898
vn -0.4952 0.6158 -0.6128
vn -0.5680 0.7064 0.4224
vn -0.7369 0.5763 0.3534
vn -0.9713 0.1647 0.1713
vn -0.7530 0.6094 0.2483
vn -0.9364 0.0568 0.3463
vn -0.8749 0.4374 -0.2080
vn -0.7483 0.6295 -0.2091
vn -0.7814 0.5709 0.2520
vn -0.8532 0.4746 -0.2166
vn -0.9325 0.3397 0.1224
vn -0.8458 0.4989 0.1891
vn -0.9920 0.1009 -0.0761
vn -0.7065 0.6532 -0.2725
vn -0.7892 0.5118 -0.3395
vn -0.8347 0.5413 -0.1019
vn -0.9412 -0.0370 0.3358
vn -0.6392 0.7413 -0.2045
vn -0.8981 0.4328 0.0782
vn -0.7004 0.7138 -0.0000
usemtl None
s off
f 12//1 25//1 18//1
f 24//2 17//2 6//2
f 23//3 14//3 9//3
f 22//4 21//4 7//4
f 35//5 11//5 21//5
f 15//6 6//6 14//6
f 20//7 10//7 15//7
f 20//8 23//8 19//8
f 39//9 8//9 17//9
f 19//10 9//10 18//10
f 21//11 11//11 19//11
f 21//12 25//12 12//12
f 27//13 30//13 45//13
f 36//14 42//14 37//14
f 32//15 27//15 39//15
f 26//16 32//16 40//16
f 41//17 36//17 29//17
f 33//18 28//18 36//18
f 34//19 10//19 37//19
f 26//20 34//20 42//20
f 31//21 42//21 36//21
f 38//22 29//22 35//22
f 46//23 35//23 29//23
f 46//24 20//24 11//24
f 20//25 46//25 10//25
f 46//26 37//26 10//26
f 15//27 10//27 44//27
f 44//28 10//28 34//28
f 39//29 44//29 40//29
f 44//30 39//30 24//30
f 45//31 13//31 8//31
f 13//31 45//31 3//31
f 45//13 30//13 3//13
f 22//32 47//32 35//32
f 35//33 47//33 43//33
f 16//34 5//34 47//34
f 9//35 2//35 18//35
f 82//36 52//36 49//36
f 53//37 121//37 75//37
f 2//38 12//38 4//38
f 120//39 84//39 54//39
f 79//40 119//40 90//40
f 118//41 91//41 5//41
f 117//42 81//42 66//42
f 116//43 94//43 67//43
f 87//44 115//44 95//44
f 96//45 114//45 80//45
f 97//46 113//46 98//46
f 89//47 112//47 99//47
f 100//48 111//48 73//48
f 101//49 110//49 102//49
f 109//50 103//50 63//50
f 104//51 108//51 77//51
f 105//52 107//52 106//52
f 105//53 70//53 38//53
f 66//54 105//54 91//54
f 88//55 63//55 106//55
f 81//56 55//56 88//56
f 81//57 107//57 105//57
f 78//58 54//58 77//58
f 106//59 63//59 78//59
f 70//60 106//60 108//60
f 101//61 69//61 103//61
f 65//62 101//62 109//62
f 55//63 90//63 109//63
f 75//64 60//64 102//64
f 53//65 75//65 110//65
f 80//66 110//66 101//66
f 86//67 51//67 73//67
f 102//64 60//64 86//64
f 102//68 111//68 100//68
f 97//69 68//69 99//69
f 82//70 56//70 97//70
f 82//71 112//71 89//71
f 72//72 57//72 98//72
f 71//67 50//67 72//67
f 71//73 113//73 97//73
f 114//74 83//74 53//74
f 57//74 83//74 114//74
f 68//75 98//75 114//75
f 93//76 67//76 95//76
f 59//77 93//77 115//77
f 85//78 115//78 87//78
f 89//79 64//79 94//79
f 52//80 89//80 116//80
f 59//81 74//81 116//81
f 117//82 79//82 55//82
f 94//83 64//83 79//83
f 67//84 94//84 117//84
f 118//85 92//85 66//85
f 67//86 92//86 118//86
f 61//87 95//87 118//87
f 96//88 65//88 90//88
f 99//89 68//89 96//89
f 99//90 119//90 79//90
f 120//91 100//91 58//91
f 69//92 100//92 120//92
f 63//93 103//93 120//93
f 104//94 62//94 33//94
f 38//95 70//95 104//95
f 3//38 51//38 121//38
f 91//96 43//96 5//96
f 47//97 5//97 43//97
f 84//98 32//98 54//98
f 43//99 91//99 105//99
f 12//100 18//100 4//100
f 24//101 6//101 15//101
f 23//102 9//102 19//102
f 22//103 7//103 16//103
f 35//104 21//104 22//104
f 15//105 14//105 23//105
f 20//106 15//106 23//106
f 20//107 19//107 11//107
f 39//108 17//108 24//108
f 19//109 18//109 25//109
f 21//110 19//110 25//110
f 21//111 12//111 7//111
f 27//112 45//112 39//112
f 36//113 37//113 29//113
f 32//114 39//114 40//114
f 26//115 40//115 34//115
f 41//116 29//116 38//116
f 33//117 36//117 41//117
f 34//118 37//118 42//118
f 26//119 42//119 31//119
f 31//120 36//120 28//120
f 38//121 35//121 43//121
f 46//122 29//122 37//122
f 46//123 11//123 35//123
f 15//124 44//124 24//124
f 44//125 34//125 40//125
f 45//126 8//126 39//126
f 16//127 47//127 22//127
f 3//35 1//35 13//35
f 13//35 1//35 8//35
f 17//35 1//35 6//35
f 6//35 1//35 14//35
f 8//35 1//35 17//35
f 2//35 9//35 1//35
f 18//35 2//35 4//35
f 14//35 1//35 9//35
f 49//36 74//36 1//36
f 1//36 59//36 2//36
f 74//36 59//36 1//36
f 2//36 85//36 48//36
f 74//36 49//36 52//36
f 2//36 59//36 85//36
f 50//36 71//36 49//36
f 71//36 56//36 49//36
f 82//36 49//36 56//36
f 51//37 86//37 121//37
f 121//37 49//37 3//37
f 3//37 49//37 1//37
f 49//37 72//37 50//37
f 57//37 49//37 83//37
f 83//37 49//37 53//37
f 49//37 57//37 72//37
f 121//37 53//37 49//37
f 60//37 75//37 121//37
f 60//37 121//37 86//37
f 12//38 2//38 7//38
f 7//38 48//38 16//38
f 16//38 48//38 5//38
f 48//38 7//38 2//38
f 120//128 54//128 78//128
f 79//129 90//129 55//129
f 118//130 5//130 76//130
f 117//131 66//131 92//131
f 116//132 67//132 93//132
f 87//133 95//133 61//133
f 96//134 80//134 65//134
f 97//135 98//135 68//135
f 89//136 99//136 64//136
f 100//137 73//137 58//137
f 101//138 102//138 69//138
f 109//139 63//139 88//139
f 104//140 77//140 62//140
f 105//141 106//141 70//141
f 105//142 38//142 43//142
f 88//143 106//143 107//143
f 81//144 88//144 107//144
f 81//145 105//145 66//145
f 78//146 77//146 108//146
f 106//147 78//147 108//147
f 70//148 108//148 104//148
f 101//149 103//149 109//149
f 65//150 109//150 90//150
f 55//151 109//151 88//151
f 75//152 102//152 110//152
f 53//153 110//153 80//153
f 80//154 101//154 65//154
f 86//155 73//155 111//155
f 102//156 86//156 111//156
f 102//157 100//157 69//157
f 97//158 99//158 112//158
f 82//159 97//159 112//159
f 82//160 89//160 52//160
f 72//161 98//161 113//161
f 71//162 72//162 113//162
f 71//70 97//70 56//70
f 114//163 53//163 80//163
f 57//164 114//164 98//164
f 68//165 114//165 96//165
f 93//166 95//166 115//166
f 59//167 115//167 85//167
f 85//67 87//67 48//67
f 89//168 94//168 116//168
f 52//81 116//81 74//81
f 59//169 116//169 93//169
f 117//170 55//170 81//170
f 94//171 79//171 117//171
f 67//172 117//172 92//172
f 118//173 66//173 91//173
f 67//174 118//174 95//174
f 61//130 118//130 76//130
f 96//175 90//175 119//175
f 99//176 96//176 119//176
f 99//177 79//177 64//177
f 120//39 58//39 84//39
f 69//178 120//178 103//178
f 63//179 120//179 78//179
f 104//180 33//180 41//180
f 38//180 104//180 41//180
f 31//98 77//98 26//98
f 26//98 54//98 32//98
f 31//98 28//98 62//98
f 27//98 73//98 30//98
f 30//98 51//98 3//98
f 62//98 77//98 31//98
f 28//98 33//98 62//98
f 30//98 73//98 51//98
f 32//98 58//98 27//98
f 73//98 27//98 58//98
f 58//98 32//98 84//98
f 77//98 54//98 26//98
