# Blender v2.79 (sub 0) OBJ File: 'allinoneblend.blend'
# www.blender.org
mtllib wall_single_edge_right.mtl
o Cube.007_Cube.008
v -0.500000 0.000000 0.500000
v -0.500000 1.000000 0.500000
v 0.500000 0.000000 0.500000
v -0.000000 1.000000 0.500000
v 0.000000 1.000000 0.000000
v 0.250000 0.500000 0.500000
v -0.000000 1.000000 0.250000
v 0.375000 0.250000 0.500000
v 0.125000 0.750000 0.500000
v 0.242839 0.520775 0.242571
v 0.051739 0.718559 0.244607
v -0.000000 1.000000 0.375000
v 0.437500 0.125000 0.500000
v 0.187500 0.625000 0.500000
v 0.198867 0.482876 0.374408
v -0.000000 1.000000 0.125000
v 0.312500 0.375000 0.500000
v 0.062500 0.875000 0.500000
v 0.080499 0.730259 0.376356
v 0.157858 0.625442 0.271328
v 0.016542 0.854155 0.254988
v 0.059201 0.885401 0.145937
v 0.148421 0.610119 0.380999
v 0.281954 0.374998 0.392645
v 0.011834 0.850245 0.376736
v 0.500000 0.500000 0.250000
v 0.500000 0.250000 0.375000
v 0.500000 0.750000 0.125000
v 0.252546 0.722361 0.081428
v 0.500000 0.125000 0.437500
v 0.500000 0.625000 0.187500
v 0.500000 0.375000 0.312500
v 0.500000 0.825000 0.000000
v 0.370289 0.463683 0.171871
v 0.146541 0.797816 0.128968
v 0.381189 0.704992 0.070011
v 0.270741 0.614666 0.151138
v 0.250000 0.825000 0.000000
v 0.364369 0.270678 0.364345
v 0.392560 0.373874 0.280818
v 0.375000 0.825000 0.000000
v 0.381509 0.569198 0.095681
v 0.125000 0.875000 0.000000
v 0.293785 0.374751 0.293872
v 0.401954 0.109565 0.401946
v 0.164996 0.618098 0.168082
v 0.029307 0.852484 0.052448
v -0.500000 1.000000 -0.000000
v -0.500000 0.000000 0.000000
v -0.500000 0.000000 -0.500000
v 0.500000 0.000000 -0.500000
v -0.500000 0.500000 -0.250000
v 0.000000 0.000000 -0.500000
v 0.500000 0.500000 -0.250000
v 0.000000 0.516317 -0.282635
v -0.500000 0.250000 -0.375000
v -0.250000 0.000000 -0.500000
v 0.500000 0.250000 -0.375000
v -0.500000 0.750000 -0.125000
v 0.250000 0.000000 -0.500000
v -0.250000 1.000000 0.000000
v 0.500000 0.750000 -0.125000
v 0.250000 0.508406 -0.266812
v -0.250000 0.516724 -0.283450
v 0.000000 0.267306 -0.409614
v -0.000000 0.736817 -0.098634
v -0.250000 0.757601 -0.140204
v -0.250000 0.259786 -0.394572
v 0.250000 0.266554 -0.408110
v 0.249168 0.736378 -0.109235
v -0.500000 0.125000 -0.437500
v -0.375000 0.000000 -0.500000
v 0.500000 0.125000 -0.437500
v -0.500000 0.625000 -0.187500
v 0.125000 0.000000 -0.500000
v -0.125000 1.000000 0.000000
v 0.500000 0.625000 -0.187500
v 0.375000 0.504021 -0.258043
v -0.125000 0.493979 -0.237959
v -0.000000 0.112327 -0.412153
v 0.000000 0.638567 -0.214635
v -0.500000 0.375000 -0.312500
v -0.125000 0.000000 -0.500000
v 0.500000 0.375000 -0.312500
v -0.500000 0.875000 -0.062500
v 0.375000 0.000000 -0.500000
v -0.375000 1.000000 0.000000
v 0.125000 0.513489 -0.276978
v -0.375000 0.510809 -0.271618
v 0.000000 0.383409 -0.329318
v 0.003687 0.887033 -0.083634
v -0.125000 0.746812 -0.118624
v -0.375000 0.735237 -0.095472
v -0.250000 0.633091 -0.203683
v -0.250000 0.864456 -0.041412
v -0.125000 0.245111 -0.365222
v -0.375000 0.241983 -0.358965
v -0.250000 0.144037 -0.475575
v -0.250000 0.357340 -0.277178
v 0.375000 0.269296 -0.413594
v 0.125000 0.240109 -0.355218
v 0.250000 0.130011 -0.447522
v 0.250000 0.365457 -0.293413
v 0.375000 0.726865 -0.100017
v 0.127534 0.767682 -0.150419
v 0.250000 0.629372 -0.196245
v 0.125000 0.643295 -0.224091
v 0.375000 0.620252 -0.178003
v 0.125000 0.395903 -0.354307
v 0.125000 0.117485 -0.422470
v 0.375000 0.079976 -0.347449
v -0.375000 0.348406 -0.259310
v -0.375000 0.096346 -0.380190
v -0.125000 0.133876 -0.455252
v -0.375000 0.886887 -0.086274
v -0.375000 0.620796 -0.179091
v -0.125000 0.626153 -0.189805
v -0.125000 0.880942 -0.074384
v -0.125000 0.363103 -0.288706
v 0.375000 0.378112 -0.318724
v 0.500000 0.000000 0.000000
vn 0.9179 0.0680 -0.3909
vn 0.8668 0.4334 -0.2466
vn 0.8443 0.4222 -0.3301
vn 0.9131 0.1169 0.3907
vn 0.7191 0.1345 0.6817
vn 0.8231 0.4116 -0.3912
vn 0.7621 0.5088 0.4004
vn 0.8592 0.4913 0.1426
vn 0.8944 0.4472 -0.0019
vn 0.8324 0.4162 -0.3660
vn 0.9381 0.2609 -0.2279
vn 0.9960 0.0792 0.0411
vn -0.3672 0.4160 0.8320
vn 0.4943 0.1626 0.8540
vn -0.0021 0.4472 0.8944
vn -0.2593 0.4319 0.8638
vn 0.1436 0.5042 0.8516
vn -0.4906 0.7472 0.4483
vn 0.5799 0.4734 0.6631
vn -0.5416 0.5292 0.6532
vn -0.6469 0.1402 0.7496
vn 0.6237 0.4952 0.6047
vn 0.5307 0.2319 0.8152
vn 0.6606 0.7507 -0.0077
vn 0.7775 0.6288 0.0090
vn 0.1387 0.6695 0.7298
vn 0.8161 0.4231 0.3938
vn 0.5784 0.4425 0.6853
vn 0.1094 0.6071 0.7870
vn 0.7934 0.6014 0.0935
vn 0.8320 0.4160 -0.3671
vn 0.5965 0.6780 -0.4295
vn 0.0731 0.8611 0.5031
vn 0.9808 0.1949 0.0000
vn 0.0000 -0.0000 1.0000
vn -1.0000 0.0000 0.0000
vn 0.0000 -1.0000 0.0000
vn 0.0000 1.0000 -0.0000
vn 0.0556 0.4465 -0.8930
vn -0.3401 0.3400 -0.8768
vn -0.0856 0.5910 -0.8021
vn -0.2000 0.7477 -0.6332
vn -0.2148 0.4436 -0.8701
vn 0.3667 0.5642 -0.7397
vn 0.3523 0.5888 -0.7275
vn -0.6295 0.1121 -0.7689
vn -0.1359 -0.0749 -0.9879
vn -0.4895 -0.2876 -0.8232
vn -0.2185 0.4693 -0.8556
vn 0.4638 0.1621 -0.8710
vn -0.0835 0.5883 -0.8043
vn 0.2412 0.4909 -0.8372
vn 0.3821 0.7162 -0.5840
vn -0.3952 0.1009 -0.9131
vn 0.0904 0.5018 -0.8602
vn 0.0505 0.4855 -0.8728
vn -0.0841 0.5091 -0.8566
vn 0.0718 0.4461 -0.8921
vn 0.0780 0.5023 -0.8611
vn 0.1572 0.6238 -0.7656
vn -0.4001 0.6941 -0.5985
vn 0.4000 0.0054 -0.9165
vn -0.2165 0.3235 -0.9211
vn 0.0000 0.3743 -0.9273
vn 0.0000 0.5508 -0.8346
vn -0.0918 0.4788 -0.8731
vn 0.0000 0.4472 -0.8944
vn 0.5292 -0.2799 -0.8010
vn -0.2799 0.7384 -0.6136
vn 0.1420 0.4427 -0.8854
vn 0.3779 -0.0700 -0.9232
vn 0.0000 0.1672 -0.9859
vn 0.4377 0.1297 -0.8897
vn 0.0000 0.3170 -0.9484
vn 0.1770 0.5643 -0.8064
vn -0.3587 0.6337 -0.6854
vn 0.2361 0.0588 -0.9700
vn -0.2045 0.5936 -0.7783
vn -0.1043 0.5623 -0.8203
vn -0.1848 0.6327 -0.7521
vn 0.0750 0.4460 -0.8919
vn -0.3690 0.3182 -0.8733
vn 0.3738 0.5244 -0.7650
vn 0.1232 0.4507 -0.8841
vn 0.1742 0.3084 -0.9352
vn 0.1876 0.3077 -0.9328
vn -0.2792 0.2806 -0.9183
vn -0.3658 0.5294 -0.7654
vn 0.2337 0.7478 -0.6214
vn -0.1021 0.3596 -0.9275
vn 0.3169 0.6233 -0.7149
vn -0.0474 0.6564 -0.7529
vn -0.2126 0.1788 -0.9606
vn -0.2530 0.8296 -0.4978
vn 0.1043 0.7719 -0.6271
vn 0.5194 0.5194 -0.6786
vn 0.3758 0.3758 0.8471
vn 1.0000 0.0000 0.0000
vn 0.4311 0.7379 -0.5192
vn 0.8944 0.4472 -0.0000
vn 0.7624 0.5226 -0.3816
vn 0.8163 0.4474 -0.3652
vn 0.8885 0.4590 -0.0000
vn 0.6783 0.5922 0.4350
vn 0.8711 0.3625 -0.3314
vn 0.9240 0.3596 0.1298
vn 0.6742 0.7081 -0.2100
vn 0.7386 0.6405 -0.2102
vn 0.7890 0.4528 -0.4152
vn 0.8669 0.4960 0.0495
vn 0.9936 0.1127 0.0000
vn -0.0435 0.2174 0.9751
vn 0.1476 0.5549 0.8187
vn -0.2213 0.6494 0.7276
vn -0.5297 0.5982 0.6014
vn 0.0000 0.6215 0.7834
vn -0.0000 0.5039 0.8638
vn 0.5408 0.4538 0.7082
vn -0.6705 0.3318 0.6636
vn -0.5039 0.3863 0.7726
vn 0.3330 0.8326 0.4426
vn 0.1491 0.5549 0.8184
vn 0.6736 0.2226 0.7048
vn 0.7813 0.6173 0.0920
vn 0.0892 0.7774 0.6226
vn 0.9751 0.2174 -0.0433
vn 0.8429 0.3629 -0.3973
vn 0.0717 0.4330 -0.8985
vn -0.3685 0.3081 -0.8771
vn 0.0000 0.5299 -0.8481
vn 0.1756 0.5002 -0.8479
vn -0.3670 0.5488 -0.7511
vn 0.0000 0.2922 -0.9564
vn -0.3371 0.0154 -0.9414
vn -0.3005 0.5469 -0.7814
vn -0.0923 -0.0392 -0.9950
vn 0.3263 0.4227 -0.8455
vn -0.4218 0.2514 -0.8711
vn 0.0899 0.5472 -0.8321
vn -0.2530 0.4327 -0.8653
vn 0.3912 0.5825 -0.7126
vn 0.3105 0.7763 -0.5486
vn 0.2410 0.3662 -0.8988
vn -0.0840 0.3760 -0.9228
vn -0.4082 0.6966 -0.5900
vn -0.0838 0.5652 -0.8207
vn 0.1595 0.5599 -0.8131
vn 0.1032 0.5872 -0.8028
vn 0.4390 0.0053 -0.8985
vn -0.2161 0.5554 -0.8030
vn 0.0502 0.5488 -0.8345
vn -0.2172 0.5376 -0.8147
vn -0.0901 0.6135 -0.7845
vn 0.4017 0.0150 -0.9156
vn -0.5471 0.7414 -0.3887
vn 0.5876 0.7166 -0.3757
vn -0.0482 0.2770 -0.9597
vn -0.1514 0.6756 -0.7215
vn 0.4149 0.6219 -0.6641
vn -0.1898 0.4391 -0.8782
vn -0.6128 0.6158 -0.4952
vn 0.4224 0.7064 -0.5680
vn 0.3534 0.5763 -0.7369
vn 0.1713 0.1647 -0.9713
vn 0.2483 0.6094 -0.7530
vn 0.3463 0.0568 -0.9364
vn -0.2080 0.4374 -0.8749
vn -0.2091 0.6295 -0.7483
vn 0.2520 0.5709 -0.7814
vn -0.2166 0.4746 -0.8532
vn 0.1224 0.3397 -0.9325
vn 0.1891 0.4989 -0.8458
vn -0.0761 0.1009 -0.9920
vn -0.2725 0.6532 -0.7065
vn -0.3395 0.5118 -0.7892
vn -0.1019 0.5413 -0.8347
vn 0.3358 -0.0370 -0.9412
vn -0.2045 0.7413 -0.6392
vn 0.0782 0.4328 -0.8981
vn 0.0000 0.7138 -0.7004
usemtl None
s off
f 12//1 18//1 25//1
f 24//2 6//2 17//2
f 23//3 9//3 14//3
f 22//4 7//4 21//4
f 35//5 21//5 11//5
f 15//6 14//6 6//6
f 20//7 15//7 10//7
f 20//8 19//8 23//8
f 39//9 17//9 8//9
f 19//10 18//10 9//10
f 21//11 19//11 11//11
f 21//12 12//12 25//12
f 27//13 45//13 30//13
f 36//14 37//14 42//14
f 32//15 39//15 27//15
f 26//16 40//16 32//16
f 41//17 29//17 36//17
f 33//18 36//18 28//18
f 34//19 37//19 10//19
f 26//20 42//20 34//20
f 31//21 36//21 42//21
f 38//22 35//22 29//22
f 46//23 29//23 35//23
f 46//24 11//24 20//24
f 20//25 10//25 46//25
f 46//26 10//26 37//26
f 15//27 44//27 10//27
f 44//28 34//28 10//28
f 39//29 40//29 44//29
f 44//30 24//30 39//30
f 45//31 8//31 13//31
f 13//31 3//31 45//31
f 45//13 3//13 30//13
f 22//32 35//32 47//32
f 35//33 43//33 47//33
f 16//34 47//34 5//34
f 9//35 18//35 2//35
f 82//36 49//36 52//36
f 53//37 75//37 121//37
f 2//38 4//38 12//38
f 120//39 54//39 84//39
f 79//40 90//40 119//40
f 118//41 5//41 91//41
f 117//42 66//42 81//42
f 116//43 67//43 94//43
f 87//44 95//44 115//44
f 96//45 80//45 114//45
f 97//46 98//46 113//46
f 89//47 99//47 112//47
f 100//48 73//48 111//48
f 101//49 102//49 110//49
f 109//50 63//50 103//50
f 104//51 77//51 108//51
f 105//52 106//52 107//52
f 105//53 38//53 70//53
f 66//54 91//54 105//54
f 88//55 106//55 63//55
f 81//56 88//56 55//56
f 81//57 105//57 107//57
f 78//58 77//58 54//58
f 106//59 78//59 63//59
f 70//60 108//60 106//60
f 101//61 103//61 69//61
f 65//62 109//62 101//62
f 55//63 109//63 90//63
f 75//64 102//64 60//64
f 53//65 110//65 75//65
f 80//66 101//66 110//66
f 86//67 73//67 51//67
f 102//64 86//64 60//64
f 102//68 100//68 111//68
f 97//69 99//69 68//69
f 82//70 97//70 56//70
f 82//71 89//71 112//71
f 72//72 98//72 57//72
f 71//67 72//67 50//67
f 71//73 97//73 113//73
f 114//74 53//74 83//74
f 57//74 114//74 83//74
f 68//75 114//75 98//75
f 93//76 95//76 67//76
f 59//77 115//77 93//77
f 85//78 87//78 115//78
f 89//79 94//79 64//79
f 52//80 116//80 89//80
f 59//81 116//81 74//81
f 117//82 55//82 79//82
f 94//83 79//83 64//83
f 67//84 117//84 94//84
f 118//85 66//85 92//85
f 67//86 118//86 92//86
f 61//87 118//87 95//87
f 96//88 90//88 65//88
f 99//89 96//89 68//89
f 99//90 79//90 119//90
f 120//91 58//91 100//91
f 69//92 120//92 100//92
f 63//93 120//93 103//93
f 104//94 33//94 62//94
f 38//95 104//95 70//95
f 3//35 121//35 51//35
f 91//96 5//96 43//96
f 47//97 43//97 5//97
f 84//98 54//98 32//98
f 43//99 105//99 91//99
f 12//100 4//100 18//100
f 24//101 15//101 6//101
f 23//102 19//102 9//102
f 22//103 16//103 7//103
f 35//104 22//104 21//104
f 15//105 23//105 14//105
f 20//106 23//106 15//106
f 20//107 11//107 19//107
f 39//108 24//108 17//108
f 19//109 25//109 18//109
f 21//110 25//110 19//110
f 21//111 7//111 12//111
f 27//112 39//112 45//112
f 36//113 29//113 37//113
f 32//114 40//114 39//114
f 26//115 34//115 40//115
f 41//116 38//116 29//116
f 33//117 41//117 36//117
f 34//118 42//118 37//118
f 26//119 31//119 42//119
f 31//120 28//120 36//120
f 38//121 43//121 35//121
f 46//122 37//122 29//122
f 46//123 35//123 11//123
f 15//124 24//124 44//124
f 44//125 40//125 34//125
f 45//126 39//126 8//126
f 16//127 22//127 47//127
f 3//35 13//35 1//35
f 13//35 8//35 1//35
f 17//35 6//35 1//35
f 6//35 14//35 1//35
f 8//35 17//35 1//35
f 2//35 1//35 9//35
f 18//35 4//35 2//35
f 14//35 9//35 1//35
f 49//36 1//36 74//36
f 1//36 2//36 59//36
f 74//36 1//36 59//36
f 2//36 48//36 85//36
f 74//36 52//36 49//36
f 2//36 85//36 59//36
f 50//36 49//36 71//36
f 71//36 49//36 56//36
f 82//36 56//36 49//36
f 51//37 121//37 86//37
f 121//37 3//37 49//37
f 3//37 1//37 49//37
f 49//37 50//37 72//37
f 57//37 83//37 49//37
f 83//37 53//37 49//37
f 49//37 72//37 57//37
f 121//37 49//37 53//37
f 60//37 121//37 75//37
f 60//37 86//37 121//37
f 12//38 7//38 2//38
f 7//38 16//38 48//38
f 16//38 5//38 48//38
f 48//38 2//38 7//38
f 120//128 78//128 54//128
f 79//129 55//129 90//129
f 118//130 76//130 5//130
f 117//131 92//131 66//131
f 116//132 93//132 67//132
f 87//133 61//133 95//133
f 96//134 65//134 80//134
f 97//135 68//135 98//135
f 89//136 64//136 99//136
f 100//137 58//137 73//137
f 101//138 69//138 102//138
f 109//139 88//139 63//139
f 104//140 62//140 77//140
f 105//141 70//141 106//141
f 105//142 43//142 38//142
f 88//143 107//143 106//143
f 81//144 107//144 88//144
f 81//145 66//145 105//145
f 78//146 108//146 77//146
f 106//147 108//147 78//147
f 70//148 104//148 108//148
f 101//149 109//149 103//149
f 65//150 90//150 109//150
f 55//151 88//151 109//151
f 75//152 110//152 102//152
f 53//153 80//153 110//153
f 80//154 65//154 101//154
f 86//155 111//155 73//155
f 102//156 111//156 86//156
f 102//157 69//157 100//157
f 97//158 112//158 99//158
f 82//159 112//159 97//159
f 82//160 52//160 89//160
f 72//161 113//161 98//161
f 71//162 113//162 72//162
f 71//70 56//70 97//70
f 114//163 80//163 53//163
f 57//164 98//164 114//164
f 68//165 96//165 114//165
f 93//166 115//166 95//166
f 59//167 85//167 115//167
f 85//67 48//67 87//67
f 89//168 116//168 94//168
f 52//81 74//81 116//81
f 59//169 93//169 116//169
f 117//170 81//170 55//170
f 94//171 117//171 79//171
f 67//172 92//172 117//172
f 118//173 91//173 66//173
f 67//174 95//174 118//174
f 61//130 76//130 118//130
f 96//175 119//175 90//175
f 99//176 119//176 96//176
f 99//177 64//177 79//177
f 120//39 84//39 58//39
f 69//178 103//178 120//178
f 63//179 78//179 120//179
f 104//180 41//180 33//180
f 38//180 41//180 104//180
f 31//98 26//98 77//98
f 26//98 32//98 54//98
f 31//98 62//98 28//98
f 27//98 30//98 73//98
f 30//98 3//98 51//98
f 62//98 31//98 77//98
f 28//98 62//98 33//98
f 30//98 51//98 73//98
f 32//98 27//98 58//98
f 73//98 58//98 27//98
f 58//98 84//98 32//98
f 77//98 26//98 54//98
